<svg width="11" height="14" viewBox="0 0 11 14" fill="none" xmlns="http://www.w3.org/2000/svg">
<path d="M8.55556 0H2.44444C1.09442 0 0 1.04467 0 2.33333V11.6667C0 12.9553 1.09442 14 2.44444 14H8.55556C9.90558 14 11 12.9553 11 11.6667V2.33333C11 1.04467 9.90558 0 8.55556 0ZM6.72222 12.8333H4.27778C3.94027 12.8333 3.66667 12.5722 3.66667 12.25C3.66667 11.9278 3.94027 11.6667 4.27778 11.6667H6.72222C7.05973 11.6667 7.33333 11.9278 7.33333 12.25C7.33333 12.5722 7.05973 12.8333 6.72222 12.8333ZM9.16667 10.5H1.83333V2.33333H9.16667V10.5Z" fill="#6A7083"/>
</svg>
