<svg width="36" height="35" viewBox="0 0 36 35" fill="none" xmlns="http://www.w3.org/2000/svg">
<path d="M32.1057 0H2.9187C1.30674 0 0 1.30584 0 2.91667V4.375H35.0244V2.91667C35.0244 1.30584 33.7176 0 32.1057 0ZM0 32.0833C0 33.6942 1.30674 35 2.9187 35H32.1057C33.7176 35 35.0244 33.6942 35.0244 32.0833V7.29167H0V32.0833ZM28.4573 11.6667C29.6663 11.6667 30.6463 12.646 30.6463 13.8542C30.6463 15.0623 29.6663 16.0417 28.4573 16.0417C27.2483 16.0417 26.2683 15.0623 26.2683 13.8542C26.2683 12.646 27.2483 11.6667 28.4573 11.6667ZM28.4573 18.9583C29.6663 18.9583 30.6463 19.9377 30.6463 21.1458C30.6463 22.354 29.6663 23.3333 28.4573 23.3333C27.2483 23.3333 26.2683 22.354 26.2683 21.1458C26.2683 19.9377 27.2483 18.9583 28.4573 18.9583ZM21.1605 11.6667C22.3695 11.6667 23.3496 12.646 23.3496 13.8542C23.3496 15.0623 22.3695 16.0417 21.1605 16.0417C19.9516 16.0417 18.9715 15.0623 18.9715 13.8542C18.9715 12.646 19.9516 11.6667 21.1605 11.6667ZM21.1605 18.9583C22.3695 18.9583 23.3496 19.9377 23.3496 21.1458C23.3496 22.354 22.3695 23.3333 21.1605 23.3333C19.9516 23.3333 18.9715 22.354 18.9715 21.1458C18.9715 19.9377 19.9516 18.9583 21.1605 18.9583ZM21.1605 26.25C22.3695 26.25 23.3496 27.2294 23.3496 28.4375C23.3496 29.6456 22.3695 30.625 21.1605 30.625C19.9516 30.625 18.9715 29.6456 18.9715 28.4375C18.9715 27.2294 19.9516 26.25 21.1605 26.25ZM13.8638 11.6667C15.0728 11.6667 16.0528 12.646 16.0528 13.8542C16.0528 15.0623 15.0728 16.0417 13.8638 16.0417C12.6548 16.0417 11.6748 15.0623 11.6748 13.8542C11.6748 12.646 12.6548 11.6667 13.8638 11.6667ZM13.8638 18.9583C15.0728 18.9583 16.0528 19.9377 16.0528 21.1458C16.0528 22.354 15.0728 23.3333 13.8638 23.3333C12.6548 23.3333 11.6748 22.354 11.6748 21.1458C11.6748 19.9377 12.6548 18.9583 13.8638 18.9583ZM13.8638 26.25C15.0728 26.25 16.0528 27.2294 16.0528 28.4375C16.0528 29.6456 15.0728 30.625 13.8638 30.625C12.6548 30.625 11.6748 29.6456 11.6748 28.4375C11.6748 27.2294 12.6548 26.25 13.8638 26.25ZM6.56707 11.6667C7.77603 11.6667 8.75609 12.646 8.75609 13.8542C8.75609 15.0623 7.77603 16.0417 6.56707 16.0417C5.3581 16.0417 4.37804 15.0623 4.37804 13.8542C4.37804 12.646 5.3581 11.6667 6.56707 11.6667ZM6.56707 18.9583C7.77603 18.9583 8.75609 19.9377 8.75609 21.1458C8.75609 22.354 7.77603 23.3333 6.56707 23.3333C5.3581 23.3333 4.37804 22.354 4.37804 21.1458C4.37804 19.9377 5.3581 18.9583 6.56707 18.9583ZM6.56707 26.25C7.77603 26.25 8.75609 27.2294 8.75609 28.4375C8.75609 29.6456 7.77603 30.625 6.56707 30.625C5.3581 30.625 4.37804 29.6456 4.37804 28.4375C4.37804 27.2294 5.3581 26.25 6.56707 26.25Z" fill="#0075C9"/>
</svg>
