<svg width="738" height="415" viewBox="0 0 738 415" fill="none" xmlns="http://www.w3.org/2000/svg">
<g opacity="0.8">
<path d="M139.318 42.6115C139.301 40.6504 132.082 36.1761 128.475 34.1841C130.036 31.1741 133.475 25.1047 134.743 24.9068C136.01 24.7089 142.957 30.9056 146.272 34.0287C143.961 37.7068 139.335 44.5726 139.318 42.6115Z" fill="url(#paint0_linear)"/>
<path d="M494.082 252.595C494.065 250.634 486.846 246.16 483.239 244.168C484.8 241.158 488.238 235.088 489.506 234.89C490.774 234.692 497.721 240.889 501.035 244.012C498.725 247.69 494.099 254.556 494.082 252.595Z" fill="url(#paint1_linear)"/>
<path d="M277.287 364.132C277.27 362.17 270.051 357.696 266.444 355.704C268.005 352.694 271.443 346.625 272.711 346.427C273.979 346.229 280.926 352.426 284.241 355.549C281.93 359.227 277.304 366.093 277.287 364.132Z" fill="url(#paint2_linear)"/>
<path d="M7.36791 187.653C7.35078 185.692 3.51048 181.188 1.59247 179.181C2.40646 176.178 4.20205 170.123 4.87254 169.93C5.54303 169.737 9.24632 175.962 11.0142 179.099C9.80588 182.767 7.38504 189.614 7.36791 187.653Z" fill="url(#paint3_linear)"/>
<path d="M438.035 35.9734C438.018 34.0122 430.799 29.5379 427.192 27.5459C428.753 24.5359 432.191 18.4665 433.459 18.2686C434.727 18.0708 441.674 24.2674 444.989 27.3905C442.678 31.0686 438.052 37.9345 438.035 35.9734Z" fill="url(#paint4_linear)"/>
<path d="M136.76 397.294C136.743 395.333 129.524 390.858 125.917 388.866C127.477 385.856 130.916 379.787 132.184 379.589C133.452 379.391 140.398 385.588 143.713 388.711C141.403 392.389 136.777 399.255 136.76 397.294Z" fill="url(#paint5_linear)"/>
<path d="M502.031 143.947C502.014 141.986 494.795 137.512 491.188 135.52C492.749 132.51 496.188 126.44 497.455 126.242C498.723 126.044 505.67 132.241 508.985 135.364C506.674 139.042 502.048 145.908 502.031 143.947Z" fill="url(#paint6_linear)"/>
<path d="M729.027 241.495C729.01 239.534 721.791 235.059 718.184 233.067C719.745 230.057 723.184 223.988 724.452 223.79C725.719 223.592 732.666 229.789 735.981 232.912C733.67 236.59 729.044 243.456 729.027 241.495Z" fill="url(#paint7_linear)"/>
<path d="M178.061 218.825C181.023 216.974 181.095 211.043 180.761 208.308L171.479 211.127L172.962 221.15C173.428 221.146 175.099 220.675 178.061 218.825Z" fill="url(#paint8_linear)"/>
<path d="M260.727 33.9452C263.689 32.0946 263.761 26.1633 263.427 23.429L254.145 26.2473L255.628 36.2708C256.094 36.2667 257.765 35.7959 260.727 33.9452Z" fill="url(#paint9_linear)"/>
<path d="M583.356 52.9496C586.318 51.099 586.39 45.1677 586.056 42.4334L576.774 45.2517L578.257 55.2752C578.723 55.2711 580.394 54.8003 583.356 52.9496Z" fill="url(#paint10_linear)"/>
<path d="M178.403 115.999C181.364 114.149 181.437 108.218 181.103 105.483L171.821 108.302L173.304 118.325C173.77 118.321 175.441 117.85 178.403 115.999Z" fill="url(#paint11_linear)"/>
<path d="M668.342 157.826C669.139 154.385 665.053 150.15 662.91 148.462L658.334 157.142L666.37 163.142C666.696 162.804 667.545 161.267 668.342 157.826Z" fill="url(#paint12_linear)"/>
<path d="M677.217 11.1469C680.179 9.29624 680.251 3.36499 679.917 0.630707L670.635 3.44897L672.119 13.4724C672.584 13.4684 674.255 12.9976 677.217 11.1469Z" fill="url(#paint13_linear)"/>
<path d="M606.82 338.123C609.782 336.272 609.855 330.341 609.521 327.607L600.239 330.425L601.722 340.449C602.188 340.444 603.859 339.974 606.82 338.123Z" fill="url(#paint14_linear)"/>
<path d="M313.187 282.199L318.191 286.768L309.698 296.068L305.146 291.495L313.187 282.199Z" fill="url(#paint15_linear)"/>
<path d="M53.1461 237.1L58.1499 241.669L49.6571 250.968L45.1045 246.395L53.1461 237.1Z" fill="url(#paint16_linear)"/>
<path d="M536.908 356.506L535.783 363.246L523.512 360.912L524.882 354.557L536.908 356.506Z" fill="url(#paint17_linear)"/>
<path d="M11.4742 380.638L16.478 385.207L7.98522 394.507L3.43264 389.934L11.4742 380.638Z" fill="url(#paint18_linear)"/>
<path d="M344.853 112.164L349.857 116.733L341.364 126.032L336.812 121.459L344.853 112.164Z" fill="url(#paint19_linear)"/>
<path d="M568.301 133.532L574.742 135.497L570.958 147.592L564.924 145.427L568.301 133.532Z" fill="url(#paint20_linear)"/>
<path d="M393.822 408.55C396.784 406.699 396.857 400.768 396.523 398.034L387.241 400.852L388.724 410.875C389.189 410.871 390.86 410.4 393.822 408.55Z" fill="url(#paint21_linear)"/>
<path d="M696.049 369.185C699.011 367.335 699.083 361.404 698.749 358.669L689.467 361.488L690.951 371.511C691.416 371.507 693.087 371.036 696.049 369.185Z" fill="url(#paint22_linear)"/>
</g>
<defs>
<linearGradient id="paint0_linear" x1="137.451" y1="42.975" x2="137.293" y2="24.8804" gradientUnits="userSpaceOnUse">
<stop stop-color="#0075C9"/>
<stop offset="1" stop-color="#00194D"/>
</linearGradient>
<linearGradient id="paint1_linear" x1="492.215" y1="252.958" x2="492.057" y2="234.864" gradientUnits="userSpaceOnUse">
<stop stop-color="#0075C9"/>
<stop offset="1" stop-color="#76C2B6"/>
</linearGradient>
<linearGradient id="paint2_linear" x1="275.42" y1="364.495" x2="275.262" y2="346.4" gradientUnits="userSpaceOnUse">
<stop stop-color="#0075C9"/>
<stop offset="1" stop-color="#76C2B6"/>
</linearGradient>
<linearGradient id="paint3_linear" x1="6.38077" y1="188.009" x2="6.22274" y2="169.914" gradientUnits="userSpaceOnUse">
<stop stop-color="#0075C9"/>
<stop offset="1" stop-color="#76C2B6"/>
</linearGradient>
<linearGradient id="paint4_linear" x1="436.168" y1="36.3368" x2="436.01" y2="18.2423" gradientUnits="userSpaceOnUse">
<stop stop-color="#0075C9"/>
<stop offset="1" stop-color="#76C2B6"/>
</linearGradient>
<linearGradient id="paint5_linear" x1="134.892" y1="397.657" x2="134.734" y2="379.563" gradientUnits="userSpaceOnUse">
<stop stop-color="#0075C9"/>
<stop offset="1" stop-color="#76C2B6"/>
</linearGradient>
<linearGradient id="paint6_linear" x1="500.164" y1="144.31" x2="500.006" y2="126.216" gradientUnits="userSpaceOnUse">
<stop stop-color="#0075C9"/>
<stop offset="1" stop-color="#76C2B6"/>
</linearGradient>
<linearGradient id="paint7_linear" x1="727.16" y1="241.858" x2="727.002" y2="223.764" gradientUnits="userSpaceOnUse">
<stop stop-color="#0075C9"/>
<stop offset="1" stop-color="#76C2B6"/>
</linearGradient>
<linearGradient id="paint8_linear" x1="176.277" y1="221.121" x2="176.166" y2="208.349" gradientUnits="userSpaceOnUse">
<stop stop-color="#0075C9"/>
<stop offset="1" stop-color="#76C2B6"/>
</linearGradient>
<linearGradient id="paint9_linear" x1="258.943" y1="36.2418" x2="258.832" y2="23.4692" gradientUnits="userSpaceOnUse">
<stop stop-color="#0075C9"/>
<stop offset="1" stop-color="#00194D"/>
</linearGradient>
<linearGradient id="paint10_linear" x1="581.572" y1="55.2462" x2="581.461" y2="42.4736" gradientUnits="userSpaceOnUse">
<stop stop-color="#0075C9"/>
<stop offset="1" stop-color="#00194D"/>
</linearGradient>
<linearGradient id="paint11_linear" x1="176.619" y1="118.296" x2="176.508" y2="105.523" gradientUnits="userSpaceOnUse">
<stop stop-color="#0075C9"/>
<stop offset="1" stop-color="#00194D"/>
</linearGradient>
<linearGradient id="paint12_linear" x1="668.687" y1="160.731" x2="659.554" y2="151.955" gradientUnits="userSpaceOnUse">
<stop stop-color="#0075C9"/>
<stop offset="1" stop-color="#76C2B6"/>
</linearGradient>
<linearGradient id="paint13_linear" x1="675.434" y1="13.4435" x2="675.322" y2="0.670835" gradientUnits="userSpaceOnUse">
<stop stop-color="#0075C9"/>
<stop offset="1" stop-color="#00194D"/>
</linearGradient>
<linearGradient id="paint14_linear" x1="605.037" y1="340.42" x2="604.926" y2="327.647" gradientUnits="userSpaceOnUse">
<stop stop-color="#0075C9"/>
<stop offset="1" stop-color="#00194D"/>
</linearGradient>
<linearGradient id="paint15_linear" x1="311.729" y1="296.05" x2="311.608" y2="282.213" gradientUnits="userSpaceOnUse">
<stop stop-color="#0075C9"/>
<stop offset="1" stop-color="#00194D"/>
</linearGradient>
<linearGradient id="paint16_linear" x1="51.6876" y1="250.951" x2="51.5668" y2="237.114" gradientUnits="userSpaceOnUse">
<stop stop-color="#0075C9"/>
<stop offset="1" stop-color="#00194D"/>
</linearGradient>
<linearGradient id="paint17_linear" x1="524.612" y1="362.647" x2="536.162" y2="355.329" gradientUnits="userSpaceOnUse">
<stop stop-color="#0075C9"/>
<stop offset="1" stop-color="#00194D"/>
</linearGradient>
<linearGradient id="paint18_linear" x1="10.0158" y1="394.489" x2="9.89492" y2="380.652" gradientUnits="userSpaceOnUse">
<stop stop-color="#0075C9"/>
<stop offset="1" stop-color="#00194D"/>
</linearGradient>
<linearGradient id="paint19_linear" x1="343.395" y1="126.015" x2="343.274" y2="112.178" gradientUnits="userSpaceOnUse">
<stop stop-color="#0075C9"/>
<stop offset="1" stop-color="#00194D"/>
</linearGradient>
<linearGradient id="paint20_linear" x1="572.788" y1="146.696" x2="566.719" y2="134.307" gradientUnits="userSpaceOnUse">
<stop stop-color="#0075C9"/>
<stop offset="1" stop-color="#00194D"/>
</linearGradient>
<linearGradient id="paint21_linear" x1="392.039" y1="410.846" x2="391.928" y2="398.074" gradientUnits="userSpaceOnUse">
<stop stop-color="#0075C9"/>
<stop offset="1" stop-color="#00194D"/>
</linearGradient>
<linearGradient id="paint22_linear" x1="694.266" y1="371.482" x2="694.154" y2="358.709" gradientUnits="userSpaceOnUse">
<stop stop-color="#0075C9"/>
<stop offset="1" stop-color="#00194D"/>
</linearGradient>
</defs>
</svg>
