<svg width="217" height="44" viewBox="0 0 217 44" fill="none" xmlns="http://www.w3.org/2000/svg">
<path d="M9.07383 11.5039C9.07383 10.7161 8.79714 10.0944 8.24375 9.63867C7.69037 9.17643 6.678 8.74023 5.20664 8.33008C3.73529 7.91341 2.66107 7.46094 1.98399 6.97266C1.02044 6.28255 0.538673 5.3776 0.538673 4.25781C0.538673 3.17057 0.984637 2.28841 1.87656 1.61133C2.775 0.927734 3.92083 0.585938 5.31406 0.585938C6.25807 0.585938 7.10117 0.768229 7.84336 1.13281C8.59206 1.4974 9.17149 2.00521 9.58164 2.65625C9.9918 3.30729 10.1969 4.0332 10.1969 4.83398H8.98594C8.98594 3.86393 8.65391 3.08594 7.98985 2.5C7.32578 1.90755 6.43386 1.61133 5.31406 1.61133C4.22682 1.61133 3.36094 1.85547 2.71641 2.34375C2.07188 2.82552 1.74961 3.45703 1.74961 4.23828C1.74961 4.96094 2.03932 5.55013 2.61875 6.00586C3.19818 6.46159 4.12591 6.86523 5.40195 7.2168C6.678 7.56185 7.64479 7.92318 8.30235 8.30078C8.9599 8.67188 9.45469 9.11784 9.78672 9.63867C10.1188 10.1595 10.2848 10.7747 10.2848 11.4844C10.2848 12.6042 9.83555 13.5026 8.93711 14.1797C8.04518 14.8568 6.8668 15.1953 5.40195 15.1953C4.39935 15.1953 3.47813 15.0163 2.63828 14.6582C1.80495 14.3001 1.17018 13.7988 0.733986 13.1543C0.304298 12.5098 0.0894547 11.7708 0.0894547 10.9375H1.29063C1.29063 11.9401 1.66498 12.7311 2.41367 13.3105C3.16237 13.89 4.15847 14.1797 5.40195 14.1797C6.50873 14.1797 7.3974 13.9355 8.06797 13.4473C8.73854 12.959 9.07383 12.3112 9.07383 11.5039ZM18.8789 15C18.7617 14.668 18.6868 14.1764 18.6543 13.5254C18.2441 14.0592 17.7201 14.4727 17.082 14.7656C16.4505 15.0521 15.7799 15.1953 15.0703 15.1953C14.0547 15.1953 13.2311 14.9121 12.5996 14.3457C11.9746 13.7793 11.6621 13.0632 11.6621 12.1973C11.6621 11.1686 12.0885 10.3548 12.9414 9.75586C13.8008 9.1569 14.9954 8.85742 16.5254 8.85742H18.6445V7.65625C18.6445 6.90104 18.4102 6.30859 17.9414 5.87891C17.4792 5.44271 16.8021 5.22461 15.9102 5.22461C15.0964 5.22461 14.4225 5.43294 13.8887 5.84961C13.3548 6.26628 13.0879 6.76758 13.0879 7.35352L11.916 7.34375C11.916 6.50391 12.3066 5.77799 13.0879 5.16602C13.8691 4.54753 14.8294 4.23828 15.9688 4.23828C17.1471 4.23828 18.0749 4.53451 18.752 5.12695C19.4355 5.71289 19.7871 6.5332 19.8066 7.58789V12.5879C19.8066 13.61 19.9141 14.375 20.1289 14.8828V15H18.8789ZM15.207 14.1602C15.9883 14.1602 16.6849 13.9714 17.2969 13.5938C17.9154 13.2161 18.3646 12.7116 18.6445 12.0801V9.75586H16.5547C15.3893 9.76888 14.4779 9.98372 13.8203 10.4004C13.1628 10.8105 12.834 11.377 12.834 12.0996C12.834 12.6921 13.0521 13.1836 13.4883 13.5742C13.931 13.9648 14.5039 14.1602 15.207 14.1602ZM23.6449 4.43359L23.684 6.24023C24.0811 5.58919 24.5759 5.0944 25.1684 4.75586C25.7608 4.41081 26.4151 4.23828 27.1313 4.23828C28.2641 4.23828 29.1072 4.55729 29.6605 5.19531C30.2139 5.83333 30.4939 6.79036 30.5004 8.06641V15H29.3383V8.05664C29.3318 7.11263 29.13 6.40951 28.7328 5.94727C28.3422 5.48503 27.7139 5.25391 26.848 5.25391C26.1254 5.25391 25.4841 5.48177 24.9242 5.9375C24.3708 6.38672 23.9607 6.99544 23.6938 7.76367V15H22.5316V4.43359H23.6449ZM34.4363 15H33.2645V0H34.4363V15ZM43.8898 15C43.7727 14.668 43.6978 14.1764 43.6652 13.5254C43.2551 14.0592 42.731 14.4727 42.093 14.7656C41.4615 15.0521 40.7909 15.1953 40.0813 15.1953C39.0656 15.1953 38.2421 14.9121 37.6105 14.3457C36.9855 13.7793 36.673 13.0632 36.673 12.1973C36.673 11.1686 37.0995 10.3548 37.9523 9.75586C38.8117 9.1569 40.0064 8.85742 41.5363 8.85742H43.6555V7.65625C43.6555 6.90104 43.4211 6.30859 42.9523 5.87891C42.4901 5.44271 41.813 5.22461 40.9211 5.22461C40.1073 5.22461 39.4335 5.43294 38.8996 5.84961C38.3658 6.26628 38.0988 6.76758 38.0988 7.35352L36.927 7.34375C36.927 6.50391 37.3176 5.77799 38.0988 5.16602C38.8801 4.54753 39.8404 4.23828 40.9797 4.23828C42.1581 4.23828 43.0858 4.53451 43.7629 5.12695C44.4465 5.71289 44.798 6.5332 44.8176 7.58789V12.5879C44.8176 13.61 44.925 14.375 45.1398 14.8828V15H43.8898ZM40.218 14.1602C40.9992 14.1602 41.6958 13.9714 42.3078 13.5938C42.9263 13.2161 43.3755 12.7116 43.6555 12.0801V9.75586H41.5656C40.4003 9.76888 39.4888 9.98372 38.8313 10.4004C38.1737 10.8105 37.8449 11.377 37.8449 12.0996C37.8449 12.6921 38.063 13.1836 38.4992 13.5742C38.9419 13.9648 39.5148 14.1602 40.218 14.1602ZM48.607 4.43359L48.6461 6.15234C49.0367 5.51432 49.525 5.03581 50.1109 4.7168C50.6969 4.39779 51.3479 4.23828 52.0641 4.23828C53.7307 4.23828 54.7887 4.92188 55.2379 6.28906C55.6155 5.63151 56.1201 5.12695 56.7516 4.77539C57.3831 4.41732 58.0797 4.23828 58.8414 4.23828C61.107 4.23828 62.2626 5.47526 62.3082 7.94922V15H61.1363V8.03711C61.1298 7.0931 60.9247 6.39323 60.5211 5.9375C60.124 5.48177 59.4729 5.25391 58.568 5.25391C57.7281 5.26693 57.0185 5.54036 56.4391 6.07422C55.8596 6.60156 55.5374 7.24609 55.4723 8.00781V15H54.3004V7.94922C54.2939 7.04427 54.079 6.37044 53.6559 5.92773C53.2392 5.47852 52.5947 5.25391 51.7223 5.25391C50.9866 5.25391 50.3551 5.46549 49.8277 5.88867C49.3004 6.30534 48.9098 6.92708 48.6559 7.75391V15H47.484V4.43359H48.607ZM71.0785 15H69.8773V0.78125H71.0785V15ZM75.3856 4.43359L75.4246 6.24023C75.8217 5.58919 76.3165 5.0944 76.909 4.75586C77.5014 4.41081 78.1557 4.23828 78.8719 4.23828C80.0047 4.23828 80.8478 4.55729 81.4012 5.19531C81.9546 5.83333 82.2345 6.79036 82.241 8.06641V15H81.0789V8.05664C81.0724 7.11263 80.8706 6.40951 80.4734 5.94727C80.0828 5.48503 79.4546 5.25391 78.5887 5.25391C77.866 5.25391 77.2247 5.48177 76.6648 5.9375C76.1115 6.38672 75.7013 6.99544 75.4344 7.76367V15H74.2723V4.43359H75.3856ZM84.3996 9.61914C84.3996 7.97852 84.7642 6.67318 85.4934 5.70312C86.229 4.72656 87.2251 4.23828 88.4816 4.23828C89.9074 4.23828 90.9947 4.80143 91.7434 5.92773V0H92.9055V15H91.8117L91.7629 13.5938C91.0142 14.6615 89.9139 15.1953 88.4621 15.1953C87.2447 15.1953 86.2616 14.707 85.5129 13.7305C84.7707 12.7474 84.3996 11.4225 84.3996 9.75586V9.61914ZM85.5813 9.82422C85.5813 11.1719 85.8514 12.2363 86.3918 13.0176C86.9322 13.7923 87.6939 14.1797 88.677 14.1797C90.1158 14.1797 91.1379 13.5449 91.7434 12.2754V7.31445C91.1379 5.94076 90.1223 5.25391 88.6965 5.25391C87.7134 5.25391 86.9484 5.64128 86.4016 6.41602C85.8547 7.18424 85.5813 8.32031 85.5813 9.82422ZM96.8902 15H95.7184V4.43359H96.8902V15ZM95.5133 1.37695C95.5133 1.1556 95.5849 0.970052 95.7281 0.820312C95.8714 0.664062 96.0667 0.585938 96.3141 0.585938C96.5615 0.585938 96.7568 0.664062 96.9 0.820312C97.0497 0.970052 97.1246 1.1556 97.1246 1.37695C97.1246 1.59831 97.0497 1.78385 96.9 1.93359C96.7568 2.08333 96.5615 2.1582 96.3141 2.1582C96.0667 2.1582 95.8714 2.08333 95.7281 1.93359C95.5849 1.78385 95.5133 1.59831 95.5133 1.37695ZM103.766 15.1953C102.867 15.1953 102.053 14.974 101.324 14.5312C100.602 14.0885 100.038 13.4733 99.6348 12.6855C99.2311 11.8913 99.0293 11.0026 99.0293 10.0195V9.59961C99.0293 8.58398 99.2246 7.66927 99.6152 6.85547C100.012 6.04167 100.562 5.40365 101.266 4.94141C101.969 4.47266 102.73 4.23828 103.551 4.23828C104.833 4.23828 105.849 4.67773 106.598 5.55664C107.353 6.42904 107.73 7.6237 107.73 9.14062V9.79492H100.191V10.0195C100.191 11.2174 100.533 12.2168 101.217 13.0176C101.907 13.8118 102.773 14.209 103.814 14.209C104.439 14.209 104.99 14.0951 105.465 13.8672C105.947 13.6393 106.383 13.2747 106.773 12.7734L107.506 13.3301C106.646 14.5736 105.4 15.1953 103.766 15.1953ZM103.551 5.23438C102.672 5.23438 101.93 5.55664 101.324 6.20117C100.725 6.8457 100.361 7.71159 100.23 8.79883H106.568V8.67188C106.536 7.65625 106.246 6.82943 105.699 6.19141C105.152 5.55339 104.436 5.23438 103.551 5.23438ZM115.378 15H114.206V4.43359H115.378V15ZM114.001 1.37695C114.001 1.1556 114.072 0.970052 114.216 0.820312C114.359 0.664062 114.554 0.585938 114.802 0.585938C115.049 0.585938 115.244 0.664062 115.388 0.820312C115.537 0.970052 115.612 1.1556 115.612 1.37695C115.612 1.59831 115.537 1.78385 115.388 1.93359C115.244 2.08333 115.049 2.1582 114.802 2.1582C114.554 2.1582 114.359 2.08333 114.216 1.93359C114.072 1.78385 114.001 1.59831 114.001 1.37695ZM124.489 12.3145C124.489 11.735 124.255 11.2695 123.786 10.918C123.324 10.5664 122.624 10.293 121.687 10.0977C120.749 9.89583 120.02 9.66797 119.499 9.41406C118.985 9.15365 118.601 8.83789 118.347 8.4668C118.099 8.0957 117.976 7.64648 117.976 7.11914C117.976 6.28581 118.324 5.59896 119.021 5.05859C119.717 4.51172 120.609 4.23828 121.696 4.23828C122.875 4.23828 123.819 4.53125 124.529 5.11719C125.245 5.69661 125.603 6.45508 125.603 7.39258H124.431C124.431 6.77409 124.17 6.25977 123.65 5.84961C123.135 5.43945 122.484 5.23438 121.696 5.23438C120.928 5.23438 120.31 5.4069 119.841 5.75195C119.379 6.09049 119.148 6.5332 119.148 7.08008C119.148 7.60742 119.34 8.01758 119.724 8.31055C120.114 8.59701 120.821 8.86068 121.843 9.10156C122.872 9.34245 123.64 9.59961 124.148 9.87305C124.662 10.1465 125.043 10.4753 125.29 10.8594C125.538 11.2435 125.661 11.709 125.661 12.2559C125.661 13.1478 125.3 13.8607 124.577 14.3945C123.861 14.9284 122.924 15.1953 121.765 15.1953C120.534 15.1953 119.535 14.8991 118.767 14.3066C118.005 13.7077 117.624 12.9525 117.624 12.041H118.796C118.842 12.7246 119.128 13.2585 119.655 13.6426C120.189 14.0202 120.892 14.209 121.765 14.209C122.579 14.209 123.236 14.0299 123.738 13.6719C124.239 13.3138 124.489 12.8613 124.489 12.3145ZM140.857 9.82422C140.857 11.4714 140.493 12.7799 139.764 13.75C139.035 14.7135 138.058 15.1953 136.834 15.1953C135.389 15.1953 134.282 14.6875 133.514 13.6719V19.0625H132.352V4.43359H133.436L133.494 5.92773C134.256 4.80143 135.359 4.23828 136.805 4.23828C138.068 4.23828 139.057 4.7168 139.773 5.67383C140.496 6.63086 140.857 7.95898 140.857 9.6582V9.82422ZM139.686 9.61914C139.686 8.27148 139.409 7.20703 138.855 6.42578C138.302 5.64453 137.531 5.25391 136.541 5.25391C135.825 5.25391 135.21 5.42643 134.695 5.77148C134.181 6.11654 133.787 6.61784 133.514 7.27539V12.3438C133.794 12.9492 134.194 13.4115 134.715 13.7305C135.236 14.0495 135.851 14.209 136.561 14.209C137.544 14.209 138.309 13.8184 138.855 13.0371C139.409 12.2493 139.686 11.11 139.686 9.61914ZM149.725 15C149.608 14.668 149.533 14.1764 149.5 13.5254C149.09 14.0592 148.566 14.4727 147.928 14.7656C147.297 15.0521 146.626 15.1953 145.916 15.1953C144.901 15.1953 144.077 14.9121 143.446 14.3457C142.821 13.7793 142.508 13.0632 142.508 12.1973C142.508 11.1686 142.935 10.3548 143.788 9.75586C144.647 9.1569 145.842 8.85742 147.371 8.85742H149.491V7.65625C149.491 6.90104 149.256 6.30859 148.788 5.87891C148.325 5.44271 147.648 5.22461 146.756 5.22461C145.942 5.22461 145.269 5.43294 144.735 5.84961C144.201 6.26628 143.934 6.76758 143.934 7.35352L142.762 7.34375C142.762 6.50391 143.153 5.77799 143.934 5.16602C144.715 4.54753 145.676 4.23828 146.815 4.23828C147.993 4.23828 148.921 4.53451 149.598 5.12695C150.282 5.71289 150.633 6.5332 150.653 7.58789V12.5879C150.653 13.61 150.76 14.375 150.975 14.8828V15H149.725ZM146.053 14.1602C146.834 14.1602 147.531 13.9714 148.143 13.5938C148.761 13.2161 149.211 12.7116 149.491 12.0801V9.75586H147.401C146.235 9.76888 145.324 9.98372 144.666 10.4004C144.009 10.8105 143.68 11.377 143.68 12.0996C143.68 12.6921 143.898 13.1836 144.334 13.5742C144.777 13.9648 145.35 14.1602 146.053 14.1602ZM158.261 5.42969C158.013 5.38411 157.749 5.36133 157.47 5.36133C156.74 5.36133 156.122 5.56641 155.614 5.97656C155.113 6.38021 154.755 6.9694 154.54 7.74414V15H153.378V4.43359H154.52L154.54 6.11328C155.158 4.86328 156.151 4.23828 157.518 4.23828C157.844 4.23828 158.101 4.2806 158.29 4.36523L158.261 5.42969ZM162.021 1.72852V4.43359H164.208V5.39062H162.021V12.4316C162.021 13.0176 162.125 13.4538 162.333 13.7402C162.548 14.0267 162.903 14.1699 163.398 14.1699C163.593 14.1699 163.909 14.1374 164.345 14.0723L164.394 15.0293C164.088 15.14 163.671 15.1953 163.144 15.1953C162.343 15.1953 161.76 14.9642 161.396 14.502C161.031 14.0332 160.849 13.3464 160.849 12.4414V5.39062H158.905V4.43359H160.849V1.72852H162.021ZM181.23 13.3105C180.814 13.903 180.16 14.3652 179.268 14.6973C178.382 15.0293 177.389 15.1953 176.289 15.1953C175.176 15.1953 174.186 14.9284 173.32 14.3945C172.454 13.8607 171.784 13.1055 171.309 12.1289C170.833 11.1523 170.592 10.0326 170.586 8.76953V6.97266C170.586 5 171.084 3.44401 172.08 2.30469C173.076 1.15885 174.414 0.585938 176.094 0.585938C177.559 0.585938 178.737 0.960286 179.629 1.70898C180.521 2.45117 181.051 3.47656 181.221 4.78516H180.02C179.844 3.74349 179.417 2.95573 178.74 2.42188C178.07 1.88151 177.191 1.61133 176.104 1.61133C174.775 1.61133 173.724 2.08333 172.949 3.02734C172.174 3.97135 171.787 5.30273 171.787 7.02148V8.70117C171.787 9.7819 171.969 10.7389 172.334 11.5723C172.705 12.3991 173.232 13.0404 173.916 13.4961C174.606 13.9518 175.397 14.1797 176.289 14.1797C177.324 14.1797 178.213 14.0169 178.955 13.6914C179.437 13.4766 179.795 13.2259 180.029 12.9395V9.26758H176.211V8.25195H181.23V13.3105ZM185.274 15H184.102V4.43359H185.274V15ZM183.897 1.37695C183.897 1.1556 183.968 0.970052 184.112 0.820312C184.255 0.664062 184.45 0.585938 184.698 0.585938C184.945 0.585938 185.14 0.664062 185.284 0.820312C185.433 0.970052 185.508 1.1556 185.508 1.37695C185.508 1.59831 185.433 1.78385 185.284 1.93359C185.14 2.08333 184.945 2.1582 184.698 2.1582C184.45 2.1582 184.255 2.08333 184.112 1.93359C183.968 1.78385 183.897 1.59831 183.897 1.37695ZM194.727 15C194.61 14.668 194.535 14.1764 194.503 13.5254C194.093 14.0592 193.569 14.4727 192.93 14.7656C192.299 15.0521 191.628 15.1953 190.919 15.1953C189.903 15.1953 189.08 14.9121 188.448 14.3457C187.823 13.7793 187.511 13.0632 187.511 12.1973C187.511 11.1686 187.937 10.3548 188.79 9.75586C189.649 9.1569 190.844 8.85742 192.374 8.85742H194.493V7.65625C194.493 6.90104 194.259 6.30859 193.79 5.87891C193.328 5.44271 192.651 5.22461 191.759 5.22461C190.945 5.22461 190.271 5.43294 189.737 5.84961C189.203 6.26628 188.936 6.76758 188.936 7.35352L187.764 7.34375C187.764 6.50391 188.155 5.77799 188.936 5.16602C189.718 4.54753 190.678 4.23828 191.817 4.23828C192.996 4.23828 193.923 4.53451 194.6 5.12695C195.284 5.71289 195.636 6.5332 195.655 7.58789V12.5879C195.655 13.61 195.763 14.375 195.977 14.8828V15H194.727ZM191.055 14.1602C191.837 14.1602 192.533 13.9714 193.145 13.5938C193.764 13.2161 194.213 12.7116 194.493 12.0801V9.75586H192.403C191.238 9.76888 190.326 9.98372 189.669 10.4004C189.011 10.8105 188.682 11.377 188.682 12.0996C188.682 12.6921 188.901 13.1836 189.337 13.5742C189.779 13.9648 190.352 14.1602 191.055 14.1602ZM199.493 4.43359L199.532 6.24023C199.93 5.58919 200.424 5.0944 201.017 4.75586C201.609 4.41081 202.264 4.23828 202.98 4.23828C204.112 4.23828 204.956 4.55729 205.509 5.19531C206.062 5.83333 206.342 6.79036 206.349 8.06641V15H205.187V8.05664C205.18 7.11263 204.978 6.40951 204.581 5.94727C204.191 5.48503 203.562 5.25391 202.696 5.25391C201.974 5.25391 201.333 5.48177 200.773 5.9375C200.219 6.38672 199.809 6.99544 199.542 7.76367V15H198.38V4.43359H199.493ZM210.793 1.72852V4.43359H212.98V5.39062H210.793V12.4316C210.793 13.0176 210.897 13.4538 211.105 13.7402C211.32 14.0267 211.675 14.1699 212.17 14.1699C212.365 14.1699 212.681 14.1374 213.117 14.0723L213.166 15.0293C212.86 15.14 212.443 15.1953 211.916 15.1953C211.115 15.1953 210.532 14.9642 210.168 14.502C209.803 14.0332 209.621 13.3464 209.621 12.4414V5.39062H207.677V4.43359H209.621V1.72852H210.793ZM214.758 17.6562L214.064 17.1484C214.657 16.3542 214.963 15.5306 214.982 14.6777V13.1641H216.125V14.3848C216.125 15.7389 215.669 16.8294 214.758 17.6562ZM42.5523 33.209V39H41.3512V24.7812H46.1949C47.6728 24.7812 48.8382 25.1589 49.691 25.9141C50.5504 26.6693 50.9801 27.7077 50.9801 29.0293C50.9801 30.3639 50.5667 31.3958 49.7398 32.125C48.9195 32.8477 47.7281 33.209 46.1656 33.209H42.5523ZM42.5523 32.1934H46.1949C47.3603 32.1934 48.249 31.9167 48.8609 31.3633C49.4729 30.8099 49.7789 30.0384 49.7789 29.0488C49.7789 28.0658 49.4729 27.2845 48.8609 26.7051C48.2555 26.1191 47.3928 25.8197 46.273 25.8066H42.5523V32.1934ZM59.5547 39C59.4375 38.668 59.3626 38.1764 59.3301 37.5254C58.9199 38.0592 58.3958 38.4727 57.7578 38.7656C57.1263 39.0521 56.4557 39.1953 55.7461 39.1953C54.7305 39.1953 53.9069 38.9121 53.2754 38.3457C52.6504 37.7793 52.3379 37.0632 52.3379 36.1973C52.3379 35.1686 52.7643 34.3548 53.6172 33.7559C54.4766 33.1569 55.6712 32.8574 57.2012 32.8574H59.3203V31.6562C59.3203 30.901 59.0859 30.3086 58.6172 29.8789C58.1549 29.4427 57.4779 29.2246 56.5859 29.2246C55.7721 29.2246 55.0983 29.4329 54.5645 29.8496C54.0306 30.2663 53.7637 30.7676 53.7637 31.3535L52.5918 31.3438C52.5918 30.5039 52.9824 29.778 53.7637 29.166C54.5449 28.5475 55.5052 28.2383 56.6445 28.2383C57.8229 28.2383 58.7507 28.5345 59.4277 29.127C60.1113 29.7129 60.4629 30.5332 60.4824 31.5879V36.5879C60.4824 37.61 60.5898 38.375 60.8047 38.8828V39H59.5547ZM55.8828 38.1602C56.6641 38.1602 57.3607 37.9714 57.9727 37.5938C58.5911 37.2161 59.0404 36.7116 59.3203 36.0801V33.7559H57.2305C56.0651 33.7689 55.1536 33.9837 54.4961 34.4004C53.8385 34.8105 53.5098 35.377 53.5098 36.0996C53.5098 36.6921 53.7279 37.1836 54.1641 37.5742C54.6068 37.9648 55.1797 38.1602 55.8828 38.1602ZM68.0902 29.4297C67.8428 29.3841 67.5792 29.3613 67.2992 29.3613C66.5701 29.3613 65.9516 29.5664 65.4438 29.9766C64.9425 30.3802 64.5844 30.9694 64.3695 31.7441V39H63.2074V28.4336H64.35L64.3695 30.1133C64.988 28.8633 65.9809 28.2383 67.3481 28.2383C67.6736 28.2383 67.9307 28.2806 68.1195 28.3652L68.0902 29.4297ZM71.8504 25.7285V28.4336H74.0379V29.3906H71.8504V36.4316C71.8504 37.0176 71.9546 37.4538 72.1629 37.7402C72.3777 38.0267 72.7325 38.1699 73.2273 38.1699C73.4227 38.1699 73.7384 38.1374 74.1746 38.0723L74.2234 39.0293C73.9174 39.14 73.5008 39.1953 72.9734 39.1953C72.1727 39.1953 71.59 38.9642 71.2254 38.502C70.8608 38.0332 70.6785 37.3464 70.6785 36.4414V29.3906H68.7352V28.4336H70.6785V25.7285H71.8504ZM91.0602 37.3105C90.6435 37.903 89.9892 38.3652 89.0973 38.6973C88.2119 39.0293 87.219 39.1953 86.1188 39.1953C85.0055 39.1953 84.0159 38.9284 83.15 38.3945C82.2841 37.8607 81.6135 37.1055 81.1383 36.1289C80.663 35.1523 80.4221 34.0326 80.4156 32.7695V30.9727C80.4156 29 80.9137 27.444 81.9098 26.3047C82.9059 25.1589 84.2438 24.5859 85.9234 24.5859C87.3883 24.5859 88.5667 24.9603 89.4586 25.709C90.3505 26.4512 90.8811 27.4766 91.0504 28.7852H89.8492C89.6734 27.7435 89.247 26.9557 88.5699 26.4219C87.8994 25.8815 87.0204 25.6113 85.9332 25.6113C84.6051 25.6113 83.5536 26.0833 82.7789 27.0273C82.0042 27.9714 81.6168 29.3027 81.6168 31.0215V32.7012C81.6168 33.7819 81.7991 34.7389 82.1637 35.5723C82.5348 36.3991 83.0621 37.0404 83.7457 37.4961C84.4358 37.9518 85.2268 38.1797 86.1188 38.1797C87.1539 38.1797 88.0426 38.0169 88.7848 37.6914C89.2665 37.4766 89.6246 37.2259 89.859 36.9395V33.2676H86.0406V32.252H91.0602V37.3105ZM95.1035 39H93.9316V28.4336H95.1035V39ZM93.7266 25.377C93.7266 25.1556 93.7982 24.9701 93.9414 24.8203C94.0846 24.6641 94.2799 24.5859 94.5273 24.5859C94.7747 24.5859 94.9701 24.6641 95.1133 24.8203C95.263 24.9701 95.3379 25.1556 95.3379 25.377C95.3379 25.5983 95.263 25.7839 95.1133 25.9336C94.9701 26.0833 94.7747 26.1582 94.5273 26.1582C94.2799 26.1582 94.0846 26.0833 93.9414 25.9336C93.7982 25.7839 93.7266 25.5983 93.7266 25.377ZM104.557 39C104.44 38.668 104.365 38.1764 104.332 37.5254C103.922 38.0592 103.398 38.4727 102.76 38.7656C102.129 39.0521 101.458 39.1953 100.748 39.1953C99.7328 39.1953 98.9093 38.9121 98.2777 38.3457C97.6527 37.7793 97.3402 37.0632 97.3402 36.1973C97.3402 35.1686 97.7667 34.3548 98.6195 33.7559C99.4789 33.1569 100.674 32.8574 102.204 32.8574H104.323V31.6562C104.323 30.901 104.088 30.3086 103.62 29.8789C103.157 29.4427 102.48 29.2246 101.588 29.2246C100.774 29.2246 100.101 29.4329 99.5668 29.8496C99.0329 30.2663 98.766 30.7676 98.766 31.3535L97.5941 31.3438C97.5941 30.5039 97.9848 29.778 98.766 29.166C99.5473 28.5475 100.508 28.2383 101.647 28.2383C102.825 28.2383 103.753 28.5345 104.43 29.127C105.114 29.7129 105.465 30.5332 105.485 31.5879V36.5879C105.485 37.61 105.592 38.375 105.807 38.8828V39H104.557ZM100.885 38.1602C101.666 38.1602 102.363 37.9714 102.975 37.5938C103.593 37.2161 104.043 36.7116 104.323 36.0801V33.7559H102.233C101.067 33.7689 100.156 33.9837 99.4984 34.4004C98.8409 34.8105 98.5121 35.377 98.5121 36.0996C98.5121 36.6921 98.7302 37.1836 99.1664 37.5742C99.6091 37.9648 100.182 38.1602 100.885 38.1602ZM109.323 28.4336L109.362 30.2402C109.759 29.5892 110.254 29.0944 110.846 28.7559C111.439 28.4108 112.093 28.2383 112.809 28.2383C113.942 28.2383 114.785 28.5573 115.339 29.1953C115.892 29.8333 116.172 30.7904 116.179 32.0664V39H115.016V32.0566C115.01 31.1126 114.808 30.4095 114.411 29.9473C114.02 29.485 113.392 29.2539 112.526 29.2539C111.804 29.2539 111.162 29.4818 110.602 29.9375C110.049 30.3867 109.639 30.9954 109.372 31.7637V39H108.21V28.4336H109.323ZM120.622 25.7285V28.4336H122.81V29.3906H120.622V36.4316C120.622 37.0176 120.726 37.4538 120.935 37.7402C121.15 38.0267 121.504 38.1699 121.999 38.1699C122.195 38.1699 122.51 38.1374 122.946 38.0723L122.995 39.0293C122.689 39.14 122.273 39.1953 121.745 39.1953C120.945 39.1953 120.362 38.9642 119.997 38.502C119.633 38.0332 119.45 37.3464 119.45 36.4414V29.3906H117.507V28.4336H119.45V25.7285H120.622ZM128.464 33.2188H123.787V32.2324H128.464V33.2188ZM136.482 36.3145C136.482 35.735 136.248 35.2695 135.779 34.918C135.317 34.5664 134.617 34.293 133.68 34.0977C132.742 33.8958 132.013 33.668 131.492 33.4141C130.978 33.1536 130.594 32.8379 130.34 32.4668C130.092 32.0957 129.969 31.6465 129.969 31.1191C129.969 30.2858 130.317 29.599 131.014 29.0586C131.71 28.5117 132.602 28.2383 133.689 28.2383C134.868 28.2383 135.812 28.5312 136.521 29.1172C137.238 29.6966 137.596 30.4551 137.596 31.3926H136.424C136.424 30.7741 136.163 30.2598 135.643 29.8496C135.128 29.4395 134.477 29.2344 133.689 29.2344C132.921 29.2344 132.303 29.4069 131.834 29.752C131.372 30.0905 131.141 30.5332 131.141 31.0801C131.141 31.6074 131.333 32.0176 131.717 32.3105C132.107 32.597 132.814 32.8607 133.836 33.1016C134.865 33.3424 135.633 33.5996 136.141 33.873C136.655 34.1465 137.036 34.4753 137.283 34.8594C137.531 35.2435 137.654 35.709 137.654 36.2559C137.654 37.1478 137.293 37.8607 136.57 38.3945C135.854 38.9284 134.917 39.1953 133.758 39.1953C132.527 39.1953 131.528 38.8991 130.76 38.3066C129.998 37.7077 129.617 36.9525 129.617 36.041H130.789C130.835 36.7246 131.121 37.2585 131.648 37.6426C132.182 38.0202 132.885 38.209 133.758 38.209C134.572 38.209 135.229 38.0299 135.73 37.6719C136.232 37.3138 136.482 36.8613 136.482 36.3145ZM141.2 39H140.028V24H141.2V39ZM150.653 39C150.536 38.668 150.461 38.1764 150.429 37.5254C150.018 38.0592 149.494 38.4727 148.856 38.7656C148.225 39.0521 147.554 39.1953 146.845 39.1953C145.829 39.1953 145.005 38.9121 144.374 38.3457C143.749 37.7793 143.436 37.0632 143.436 36.1973C143.436 35.1686 143.863 34.3548 144.716 33.7559C145.575 33.1569 146.77 32.8574 148.3 32.8574H150.419V31.6562C150.419 30.901 150.184 30.3086 149.716 29.8789C149.253 29.4427 148.576 29.2246 147.684 29.2246C146.871 29.2246 146.197 29.4329 145.663 29.8496C145.129 30.2663 144.862 30.7676 144.862 31.3535L143.69 31.3438C143.69 30.5039 144.081 29.778 144.862 29.166C145.643 28.5475 146.604 28.2383 147.743 28.2383C148.921 28.2383 149.849 28.5345 150.526 29.127C151.21 29.7129 151.561 30.5332 151.581 31.5879V36.5879C151.581 37.61 151.688 38.375 151.903 38.8828V39H150.653ZM146.981 38.1602C147.763 38.1602 148.459 37.9714 149.071 37.5938C149.69 37.2161 150.139 36.7116 150.419 36.0801V33.7559H148.329C147.164 33.7689 146.252 33.9837 145.595 34.4004C144.937 34.8105 144.608 35.377 144.608 36.0996C144.608 36.6921 144.826 37.1836 145.263 37.5742C145.705 37.9648 146.278 38.1602 146.981 38.1602ZM157.499 37.3203L160.585 28.4336H161.845L157.333 40.7969L157.099 41.3438C156.519 42.6263 155.624 43.2676 154.413 43.2676C154.133 43.2676 153.834 43.222 153.515 43.1309L153.505 42.1641L154.111 42.2227C154.683 42.2227 155.146 42.0794 155.497 41.793C155.855 41.513 156.158 41.028 156.405 40.3379L156.923 38.9121L152.939 28.4336H154.218L157.499 37.3203ZM167.216 39.1953C166.318 39.1953 165.504 38.974 164.775 38.5312C164.052 38.0885 163.489 37.4733 163.086 36.6855C162.682 35.8913 162.48 35.0026 162.48 34.0195V33.5996C162.48 32.584 162.675 31.6693 163.066 30.8555C163.463 30.0417 164.013 29.4036 164.716 28.9414C165.42 28.4727 166.181 28.2383 167.002 28.2383C168.284 28.2383 169.3 28.6777 170.048 29.5566C170.804 30.429 171.181 31.6237 171.181 33.1406V33.7949H163.642V34.0195C163.642 35.2174 163.984 36.2168 164.668 37.0176C165.358 37.8118 166.224 38.209 167.265 38.209C167.89 38.209 168.44 38.0951 168.916 37.8672C169.397 37.6393 169.834 37.2747 170.224 36.7734L170.957 37.3301C170.097 38.5736 168.851 39.1953 167.216 39.1953ZM167.002 29.2344C166.123 29.2344 165.38 29.5566 164.775 30.2012C164.176 30.8457 163.811 31.7116 163.681 32.7988H170.019V32.6719C169.987 31.6562 169.697 30.8294 169.15 30.1914C168.603 29.5534 167.887 29.2344 167.002 29.2344ZM177.939 29.4297C177.692 29.3841 177.428 29.3613 177.148 29.3613C176.419 29.3613 175.801 29.5664 175.293 29.9766C174.792 30.3802 174.434 30.9694 174.219 31.7441V39H173.057V28.4336H174.199L174.219 30.1133C174.837 28.8633 175.83 28.2383 177.197 28.2383C177.523 28.2383 177.78 28.2806 177.969 28.3652L177.939 29.4297ZM178.077 38.2969C178.077 38.069 178.148 37.877 178.291 37.7207C178.441 37.5579 178.646 37.4766 178.907 37.4766C179.167 37.4766 179.372 37.5579 179.522 37.7207C179.672 37.877 179.746 38.069 179.746 38.2969C179.746 38.5247 179.672 38.7135 179.522 38.8633C179.372 39.0065 179.167 39.0781 178.907 39.0781C178.646 39.0781 178.441 39.0065 178.291 38.8633C178.148 38.7135 178.077 38.5247 178.077 38.2969Z" fill="white"/>
</svg>
