<svg width="27" height="27" viewBox="0 0 27 27" fill="none" xmlns="http://www.w3.org/2000/svg">
<path fill-rule="evenodd" clip-rule="evenodd" d="M25.9323 4.89628C25.2502 3.13774 23.8576 1.74744 22.0961 1.06649C21.0757 0.684049 19.9977 0.477213 18.9081 0.454787C17.505 0.39273 17.061 0.375 13.5 0.375C9.93902 0.375 9.48613 0.375 8.09193 0.454787C7.00226 0.477213 5.92429 0.684049 4.90392 1.06649C3.14241 1.74744 1.74976 3.13774 1.06766 4.89628C0.684572 5.91492 0.477386 6.99106 0.454922 8.0789C0.392761 9.47961 0.375 9.92287 0.375 13.4778C0.375 17.0328 0.375 17.4849 0.454922 18.8768C0.477386 19.9646 0.684572 21.0408 1.06766 22.0594C1.74976 23.8179 3.14241 25.2082 4.90392 25.8892C5.92164 26.2868 6.99968 26.5086 8.09193 26.5452C9.49501 26.6073 9.93902 26.625 13.5 26.625C17.061 26.625 17.5139 26.625 18.9081 26.5452C19.9977 26.5228 21.0757 26.316 22.0961 25.9335C23.8576 25.2526 25.2502 23.8623 25.9323 22.1037C26.3154 21.0851 26.5226 20.0089 26.5451 18.9211C26.6072 17.5204 26.625 17.0771 26.625 13.5222C26.625 9.9672 26.625 9.51507 26.5451 8.12323C26.5277 7.02046 26.3204 5.9289 25.9323 4.89628ZM24.1555 18.7704C24.1479 19.6089 23.9946 20.4398 23.7026 21.2261C23.2605 22.371 22.3541 23.2759 21.2072 23.7172C20.428 24.0058 19.605 24.1587 18.774 24.1693L18.7681 24.1696H18.7681C17.3876 24.2314 16.9929 24.2491 13.4459 24.2491C9.89379 24.2491 9.5297 24.2491 8.11774 24.1693C7.28675 24.1587 6.46374 24.0058 5.68456 23.7172C4.53369 23.279 3.62339 22.3734 3.18033 21.2261C2.89129 20.4482 2.7381 19.6266 2.72744 18.797L2.72717 18.7911C2.66522 17.4129 2.64751 17.0189 2.64751 13.4778C2.64751 9.93175 2.64751 9.56827 2.72744 8.1587C2.73504 7.32016 2.88828 6.48928 3.18033 5.70302C3.62339 4.55566 4.53369 3.65012 5.68456 3.21189C6.46374 2.92334 7.28675 2.77041 8.11774 2.75976L8.12366 2.7595C9.50418 2.69765 9.89886 2.67997 13.4459 2.67997C16.998 2.67997 17.3621 2.67997 18.774 2.75976C19.605 2.77041 20.428 2.92334 21.2072 3.21189C22.3541 3.65317 23.2605 4.55808 23.7026 5.70302C23.9916 6.48089 24.1448 7.30251 24.1555 8.1321L24.1557 8.13802V8.13807C24.2177 9.51621 24.2354 9.91026 24.2354 13.4513C24.2354 16.9974 24.2354 17.3786 24.1732 18.7704H24.1555ZM13.4905 6.74025C9.76806 6.74025 6.75041 9.7528 6.75041 13.469C6.75041 17.1851 9.76806 20.1977 13.4905 20.1977C17.213 20.1977 20.2306 17.1851 20.2306 13.469C20.2306 11.6844 19.5205 9.97293 18.2565 8.71105C16.9925 7.44917 15.2781 6.74025 13.4905 6.74025ZM9.11394 13.469C9.11394 15.8828 11.074 17.8395 13.4919 17.8395C15.9098 17.8395 17.8699 15.8828 17.8699 13.469C17.8699 11.0552 15.9098 9.09838 13.4919 9.09838C11.074 9.09838 9.11394 11.0552 9.11394 13.469Z" fill="white"/>
</svg>
