<svg width="32" height="33" viewBox="0 0 32 33" fill="none" xmlns="http://www.w3.org/2000/svg">
<path fill-rule="evenodd" clip-rule="evenodd" d="M7.32381 4.0332H25.3747C26.793 4.0332 27.9534 5.24315 27.9534 6.72198V25.5435C27.9534 27.0223 26.793 28.2322 25.3747 28.2322H7.32381C5.90553 28.2322 4.74512 27.0223 4.74512 25.5435V6.72198C4.74512 5.24315 5.90553 4.0332 7.32381 4.0332ZM9.58055 23.2748H12.401H12.4816V13.612H9.58055V23.2748ZM10.9499 12.2676C10.0634 12.2676 9.25758 11.5114 9.25758 10.5031C9.25758 9.57883 9.98284 8.73859 10.9499 8.73859C11.8363 8.73859 12.6421 9.49481 12.6421 10.5031C12.6421 11.5114 11.9169 12.2676 10.9499 12.2676ZM20.2978 23.2748H23.1988V18.0653C23.1988 15.4605 22.6347 13.4439 19.7337 13.4439C18.2832 13.4439 17.3967 14.2002 16.9938 14.9564V13.612H14.2539V23.2748H17.155V18.4854C17.155 17.225 17.3161 16.0487 18.8472 16.0487C20.2978 16.0487 20.2978 17.4771 20.2978 18.5694V23.2748Z" fill="#0075C9"/>
</svg>
