<svg width="33" height="33" viewBox="0 0 33 33" fill="none" xmlns="http://www.w3.org/2000/svg">
<path fill-rule="evenodd" clip-rule="evenodd" d="M6.875 4.125H26.125C27.6375 4.125 28.875 5.3625 28.875 6.875V26.125C28.875 27.6375 27.6375 28.875 26.125 28.875H6.875C5.3625 28.875 4.125 27.6375 4.125 26.125V6.875C4.125 5.3625 5.3625 4.125 6.875 4.125ZM9.28167 23.8047H12.2895H12.3754V13.9219H9.28167V23.8047ZM10.7419 12.5469C9.79658 12.5469 8.93721 11.7734 8.93721 10.7422C8.93721 9.79688 9.71064 8.93751 10.7419 8.93751C11.6872 8.93751 12.5466 9.71095 12.5466 10.7422C12.5466 11.7734 11.7731 12.5469 10.7419 12.5469ZM20.7108 23.8047H23.8045V18.4766C23.8045 15.8125 23.203 13.75 20.1092 13.75C18.5624 13.75 17.617 14.5234 17.1874 15.2969V13.9219H14.2655V23.8047H17.3592V18.9062C17.3592 17.6172 17.5311 16.4141 19.1639 16.4141C20.7108 16.4141 20.7108 17.875 20.7108 18.9922V23.8047Z" fill="white"/>
</svg>
