<svg width="122" height="27" viewBox="0 0 122 27" fill="none" xmlns="http://www.w3.org/2000/svg">
<path fill-rule="evenodd" clip-rule="evenodd" d="M97.7252 23.052C97.6473 22.4106 97.6062 21.7352 97.6062 21.0344V13.2245V13.1904C97.6062 12.923 97.5819 12.66 97.5375 12.4005C97.2684 10.9448 96.323 9.73372 95.0565 9.13517C94.5234 8.90973 93.9484 8.75245 93.329 8.66333C92.5596 8.55323 91.7977 8.49818 91.0475 8.49818C90.2169 8.49818 89.3947 8.58294 88.575 8.75245C87.7561 8.92634 87.0193 9.21119 86.363 9.61488C86.1803 9.72585 86.0051 9.84818 85.8375 9.98449L85.8408 9.98886C85.8299 10.0011 85.8132 10.0098 85.8006 10.0221C85.7847 10.0352 85.7679 10.0439 85.7562 10.0561C85.7403 10.0693 85.7277 10.078 85.7151 10.0911C84.7051 10.9142 84.053 12.473 84.0287 13.9043V13.976V13.9978H88.1274C88.1684 13.5644 88.2372 13.1231 88.3755 12.736H88.3797C88.5951 12.1331 89.0762 11.6657 89.6755 11.4787C90.0174 11.3686 90.429 11.3135 90.9176 11.3135C91.5328 11.3135 92.0257 11.4114 92.4121 11.5853C92.4255 11.5896 92.4364 11.594 92.4456 11.5984V11.6019C93.0524 11.8745 93.4757 12.5027 93.4757 13.2376C93.4757 14.0022 93.0114 14.6558 92.3559 14.9065C92.2545 14.945 92.1439 14.9791 92.0299 15.0079C91.5689 15.1276 91.0358 15.2167 90.4416 15.2761C89.8423 15.3391 89.2346 15.4203 88.6202 15.5173C88 15.6195 87.3898 15.7559 86.7829 15.9254C86.5952 15.9813 86.2566 16.1167 86.2566 16.1167C84.8635 16.6943 83.8292 18.0024 83.5929 19.5865C83.5719 19.7989 83.561 20.0199 83.561 20.2489C83.561 20.5844 83.5845 20.9033 83.6298 21.2004C83.9633 22.8947 85.3245 24.3129 86.8316 24.6571C87.0193 24.6999 87.6991 24.8869 88.6806 24.8869C89.4056 24.8869 90.4784 24.7506 91.3661 24.471C92.2495 24.1853 93.0198 23.6933 93.6794 22.9926C93.6953 23.2521 93.7322 23.5107 93.7775 23.7615C93.8269 24.0114 93.8914 24.2578 93.9652 24.4998H98.1275C97.9364 24.1774 97.8023 23.6933 97.7252 23.052ZM93.5084 18.4786C93.5084 18.7163 93.4841 19.0387 93.4355 19.438C93.386 19.8417 93.2561 20.2358 93.0441 20.6307C92.832 21.0222 92.506 21.3577 92.0626 21.6373C91.6183 21.9222 90.9905 22.0629 90.1842 22.0629C89.9034 22.0629 89.5405 22.0366 89.2346 21.9816C89.1088 21.9563 88.9538 21.9012 88.9538 21.9012C88.5188 21.7396 88.1508 21.4206 87.9195 21.0091C87.8013 20.8011 87.7192 20.5678 87.6789 20.3214V20.317C87.6714 20.2664 87.6664 20.2148 87.6622 20.1641C87.658 20.1091 87.658 20.0532 87.658 19.9937C87.658 19.9387 87.658 19.8836 87.6622 19.8286C87.6622 19.8076 87.6622 19.7901 87.6664 19.7692C87.6747 19.6844 87.7192 19.4808 87.7233 19.4633C87.891 18.822 88.3553 18.3038 88.9538 18.0871C88.9949 18.0749 89.0359 18.0618 89.0762 18.0487C89.7484 17.8582 90.6611 17.6966 91.0802 17.6328C91.4063 17.5821 91.7198 17.5436 92.0173 17.4807C92.3191 17.4204 92.5965 17.3444 92.8563 17.2553C93.117 17.1662 93.3341 17.0386 93.5084 16.8769V18.4786ZM61.1509 23.052C61.073 22.4106 61.0328 21.7352 61.0328 21.0344V13.2245C61.0328 13.2245 61.0286 13.1992 61.0286 13.1904C61.0286 12.923 61.0076 12.66 60.964 12.4005C60.6899 10.9448 59.7495 9.73372 58.4789 9.13517C57.9491 8.90973 57.3742 8.75245 56.7556 8.66333C55.9853 8.55323 55.2234 8.49818 54.4733 8.49818C53.6426 8.49818 52.8204 8.58294 52.0007 8.75245C51.1826 8.92634 50.445 9.21119 49.7896 9.61488C49.606 9.72585 49.4309 9.84818 49.2641 9.98449L49.2683 9.98886C49.2557 10.0011 49.2389 10.0098 49.2272 10.0221C49.2104 10.0352 49.1945 10.0439 49.1777 10.0561C49.1652 10.0693 49.1534 10.078 49.1375 10.0911C48.1309 10.9142 47.4796 12.473 47.4545 13.9043V13.976V13.9978H51.5531C51.5933 13.5644 51.6637 13.1231 51.8012 12.736C52.0216 12.1331 52.5019 11.6657 53.1012 11.4787C53.4432 11.3686 53.8547 11.3135 54.3434 11.3135C54.9552 11.3135 55.4514 11.4114 55.8378 11.5853C55.8512 11.5896 55.8588 11.594 55.8705 11.5984V11.6019C56.4782 11.8745 56.9014 12.5027 56.9014 13.2376C56.9014 14.0022 56.4329 14.6558 55.7816 14.9065C55.6802 14.945 55.5696 14.9791 55.4556 15.0079C54.9913 15.1276 54.4615 15.2167 53.8673 15.2761C53.268 15.3391 52.6612 15.4203 52.0459 15.5173C51.4265 15.6195 50.8155 15.7559 50.2087 15.9254C50.0176 15.9813 49.679 16.1167 49.679 16.1167C48.291 16.6943 47.255 18.0024 47.0144 19.5865C46.9985 19.7989 46.9868 20.0199 46.9868 20.2489C46.9868 20.5844 47.0102 20.9033 47.0555 21.2004C47.3891 22.8947 48.7503 24.3129 50.2573 24.6571C50.4409 24.6999 51.1248 24.8869 52.1029 24.8869C52.8321 24.8869 53.9033 24.7506 54.7876 24.471C55.676 24.1853 56.4455 23.6933 57.1018 22.9926C57.1219 23.2521 57.1546 23.5107 57.2032 23.7615C57.2526 24.0114 57.313 24.2578 57.3909 24.4998H61.5541C61.3588 24.1774 61.2239 23.6933 61.1509 23.052ZM56.9341 18.4786C56.9341 18.7163 56.9065 19.0387 56.8612 19.438C56.8118 19.8417 56.6819 20.2358 56.4698 20.6307C56.2577 21.0222 55.9283 21.3577 55.4883 21.6373C55.0441 21.9222 54.4163 22.0629 53.6058 22.0629C53.325 22.0629 52.9671 22.0366 52.6562 21.9816C52.5304 21.9563 52.3796 21.9012 52.3796 21.9012C51.9404 21.7396 51.5732 21.4206 51.3453 21.0091C51.2271 20.8011 51.1416 20.5678 51.1047 20.3214V20.317C51.0972 20.2664 51.093 20.2148 51.0879 20.1641C51.0846 20.1091 51.0804 20.0532 51.0804 19.9937C51.0804 19.9387 51.0846 19.8836 51.0879 19.8286C51.0879 19.8076 51.0879 19.7901 51.093 19.7692C51.1005 19.6844 51.1458 19.4808 51.15 19.4633C51.3168 18.822 51.7811 18.3038 52.3796 18.0871C52.4206 18.0749 52.4617 18.0618 52.4986 18.0487C53.175 17.8582 54.0877 17.6966 54.5026 17.6328C54.832 17.5821 55.1463 17.5436 55.4439 17.4807C55.7448 17.4204 56.0222 17.3444 56.2829 17.2553C56.5436 17.1662 56.7598 17.0386 56.9341 16.8769V18.4786ZM121.596 11.4961C121.324 10.7823 120.949 10.2047 120.468 9.76342C119.989 9.32216 119.409 8.99886 118.733 8.79964C118.057 8.59954 117.327 8.49818 116.537 8.49818C115.498 8.49818 114.594 8.75682 113.832 9.28372C113.075 9.80624 112.472 10.4092 112.028 11.089C111.624 10.1243 111.029 9.45323 110.252 9.07139C109.47 8.68954 108.605 8.49818 107.664 8.49818C106.679 8.49818 105.807 8.71838 105.049 9.16051C104.365 9.55546 103.774 10.099 103.269 10.7823V8.91847H99.5868H99.1668V24.4999H103.269V15.4588C103.269 14.6942 103.375 14.0782 103.586 13.6063C103.799 13.1354 104.056 12.7745 104.353 12.5194C104.65 12.2694 104.959 12.0991 105.277 12.0099C105.379 11.9802 105.473 11.9593 105.559 11.9383C105.689 11.9164 105.819 11.9042 105.953 11.9042C107.261 11.9042 108.337 12.923 108.491 14.2398C108.496 14.2905 108.499 14.3377 108.504 14.3884C108.52 14.8428 108.532 15.2971 108.532 15.7602V24.4999H112.634V15.8196C112.634 15.3391 112.667 14.8602 112.736 14.3884C112.781 14.0869 112.851 13.8021 112.952 13.5391C113.339 12.5796 114.248 11.9042 115.311 11.9042C116.562 11.9042 117.605 12.8418 117.824 14.0826C117.829 14.1166 117.832 14.1542 117.836 14.1927C117.877 14.6558 117.893 15.1486 117.893 15.6711V24.4999H122V14.0738C122 13.0672 121.866 12.2092 121.596 11.4961ZM76.4274 12.286C76.2647 11.4918 75.9798 10.8207 75.5758 10.2693C75.1726 9.71711 74.6186 9.28371 73.9137 8.97352C73.2088 8.65896 72.3094 8.50692 71.2131 8.50692C70.6138 8.50692 70.0271 8.60391 69.453 8.79527C68.4589 9.1474 67.5914 9.78876 66.9477 10.6215C66.8823 10.715 66.8211 10.8085 66.7608 10.9063V8.90973H62.6538V8.92634V11.9759V24.5042H66.7608V16.3369C66.7608 14.7536 67.0089 13.6107 67.5093 12.9187C67.5705 12.8383 67.6325 12.7658 67.697 12.6941L67.6928 12.6897C68.0231 12.2948 68.4547 11.9933 68.9434 11.8317C69.1965 11.7469 69.4656 11.7041 69.7463 11.7041C70.9525 11.7041 71.97 12.515 72.3329 13.6448C72.4922 14.2014 72.5693 14.8847 72.5693 15.7052V24.5042H76.6754V14.9231C76.6754 13.9594 76.5941 13.0803 76.4274 12.286ZM45.618 16.5292C45.2761 15.8957 44.8318 15.3696 44.2811 14.9572C43.7313 14.5413 43.1044 14.2145 42.3995 13.9681C41.6946 13.7261 40.9821 13.5172 40.2529 13.3477C39.5028 13.1782 38.7778 13.0165 38.0729 12.8724C37.368 12.7282 36.7444 12.5491 36.1912 12.3411C36.1543 12.3289 35.9464 12.2432 35.9381 12.2389C35.9096 12.2266 35.7352 12.1462 35.731 12.1462C35.5919 12.0737 35.4578 12.0021 35.3354 11.9252C34.8543 11.5984 34.5325 11.033 34.5325 10.3873C34.5325 9.61925 34.9934 8.95692 35.6413 8.68954C35.9548 8.5742 36.2884 8.49381 36.643 8.44662C37.026 8.40031 37.3596 8.37497 37.6412 8.37497C38.5297 8.37497 39.3192 8.54449 40.0082 8.88876C40.6972 9.22867 41.1364 9.89973 41.3241 10.8976H45.4957C45.3817 9.84818 45.0958 8.95692 44.6399 8.21332C44.1797 7.46623 43.6098 6.86332 42.9208 6.40021C42.2285 5.93711 41.4582 5.60157 40.6075 5.39711C39.7517 5.19002 38.8557 5.08342 37.922 5.08342C37.1031 5.08342 36.244 5.17254 35.343 5.34206C34.4436 5.51245 33.6239 5.80953 32.888 6.23856C32.1546 6.66322 31.5427 7.2242 31.0666 7.9206C30.5847 8.61264 30.345 9.4707 30.345 10.4983C30.345 11.4455 30.5084 12.2432 30.8378 12.8933C31.1639 13.5347 31.6039 14.0651 32.1546 14.4819C32.7044 14.8978 33.323 15.2246 34.0111 15.4666C34.7001 15.7139 35.4209 15.9166 36.1669 16.0914C36.8919 16.2609 37.6043 16.4182 38.3092 16.5667C39.0099 16.7118 39.6335 16.89 40.1842 17.0936C40.7122 17.2929 41.1489 17.5567 41.4951 17.8792L41.4909 17.8835C41.8656 18.2444 42.0986 18.7582 42.0986 19.3314C42.0986 19.9011 41.8656 20.4105 41.4993 20.7758C41.2713 20.9881 41.0022 21.1576 40.693 21.2808C40.273 21.4503 39.8204 21.57 39.3402 21.6295C38.8633 21.688 38.4358 21.7186 38.0603 21.7186C36.9849 21.7186 36.0646 21.4765 35.291 20.9881C34.5216 20.5031 34.0765 19.6503 33.9583 18.4314H29.9619C29.9829 19.5525 30.2025 20.5215 30.6098 21.3359C31.0214 22.152 31.5838 22.8353 32.2962 23.3832C33.0137 23.931 33.8569 24.3391 34.83 24.6108C35.7998 24.8782 36.8634 25.0101 38.0117 25.0101C38.9487 25.0101 39.8942 24.8992 40.8547 24.6825C41.8169 24.4614 42.6886 24.1093 43.4748 23.6208C44.2568 23.1324 44.8972 22.4998 45.39 21.7186C45.882 20.9409 46.1268 19.9902 46.1268 18.8683C46.1268 17.943 45.9558 17.1618 45.618 16.5292ZM78.2445 24.4998H82.3507V2.98545H78.2445V24.4998ZM11.6798 19.7141C11.565 20.0794 11.5692 21.7186 11.5776 22.0585V26.9928L15.6058 26.9972C15.8464 26.9972 15.9813 27.0059 16.1565 26.9928C16.2093 26.9928 16.2629 26.9884 16.3107 26.984C16.4943 26.9631 16.6577 26.9168 16.8773 26.7979C16.8899 26.7892 16.8974 26.7813 16.91 26.7717C17.366 26.4956 17.6719 25.9783 17.6719 25.3876C17.6719 25.3492 17.6719 25.3151 17.6677 25.2775C17.6677 24.7043 17.6677 23.8244 17.6719 23.4304C17.6845 22.5041 17.7859 21.349 18.0993 20.7242L21.5216 14.9275H21.5174C21.6842 14.6733 21.7781 14.3674 21.7781 14.0101V13.9856C21.7781 13.6964 21.7051 13.4622 21.5786 13.2673C21.5702 13.2542 21.5627 13.2411 21.5501 13.2289C15.2881 4.45082 12.3478 0.229551 12.2699 0.115085C12.2531 0.0888716 12.2372 0.0679007 12.2213 0.0512988V0.046056C12.1961 0.02159 12.1727 -0.000254682 12.1358 -0.000254682C12.1358 -0.000254682 12.0905 -0.00462362 12.0587 0.033823V0.038192C12.0453 0.0556677 12.0252 0.0888716 12.005 0.122949C11.9807 0.157027 11.9606 0.195474 11.9397 0.229551C11.9355 0.242658 11.9279 0.246153 11.9279 0.246153H11.9321C11.0722 1.80062 11.9606 3.15936 12.5674 4.31888C12.8692 4.91393 13.1575 5.44431 13.4517 5.94587V5.94936C14.0585 6.98568 14.7995 8.1583 15.5044 9.33442C16.0467 10.1243 16.3719 11.0243 16.3719 12.1498C16.3719 13.2796 15.9369 14.5238 15.2881 15.4247C14.5262 16.6646 13.5414 17.3269 12.4736 18.3554C12.0411 18.7748 11.8014 19.1322 11.6798 19.7141ZM9.3045 18.3554C8.23332 17.3269 7.24763 16.6646 6.48909 15.4247C5.84203 14.5238 5.40534 13.2795 5.40534 12.1497C5.40534 11.0243 5.73139 10.1243 6.27368 9.33435C6.97858 8.15823 7.71952 6.98561 8.32719 5.94929V5.9458C8.61636 5.44424 8.90972 4.91385 9.21146 4.3188C9.81746 3.15928 10.7059 1.80054 9.84595 0.24607C9.84595 0.24607 9.84176 0.242575 9.83422 0.229468C9.81326 0.19539 9.79315 0.156944 9.77219 0.122866C9.75208 0.0887881 9.73196 0.0555841 9.72023 0.0381083L9.71604 0.0337393C9.68335 -0.0047074 9.64228 -0.000338455 9.64228 -0.000338455C9.6054 -0.000338455 9.57774 0.0215063 9.55343 0.0459724V0.0512151C9.53667 0.0678171 9.52493 0.0887881 9.50817 0.115002C9.43022 0.229468 6.48909 4.45074 0.227982 13.2288C0.216247 13.2411 0.207027 13.2542 0.196131 13.2673C0.0729206 13.4621 0 13.6963 0 13.9855V14.01C0 14.3674 0.0938748 14.6732 0.256479 14.9275H0.253127L3.67872 20.7242C3.99219 21.349 4.09445 22.5041 4.10618 23.4303C4.11037 23.8244 4.11037 24.7043 4.11037 25.2775C4.10618 25.3151 4.10618 25.3492 4.10618 25.3876C4.10618 25.9783 4.41211 26.4956 4.86808 26.7717C4.87646 26.7813 4.88819 26.7892 4.90077 26.7979C5.1212 26.9167 5.27962 26.9631 5.46318 26.984C5.51598 26.9884 5.56878 26.9928 5.62159 26.9928C5.79677 27.0059 5.93087 26.9971 6.16807 26.9971H6.17227L10.1963 26.9928V22.0585C10.2089 21.7186 10.2131 20.0793 10.0991 19.7141C9.97671 19.1322 9.73532 18.7748 9.3045 18.3554ZM10.8928 7.63139C8.52582 7.63139 6.61145 9.628 6.61145 12.0947C6.61145 14.5579 8.52582 16.558 10.8928 16.558C13.2556 16.558 15.175 14.5579 15.175 12.0947C15.175 9.628 13.2556 7.63139 10.8928 7.63139Z" fill="#0075C9"/>
</svg>
