<svg width="133" height="30" viewBox="0 0 133 30" fill="none" xmlns="http://www.w3.org/2000/svg">
<path fill-rule="evenodd" clip-rule="evenodd" d="M106.536 25.6132C106.452 24.9006 106.407 24.1501 106.407 23.3714V14.6938V14.6559C106.407 14.3588 106.38 14.0666 106.332 13.7782C106.038 12.1607 105.008 10.8151 103.627 10.1501C103.046 9.89958 102.419 9.72482 101.744 9.62579C100.905 9.50346 100.075 9.44229 99.2567 9.44229C98.3512 9.44229 97.4548 9.53647 96.5612 9.72482C95.6684 9.91802 94.8653 10.2345 94.1498 10.6831C93.9506 10.8064 93.7596 10.9423 93.5769 11.0938L93.5806 11.0986C93.5687 11.1122 93.5504 11.1219 93.5367 11.1355C93.5193 11.1501 93.5011 11.1598 93.4883 11.1734C93.4709 11.1879 93.4572 11.1976 93.4435 11.2122C92.3424 12.1268 91.6315 13.8588 91.605 15.4491V15.5287V15.553H96.0732C96.118 15.0714 96.1929 14.5811 96.3437 14.151H96.3483C96.5831 13.4811 97.1076 12.9617 97.7609 12.7539C98.1337 12.6316 98.5824 12.5705 99.1151 12.5705C99.7858 12.5705 100.323 12.6792 100.744 12.8724C100.759 12.8772 100.771 12.8821 100.781 12.887V12.8908C101.442 13.1938 101.904 13.8918 101.904 14.7083C101.904 15.5578 101.398 16.284 100.683 16.5627C100.573 16.6054 100.452 16.6433 100.328 16.6753C99.8251 16.8083 99.2439 16.9073 98.5961 16.9734C97.9427 17.0433 97.2803 17.1336 96.6105 17.2413C95.9343 17.3549 95.2691 17.5064 94.6076 17.6947C94.4029 17.7569 94.0338 17.9074 94.0338 17.9074C92.5151 18.5491 91.3876 20.0025 91.1299 21.7627C91.1071 21.9986 91.0952 22.2442 91.0952 22.4986C91.0952 22.8714 91.1208 23.2258 91.1701 23.5559C91.5338 25.4384 93.0177 27.0142 94.6606 27.3967C94.8653 27.4443 95.6063 27.652 96.6763 27.652C97.4667 27.652 98.6363 27.5006 99.6039 27.1899C100.567 26.8724 101.407 26.3258 102.126 25.5472C102.143 25.8355 102.183 26.1229 102.233 26.4015C102.287 26.6792 102.357 26.953 102.437 27.2219H106.975C106.767 26.8637 106.621 26.3258 106.536 25.6132ZM101.939 20.5317C101.939 20.7958 101.913 21.154 101.86 21.5977C101.806 22.0462 101.664 22.4841 101.433 22.9229C101.202 23.3579 100.847 23.7307 100.363 24.0414C99.879 24.3579 99.1946 24.5142 98.3156 24.5142C98.0095 24.5142 97.6138 24.4851 97.2803 24.4239C97.1432 24.3958 96.9742 24.3346 96.9742 24.3346C96.4999 24.155 96.0988 23.8006 95.8466 23.3433C95.7178 23.1123 95.6282 22.853 95.5844 22.5793V22.5744C95.5761 22.5181 95.5707 22.4608 95.5661 22.4045C95.5615 22.3433 95.5615 22.2812 95.5615 22.2152C95.5615 22.154 95.5615 22.0928 95.5661 22.0317C95.5661 22.0084 95.5661 21.989 95.5707 21.9657C95.5798 21.8715 95.6282 21.6453 95.6328 21.6259C95.8155 20.9132 96.3218 20.3375 96.9742 20.0967C97.019 20.0831 97.0637 20.0686 97.1076 20.054C97.8404 19.8424 98.8355 19.6628 99.2924 19.5919C99.6478 19.5356 99.9895 19.4929 100.314 19.423C100.643 19.356 100.945 19.2715 101.229 19.1725C101.513 19.0734 101.749 18.9317 101.939 18.7521V20.5317ZM66.6645 25.6132C66.5795 24.9006 66.5356 24.1501 66.5356 23.3714V14.6938C66.5356 14.6938 66.5311 14.6656 66.5311 14.6559C66.5311 14.3588 66.5082 14.0666 66.4607 13.7782C66.1619 12.1607 65.1367 10.8151 63.7515 10.1501C63.174 9.89958 62.5472 9.72482 61.8728 9.62579C61.0331 9.50346 60.2025 9.44229 59.3847 9.44229C58.4792 9.44229 57.5828 9.53647 56.6892 9.72482C55.7974 9.91802 54.9933 10.2345 54.2787 10.6831C54.0786 10.8064 53.8877 10.9423 53.7058 11.0938L53.7104 11.0986C53.6967 11.1122 53.6784 11.1219 53.6656 11.1355C53.6473 11.1501 53.63 11.1598 53.6117 11.1734C53.598 11.1879 53.5852 11.1976 53.5679 11.2122C52.4705 12.1268 51.7605 13.8588 51.7331 15.4491V15.5287V15.553H56.2012C56.2451 15.0714 56.3219 14.5811 56.4717 14.151C56.712 13.4811 57.2356 12.9617 57.8889 12.7539C58.2617 12.6316 58.7104 12.5705 59.2431 12.5705C59.9101 12.5705 60.451 12.6792 60.8723 12.8724C60.8869 12.8772 60.8951 12.8821 60.9079 12.887V12.8908C61.5704 13.1938 62.0318 13.8918 62.0318 14.7083C62.0318 15.5578 61.521 16.284 60.8111 16.5627C60.7005 16.6054 60.5799 16.6433 60.4556 16.6753C59.9494 16.8083 59.3719 16.9073 58.7241 16.9734C58.0708 17.0433 57.4092 17.1336 56.7385 17.2413C56.0633 17.3549 55.3972 17.5064 54.7356 17.6947C54.5273 17.7569 54.1581 17.9074 54.1581 17.9074C52.645 18.5491 51.5156 20.0025 51.2534 21.7627C51.236 21.9986 51.2232 22.2442 51.2232 22.4986C51.2232 22.8714 51.2488 23.2258 51.2981 23.5559C51.6618 25.4384 53.1457 27.0142 54.7886 27.3967C54.9887 27.4443 55.7343 27.652 56.8007 27.652C57.5956 27.652 58.7634 27.5006 59.7274 27.1899C60.6959 26.8724 61.5347 26.3258 62.2502 25.5472C62.2721 25.8355 62.3078 26.1229 62.3608 26.4015C62.4147 26.6792 62.4805 26.953 62.5654 27.2219H67.104C66.8911 26.8637 66.744 26.3258 66.6645 25.6132ZM62.0674 20.5317C62.0674 20.7958 62.0373 21.154 61.9879 21.5977C61.934 22.0462 61.7924 22.4841 61.5612 22.9229C61.3301 23.3579 60.971 23.7307 60.4912 24.0414C60.007 24.3579 59.3226 24.5142 58.439 24.5142C58.1329 24.5142 57.7427 24.4851 57.4037 24.4239C57.2667 24.3958 57.1022 24.3346 57.1022 24.3346C56.6234 24.155 56.2232 23.8006 55.9746 23.3433C55.8458 23.1123 55.7526 22.853 55.7124 22.5793V22.5744C55.7042 22.5181 55.6996 22.4608 55.6941 22.4045C55.6905 22.3433 55.6859 22.2812 55.6859 22.2152C55.6859 22.154 55.6905 22.0928 55.6941 22.0317C55.6941 22.0084 55.6941 21.989 55.6996 21.9657C55.7078 21.8715 55.7572 21.6453 55.7617 21.6259C55.9436 20.9132 56.4498 20.3375 57.1022 20.0967C57.147 20.0831 57.1917 20.0686 57.2319 20.054C57.9693 19.8424 58.9644 19.6628 59.4167 19.5919C59.7758 19.5356 60.1184 19.4929 60.4428 19.423C60.7708 19.356 61.0733 19.2715 61.3575 19.1725C61.6416 19.0734 61.8774 18.9317 62.0674 18.7521V20.5317ZM132.56 12.7734C132.263 11.9802 131.854 11.3384 131.33 10.8481C130.807 10.3578 130.176 9.9986 129.438 9.77724C128.701 9.55491 127.906 9.44229 127.044 9.44229C125.912 9.44229 124.926 9.72967 124.096 10.3151C123.27 10.8957 122.613 11.5656 122.128 12.3209C121.689 11.2491 121.04 10.5035 120.192 10.0792C119.34 9.65491 118.398 9.44229 117.372 9.44229C116.298 9.44229 115.347 9.68695 114.521 10.1782C113.775 10.6171 113.131 11.2209 112.58 11.9802V9.90928H108.566H108.108V27.2219H112.58V17.1763C112.58 16.3268 112.696 15.6423 112.926 15.118C113.157 14.5947 113.438 14.1938 113.761 13.9103C114.086 13.6326 114.423 13.4433 114.769 13.3442C114.881 13.3112 114.983 13.2879 115.076 13.2646C115.218 13.2404 115.36 13.2268 115.507 13.2268C116.932 13.2268 118.105 14.3588 118.273 15.8219C118.278 15.8782 118.282 15.9307 118.287 15.987C118.304 16.4918 118.318 16.9967 118.318 17.5112V27.2219H122.79V17.5773C122.79 17.0433 122.826 16.5112 122.901 15.987C122.95 15.652 123.026 15.3355 123.136 15.0433C123.558 13.9773 124.549 13.2268 125.708 13.2268C127.072 13.2268 128.208 14.2685 128.448 15.6472C128.452 15.685 128.456 15.7268 128.461 15.7695C128.505 16.284 128.523 16.8316 128.523 17.4122V27.2219H133V15.6374C133 14.519 132.854 13.5656 132.56 12.7734ZM83.3182 13.6511C83.141 12.7686 82.8303 12.023 82.3899 11.4103C81.9504 10.7967 81.3464 10.3152 80.5779 9.97053C79.8095 9.62101 78.829 9.45208 77.6339 9.45208C76.9806 9.45208 76.341 9.55985 75.715 9.77247C74.6313 10.1637 73.6856 10.8764 72.9839 11.8016C72.9126 11.9055 72.8459 12.0094 72.7801 12.1181V9.89965H68.3028V9.9181V13.3065V27.2269H72.7801V18.1521C72.7801 16.3929 73.0506 15.123 73.5961 14.354C73.6628 14.2647 73.7304 14.1841 73.8008 14.1045L73.7962 14.0997C74.1562 13.6608 74.6268 13.3259 75.1595 13.1463C75.4354 13.0521 75.7287 13.0045 76.0348 13.0045C77.3497 13.0045 78.459 13.9055 78.8546 15.1608C79.0282 15.7793 79.1123 16.5385 79.1123 17.4502V27.2269H83.5887V16.5812C83.5887 15.5103 83.5001 14.5336 83.3182 13.6511ZM49.7311 18.3659C49.3583 17.662 48.874 17.0775 48.2737 16.6193C47.6742 16.1571 46.9908 15.794 46.2223 15.5202C45.4539 15.2513 44.6772 15.0192 43.8822 14.8309C43.0644 14.6425 42.2741 14.4629 41.5056 14.3027C40.7372 14.1425 40.0573 13.9435 39.4543 13.7125C39.4141 13.6989 39.1875 13.6037 39.1783 13.5989C39.1473 13.5853 38.9572 13.4959 38.9526 13.4959C38.8009 13.4154 38.6547 13.3358 38.5213 13.2503C37.9969 12.8872 37.646 12.2591 37.646 11.5416C37.646 10.6882 38.1485 9.95225 38.8549 9.65516C39.1966 9.52701 39.5603 9.43769 39.9468 9.38526C40.3643 9.3338 40.728 9.30565 41.035 9.30565C42.0036 9.30565 42.8643 9.494 43.6154 9.87652C44.3665 10.2542 44.8453 10.9998 45.05 12.1086H49.5977C49.4734 10.9425 49.1618 9.95225 48.6647 9.12604C48.1631 8.29594 47.5418 7.62603 46.7907 7.11147C46.0359 6.59691 45.1962 6.22409 44.2687 5.9969C43.3358 5.76681 42.359 5.64836 41.3411 5.64836C40.4484 5.64836 39.5118 5.74739 38.5296 5.93574C37.5491 6.12506 36.6555 6.45516 35.8532 6.93186C35.0537 7.4037 34.3867 8.027 33.8677 8.80079C33.3423 9.56973 33.081 10.5231 33.081 11.6649C33.081 12.7173 33.2591 13.6037 33.6182 14.326C33.9737 15.0387 34.4534 15.628 35.0537 16.0911C35.6531 16.5532 36.3275 16.9163 37.0776 17.1853C37.8287 17.46 38.6145 17.6853 39.4278 17.8794C40.2181 18.0678 40.9948 18.2426 41.7633 18.4076C42.5272 18.5688 43.207 18.7668 43.8073 18.993C44.383 19.2144 44.859 19.5076 45.2364 19.8659L45.2318 19.8707C45.6403 20.2717 45.8943 20.8426 45.8943 21.4795C45.8943 22.1125 45.6403 22.6785 45.241 23.0843C44.9924 23.3202 44.6991 23.5086 44.3619 23.6455C43.9042 23.8338 43.4107 23.9668 42.8872 24.0329C42.3673 24.0979 41.9013 24.1319 41.4919 24.1319C40.3196 24.1319 39.3163 23.863 38.4729 23.3202C37.6341 22.7814 37.1489 21.8338 37.0201 20.4795H32.6634C32.6862 21.7251 32.9256 22.8018 33.3697 23.7066C33.8183 24.6134 34.4315 25.3727 35.2081 25.9814C35.9903 26.5901 36.9095 27.0435 37.9704 27.3455C39.0275 27.6426 40.1871 27.7892 41.4389 27.7892C42.4605 27.7892 43.4912 27.6659 44.5383 27.4251C45.5873 27.1795 46.5376 26.7882 47.3946 26.2455C48.2472 25.7028 48.9453 24.9998 49.4825 24.1319C50.0189 23.2678 50.2857 22.2115 50.2857 20.9649C50.2857 19.9367 50.0993 19.0688 49.7311 18.3659ZM85.2993 27.222H89.7758V3.31712H85.2993V27.222ZM12.7329 21.9046C12.6077 22.3104 12.6123 24.1318 12.6214 24.5094V29.992L17.0128 29.9968C17.2751 29.9968 17.4222 30.0065 17.6132 29.992C17.6707 29.992 17.7292 29.9871 17.7813 29.9823C17.9814 29.959 18.1596 29.9075 18.399 29.7755C18.4127 29.7658 18.4209 29.757 18.4346 29.7463C18.9317 29.4395 19.2652 28.8648 19.2652 28.2085C19.2652 28.1658 19.2652 28.1279 19.2606 28.0861C19.2606 27.4492 19.2606 26.4716 19.2652 26.0337C19.2789 25.0046 19.3895 23.7211 19.7312 23.0269L23.462 16.5861H23.4574C23.6393 16.3036 23.7416 15.9638 23.7416 15.5667V15.5395C23.7416 15.2182 23.6621 14.958 23.5241 14.7415C23.515 14.7269 23.5068 14.7123 23.4931 14.6987C16.6665 4.94534 13.4611 0.255045 13.3761 0.127861C13.3579 0.0987343 13.3405 0.0754333 13.3232 0.0569866V0.0511614C13.2957 0.0239769 13.2702 -0.000294976 13.2299 -0.000294976C13.2299 -0.000294976 13.1806 -0.00514935 13.1459 0.0375691V0.0424235C13.1313 0.061841 13.1093 0.0987343 13.0874 0.136598C13.0609 0.174462 13.039 0.217181 13.0161 0.255045C13.0116 0.269608 13.0033 0.273492 13.0033 0.273492H13.0079C12.0704 2.00068 13.039 3.51039 13.7005 4.79874C14.0295 5.45991 14.3438 6.04923 14.6645 6.60651V6.61039C15.3261 7.76185 16.1338 9.06476 16.9023 10.3716C17.4935 11.2492 17.848 12.2492 17.848 13.4997C17.848 14.7551 17.3738 16.1376 16.6665 17.1386C15.8359 18.5162 14.7623 19.2522 13.5982 20.3949C13.1267 20.8609 12.8654 21.258 12.7329 21.9046ZM10.1434 20.3949C8.97567 19.2522 7.90111 18.5162 7.07417 17.1386C6.36877 16.1376 5.89271 14.7551 5.89271 13.4997C5.89271 12.2492 6.24815 11.2492 6.83934 10.3716C7.6078 9.06476 8.41555 7.76184 9.07801 6.61038V6.6065C9.39325 6.04921 9.71306 5.45989 10.042 4.79872C10.7026 3.51037 11.6712 2.00066 10.7337 0.273465C10.7337 0.273465 10.7291 0.269582 10.7209 0.255019C10.6981 0.217155 10.6761 0.174436 10.6533 0.136572C10.6314 0.0987076 10.6094 0.0618143 10.5966 0.0423968L10.5921 0.0375424C10.5564 -0.00517619 10.5117 -0.000321807 10.5117 -0.000321807C10.4715 -0.000321807 10.4413 0.0239501 10.4148 0.0511347V0.0569599C10.3965 0.0754066 10.3837 0.0987076 10.3655 0.127834C10.2805 0.255019 7.07417 4.94533 0.248537 14.6988C0.235745 14.7123 0.225694 14.7269 0.213815 14.7415C0.0794954 14.958 0 15.2182 0 15.5395V15.5667C0 15.9638 0.102339 16.3036 0.279604 16.5861H0.275949L4.0104 23.0269C4.35214 23.7211 4.46362 25.0046 4.47641 26.0337C4.48098 26.4716 4.48098 27.4493 4.48098 28.0862C4.47641 28.1279 4.47641 28.1658 4.47641 28.2085C4.47641 28.8648 4.80993 29.4396 5.307 29.7464C5.31614 29.7571 5.32893 29.7658 5.34264 29.7755C5.58295 29.9075 5.75565 29.959 5.95576 29.9823C6.01332 29.9872 6.07089 29.992 6.12845 29.992C6.31943 30.0066 6.46562 29.9969 6.72421 29.9969H6.72878L11.1156 29.992V24.5095C11.1294 24.1318 11.1339 22.3104 11.0097 21.9046C10.8762 21.258 10.6131 20.8609 10.1434 20.3949ZM11.8749 8.47937C9.29449 8.47937 7.20751 10.6978 7.20751 13.4386C7.20751 16.1755 9.29449 18.3978 11.8749 18.3978C14.4507 18.3978 16.5432 16.1755 16.5432 13.4386C16.5432 10.6978 14.4507 8.47937 11.8749 8.47937Z" fill="white"/>
</svg>
