<svg width="36" height="35" viewBox="0 0 36 35" fill="none" xmlns="http://www.w3.org/2000/svg">
<path d="M17.5126 8.75C16.7067 8.75 16.0533 9.40292 16.0533 10.2083V17.5H11.6753C10.8693 17.5 10.2159 18.1529 10.2159 18.9583C10.2159 19.7637 10.8693 20.4167 11.6753 20.4167H18.972V10.2083C18.972 9.40292 18.3186 8.75 17.5126 8.75ZM17.5126 0C7.84095 0 0.000488281 7.83502 0.000488281 17.5C0.000488281 27.165 7.84095 35 17.5126 35C27.1843 35 35.0248 27.165 35.0248 17.5C35.0248 12.8587 33.1798 8.40752 29.8956 5.12563C26.6114 1.84374 22.1572 0 17.5126 0ZM17.5126 30.625C10.2589 30.625 4.37853 24.7487 4.37853 17.5C4.37853 10.2513 10.2589 4.375 17.5126 4.375C24.7664 4.375 30.6468 10.2513 30.6468 17.5C30.6468 24.7487 24.7664 30.625 17.5126 30.625Z" fill="#0075C9"/>
</svg>
