<svg width="36" height="35" viewBox="0 0 36 35" fill="none" xmlns="http://www.w3.org/2000/svg">
<path d="M17.915 0C8.2433 0 0.402832 7.83502 0.402832 17.5C0.402832 27.165 8.2433 35 17.915 35C27.5867 35 35.4272 27.165 35.4272 17.5C35.4272 12.8587 33.5822 8.40752 30.298 5.12563C27.0138 1.84374 22.5595 0 17.915 0ZM17.915 29.1667C13.7293 29.1598 9.86767 26.9142 7.7936 23.2811C5.71952 19.6479 5.75046 15.1832 7.87469 11.5792L23.84 27.5333C22.0484 28.6015 20.0012 29.1659 17.915 29.1667ZM27.9553 23.4208L11.9901 7.46667C16.5707 4.79906 22.3749 5.55069 26.1238 9.29695C29.8726 13.0432 30.6248 18.8434 27.9553 23.4208Z" fill="#0075C9"/>
</svg>
