<svg width="36" height="26" viewBox="0 0 36 26" fill="none" xmlns="http://www.w3.org/2000/svg">
<path fill-rule="evenodd" clip-rule="evenodd" d="M18.8125 6.27083C18.8125 9.72875 15.9996 12.5417 12.5417 12.5417C9.08375 12.5417 6.27083 9.72875 6.27083 6.27083C6.27083 2.81292 9.08375 0 12.5417 0C15.9996 0 18.8125 2.81292 18.8125 6.27083ZM15.2292 6.27083C15.2292 4.78375 14.0287 3.58333 12.5417 3.58333C11.0546 3.58333 9.85417 4.78375 9.85417 6.27083C9.85417 7.75792 11.0546 8.95833 12.5417 8.95833C14.0287 8.95833 15.2292 7.75792 15.2292 6.27083ZM12.5417 15.6771C8.34917 15.6771 0 17.7733 0 21.9479V25.0833H25.0833V21.9479C25.0833 17.7733 16.7342 15.6771 12.5417 15.6771ZM12.5416 19.2604C9.33452 19.2604 5.69744 20.4608 4.19244 21.5H20.8908C19.3858 20.4608 15.7487 19.2604 12.5416 19.2604ZM25.1551 15.7846C27.2334 17.2896 28.6667 19.2962 28.6667 21.9479V25.0833H35.8334V21.9479C35.8334 18.3287 29.5626 16.2683 25.1551 15.7846ZM29.5625 6.27083C29.5625 9.72875 26.7496 12.5417 23.2917 12.5417C22.3242 12.5417 21.4283 12.3088 20.6042 11.9146C21.7329 10.32 22.3958 8.36708 22.3958 6.27083C22.3958 4.17458 21.7329 2.22167 20.6042 0.627083C21.4283 0.232917 22.3242 0 23.2917 0C26.7496 0 29.5625 2.81292 29.5625 6.27083Z" fill="#0151A3"/>
</svg>
