<svg width="36" height="35" viewBox="0 0 36 35" fill="none" xmlns="http://www.w3.org/2000/svg">
<path d="M17.915 0C22.5595 0 27.0138 1.84374 30.298 5.12563C33.5822 8.40752 35.4272 12.8587 35.4272 17.5C35.4272 27.165 27.5867 35 17.915 35C8.2433 35 0.402832 27.165 0.402832 17.5C0.402832 7.83502 8.2433 0 17.915 0ZM24.9753 25.5782C24.9753 25.2369 24.8177 24.9219 24.6076 24.6594L20.5885 19.7769C23.2679 19.4094 24.0822 17.3619 24.0822 14.8944C24.0822 13.2932 23.8983 11.1932 22.7163 9.98568C21.4028 8.64693 19.9844 8.75193 18.2244 8.75193H13.3648C12.5767 8.75193 12.0776 8.93568 12.0776 9.82818V25.1319C12.0776 26.0507 12.4979 26.2869 13.3648 26.2869C14.4155 26.2869 15.5976 26.5494 15.5976 25.1319V19.9082H16.4119L20.8775 25.5782C21.3503 26.1557 21.7443 26.2869 22.4798 26.2869H24.0559C24.5288 26.2869 24.9753 26.1032 24.9753 25.5782ZM20.5885 14.6844C20.5885 16.3382 20.3521 16.9157 18.5659 16.9157H15.5976V11.7969C16.3593 11.7707 17.0949 11.7444 17.8566 11.7444C18.3557 11.7444 19.459 11.7444 19.8793 11.9544C20.5623 12.3219 20.5885 14.0282 20.5885 14.6844Z" fill="#0075C9"/>
</svg>
