<svg width="344" height="569" viewBox="0 0 344 569" fill="none" xmlns="http://www.w3.org/2000/svg">
<rect x="1.25" y="0.25" width="341.5" height="73.5" rx="4.75" fill="white" stroke="#EBEEF1" stroke-width="0.5"/>
<path d="M83.8242 38.1895H78.1992V44H75.2695V29.7812H84.5273V32.1543H78.1992V35.8262H83.8242V38.1895ZM91.7543 42.9258C91.0577 43.7721 90.0941 44.1953 88.8637 44.1953C87.7309 44.1953 86.865 43.8698 86.266 43.2188C85.6736 42.5677 85.3708 41.6139 85.3578 40.3574V33.4336H88.1801V40.2598C88.1801 41.36 88.6814 41.9102 89.684 41.9102C90.641 41.9102 91.2986 41.5781 91.6566 40.9141V33.4336H94.4887V44H91.8324L91.7543 42.9258ZM98.8152 33.4336L98.9031 34.6543C99.6583 33.7103 100.671 33.2383 101.94 33.2383C103.06 33.2383 103.893 33.5671 104.44 34.2246C104.987 34.8822 105.267 35.8652 105.28 37.1738V44H102.458V37.2422C102.458 36.6432 102.328 36.2103 102.067 35.9434C101.807 35.6699 101.374 35.5332 100.768 35.5332C99.9741 35.5332 99.3784 35.8717 98.9813 36.5488V44H96.159V33.4336H98.8152ZM111.892 44.1953C110.342 44.1953 109.079 43.7201 108.103 42.7695C107.133 41.819 106.648 40.5527 106.648 38.9707V38.6973C106.648 37.6361 106.853 36.6888 107.263 35.8555C107.673 35.0156 108.252 34.3711 109.001 33.9219C109.756 33.4661 110.616 33.2383 111.579 33.2383C113.025 33.2383 114.161 33.694 114.987 34.6055C115.821 35.5169 116.237 36.8092 116.237 38.4824V39.6348H109.509C109.6 40.3249 109.874 40.8783 110.329 41.2949C110.792 41.7116 111.374 41.9199 112.077 41.9199C113.165 41.9199 114.014 41.526 114.626 40.7383L116.013 42.291C115.59 42.89 115.017 43.3587 114.294 43.6973C113.571 44.0293 112.771 44.1953 111.892 44.1953ZM111.57 35.5234C111.01 35.5234 110.554 35.7122 110.202 36.0898C109.857 36.4674 109.636 37.0078 109.538 37.7109H113.464V37.4863C113.451 36.8613 113.282 36.3796 112.956 36.041C112.631 35.696 112.168 35.5234 111.57 35.5234ZM123.386 36.0801C123.002 36.028 122.664 36.002 122.371 36.002C121.303 36.002 120.603 36.3633 120.271 37.0859V44H117.449V33.4336H120.115L120.193 34.6934C120.759 33.7233 121.544 33.2383 122.546 33.2383C122.859 33.2383 123.152 33.2806 123.425 33.3652L123.386 36.0801ZM130.184 44C130.053 43.7461 129.959 43.4303 129.9 43.0527C129.217 43.8145 128.328 44.1953 127.234 44.1953C126.199 44.1953 125.34 43.8958 124.656 43.2969C123.979 42.6979 123.641 41.9427 123.641 41.0312C123.641 39.9115 124.054 39.0521 124.881 38.4531C125.714 37.8542 126.915 37.5514 128.484 37.5449H129.783V36.9395C129.783 36.4512 129.656 36.0605 129.402 35.7676C129.155 35.4746 128.761 35.3281 128.221 35.3281C127.745 35.3281 127.371 35.4421 127.098 35.6699C126.831 35.8978 126.697 36.2103 126.697 36.6074H123.875C123.875 35.9954 124.064 35.429 124.441 34.9082C124.819 34.3874 125.353 33.9805 126.043 33.6875C126.733 33.388 127.508 33.2383 128.367 33.2383C129.669 33.2383 130.701 33.5671 131.463 34.2246C132.231 34.8757 132.615 35.7936 132.615 36.9785V41.5586C132.622 42.5612 132.762 43.3197 133.035 43.834V44H130.184ZM127.85 42.0371C128.266 42.0371 128.65 41.946 129.002 41.7637C129.354 41.5749 129.614 41.3242 129.783 41.0117V39.1953H128.729C127.316 39.1953 126.564 39.6836 126.473 40.6602L126.463 40.8262C126.463 41.1777 126.587 41.4674 126.834 41.6953C127.081 41.9232 127.42 42.0371 127.85 42.0371ZM137.362 44H134.53V29H137.362V44ZM155.224 39.2637C155.113 40.7936 154.547 41.998 153.525 42.877C152.509 43.7559 151.168 44.1953 149.501 44.1953C147.678 44.1953 146.243 43.5833 145.195 42.3594C144.153 41.1289 143.632 39.4427 143.632 37.3008V36.4316C143.632 35.0645 143.873 33.86 144.355 32.8184C144.836 31.7767 145.523 30.9792 146.415 30.4258C147.314 29.8659 148.355 29.5859 149.54 29.5859C151.181 29.5859 152.502 30.0254 153.505 30.9043C154.508 31.7832 155.087 33.0169 155.243 34.6055H152.314C152.242 33.6875 151.985 33.0234 151.542 32.6133C151.106 32.1966 150.439 31.9883 149.54 31.9883C148.564 31.9883 147.831 32.3398 147.343 33.043C146.861 33.7396 146.614 34.8236 146.601 36.2949V37.3691C146.601 38.9056 146.832 40.0286 147.294 40.7383C147.763 41.4479 148.499 41.8027 149.501 41.8027C150.406 41.8027 151.08 41.5977 151.523 41.1875C151.972 40.7708 152.229 40.1296 152.294 39.2637H155.224ZM156.123 38.6191C156.123 37.571 156.324 36.6367 156.728 35.8164C157.132 34.9961 157.711 34.3613 158.466 33.9121C159.228 33.4629 160.11 33.2383 161.113 33.2383C162.539 33.2383 163.701 33.6745 164.599 34.5469C165.504 35.4193 166.009 36.6042 166.113 38.1016L166.132 38.8242C166.132 40.4453 165.68 41.7474 164.775 42.7305C163.87 43.707 162.656 44.1953 161.132 44.1953C159.609 44.1953 158.392 43.707 157.48 42.7305C156.575 41.7539 156.123 40.4258 156.123 38.7461V38.6191ZM158.945 38.8242C158.945 39.8268 159.134 40.5951 159.511 41.1289C159.889 41.6562 160.429 41.9199 161.132 41.9199C161.816 41.9199 162.35 41.6595 162.734 41.1387C163.118 40.6113 163.31 39.7715 163.31 38.6191C163.31 37.6361 163.118 36.8743 162.734 36.334C162.35 35.7936 161.81 35.5234 161.113 35.5234C160.423 35.5234 159.889 35.7936 159.511 36.334C159.134 36.8678 158.945 37.6979 158.945 38.8242ZM171.27 40.5527L173.232 33.4336H176.182L172.617 44H169.922L166.357 33.4336H169.307L171.27 40.5527ZM181.758 44.1953C180.209 44.1953 178.946 43.7201 177.969 42.7695C176.999 41.819 176.514 40.5527 176.514 38.9707V38.6973C176.514 37.6361 176.719 36.6888 177.129 35.8555C177.539 35.0156 178.119 34.3711 178.868 33.9219C179.623 33.4661 180.482 33.2383 181.446 33.2383C182.891 33.2383 184.027 33.694 184.854 34.6055C185.687 35.5169 186.104 36.8092 186.104 38.4824V39.6348H179.375C179.467 40.3249 179.74 40.8783 180.196 41.2949C180.658 41.7116 181.241 41.9199 181.944 41.9199C183.031 41.9199 183.881 41.526 184.493 40.7383L185.879 42.291C185.456 42.89 184.883 43.3587 184.161 43.6973C183.438 44.0293 182.637 44.1953 181.758 44.1953ZM181.436 35.5234C180.876 35.5234 180.42 35.7122 180.069 36.0898C179.724 36.4674 179.502 37.0078 179.405 37.7109H183.33V37.4863C183.317 36.8613 183.148 36.3796 182.823 36.041C182.497 35.696 182.035 35.5234 181.436 35.5234ZM193.253 36.0801C192.869 36.028 192.53 36.002 192.237 36.002C191.169 36.002 190.47 36.3633 190.137 37.0859V44H187.315V33.4336H189.981L190.059 34.6934C190.626 33.7233 191.41 33.2383 192.413 33.2383C192.725 33.2383 193.018 33.2806 193.292 33.3652L193.253 36.0801Z" fill="#333E48"/>
<path fill-rule="evenodd" clip-rule="evenodd" d="M45.802 41.774C45.66 42.002 45.3075 42.1892 45.0182 42.1892H40.4817C40.1924 42.1892 39.8395 42.002 39.698 41.774L37.2545 37.8424C37.1125 37.6143 37.1125 37.2405 37.2545 37.0124L39.698 33.0809C39.8395 32.8528 40.1924 32.6661 40.4817 32.6661H45.0182C45.3075 32.6661 45.66 32.8528 45.802 33.0809L48.2454 37.0124C48.3869 37.2405 48.3869 37.6143 48.2454 37.8424L45.802 41.774ZM36.3157 26C36.0326 26 35.6872 26.1867 35.5488 26.4147L29.1042 37.0124C28.9653 37.2405 28.9653 37.6143 29.1042 37.8424L35.5488 48.4401C35.6872 48.6682 36.0326 48.8553 36.3157 48.8553H49.1842C49.4673 48.8553 49.8122 48.6682 49.9512 48.4401L56.3957 37.8424C56.5342 37.6143 56.5342 37.2405 56.3957 37.0124L49.9512 26.4147C49.8122 26.1867 49.4673 26 49.1842 26H36.3157Z" fill="url(#paint0_linear)"/>
<path opacity="0.5" fill-rule="evenodd" clip-rule="evenodd" d="M46.6343 43.0779C46.4536 43.3744 46.005 43.6177 45.6368 43.6177H39.863C39.4948 43.6177 39.0456 43.3744 38.8655 43.0779L35.7557 37.9669C35.5749 37.6704 35.5749 37.1845 35.7557 36.888L38.8655 31.7769C39.0456 31.4804 39.4948 31.2378 39.863 31.2378H45.6368C46.005 31.2378 46.4536 31.4804 46.6343 31.7769L49.7441 36.888C49.9242 37.1845 49.9242 37.6704 49.7441 37.9669L46.6343 43.0779ZM45.8019 41.774L48.2453 37.8425C48.3868 37.6144 48.3868 37.2406 48.2453 37.0125L45.8019 33.081C45.6599 32.8529 45.3074 32.6662 45.0181 32.6662H40.4816C40.1923 32.6662 39.8393 32.8529 39.6978 33.081L37.2544 37.0125C37.1124 37.2406 37.1124 37.6144 37.2544 37.8425L39.6978 41.774C39.8393 42.0021 40.1923 42.1892 40.4816 42.1892H45.0181C45.3074 42.1892 45.6599 42.0021 45.8019 41.774Z" fill="url(#paint1_linear)"/>
<rect x="0.25" y="98.25" width="342.5" height="74.5" rx="4.75" fill="white" stroke="#EBEEF1" stroke-width="0.5"/>
<path d="M78.1992 140.646H84.4199V143H75.2695V128.781H78.1992V140.646ZM88.5023 143H85.6703V132.434H88.5023V143ZM85.5043 129.699C85.5043 129.276 85.6443 128.928 85.9242 128.654C86.2107 128.381 86.598 128.244 87.0863 128.244C87.5681 128.244 87.9522 128.381 88.2387 128.654C88.5251 128.928 88.6684 129.276 88.6684 129.699C88.6684 130.129 88.5219 130.48 88.2289 130.754C87.9424 131.027 87.5616 131.164 87.0863 131.164C86.6111 131.164 86.227 131.027 85.934 130.754C85.6475 130.48 85.5043 130.129 85.5043 129.699ZM91.2078 143V134.504H89.6355V132.434H91.2078V131.535C91.2078 130.35 91.5464 129.432 92.2234 128.781C92.907 128.124 93.8608 127.795 95.0848 127.795C95.4754 127.795 95.9539 127.86 96.5203 127.99L96.491 130.178C96.2566 130.119 95.9702 130.09 95.6316 130.09C94.5704 130.09 94.0398 130.588 94.0398 131.584V132.434H96.1395V134.504H94.0398V143H91.2078ZM101.833 143.195C100.284 143.195 99.0207 142.72 98.0441 141.77C97.0741 140.819 96.5891 139.553 96.5891 137.971V137.697C96.5891 136.636 96.7941 135.689 97.2043 134.855C97.6145 134.016 98.1939 133.371 98.9426 132.922C99.6978 132.466 100.557 132.238 101.521 132.238C102.966 132.238 104.102 132.694 104.929 133.605C105.762 134.517 106.179 135.809 106.179 137.482V138.635H99.4504C99.5415 139.325 99.815 139.878 100.271 140.295C100.733 140.712 101.316 140.92 102.019 140.92C103.106 140.92 103.956 140.526 104.568 139.738L105.954 141.291C105.531 141.89 104.958 142.359 104.236 142.697C103.513 143.029 102.712 143.195 101.833 143.195ZM101.511 134.523C100.951 134.523 100.495 134.712 100.144 135.09C99.7987 135.467 99.5773 136.008 99.4797 136.711H103.405V136.486C103.392 135.861 103.223 135.38 102.898 135.041C102.572 134.696 102.11 134.523 101.511 134.523ZM123.318 138.264C123.208 139.794 122.641 140.998 121.619 141.877C120.604 142.756 119.262 143.195 117.596 143.195C115.773 143.195 114.337 142.583 113.289 141.359C112.247 140.129 111.727 138.443 111.727 136.301V135.432C111.727 134.064 111.967 132.86 112.449 131.818C112.931 130.777 113.618 129.979 114.51 129.426C115.408 128.866 116.45 128.586 117.635 128.586C119.275 128.586 120.597 129.025 121.6 129.904C122.602 130.783 123.182 132.017 123.338 133.605H120.408C120.337 132.688 120.079 132.023 119.637 131.613C119.201 131.197 118.533 130.988 117.635 130.988C116.658 130.988 115.926 131.34 115.438 132.043C114.956 132.74 114.708 133.824 114.695 135.295V136.369C114.695 137.906 114.926 139.029 115.389 139.738C115.857 140.448 116.593 140.803 117.596 140.803C118.501 140.803 119.174 140.598 119.617 140.188C120.066 139.771 120.324 139.13 120.389 138.264H123.318ZM124.217 137.619C124.217 136.571 124.419 135.637 124.823 134.816C125.226 133.996 125.806 133.361 126.561 132.912C127.323 132.463 128.205 132.238 129.207 132.238C130.633 132.238 131.795 132.674 132.694 133.547C133.599 134.419 134.103 135.604 134.207 137.102L134.227 137.824C134.227 139.445 133.774 140.747 132.87 141.73C131.965 142.707 130.75 143.195 129.227 143.195C127.704 143.195 126.486 142.707 125.575 141.73C124.67 140.754 124.217 139.426 124.217 137.746V137.619ZM127.039 137.824C127.039 138.827 127.228 139.595 127.606 140.129C127.983 140.656 128.524 140.92 129.227 140.92C129.911 140.92 130.444 140.66 130.829 140.139C131.213 139.611 131.405 138.771 131.405 137.619C131.405 136.636 131.213 135.874 130.829 135.334C130.444 134.794 129.904 134.523 129.207 134.523C128.517 134.523 127.983 134.794 127.606 135.334C127.228 135.868 127.039 136.698 127.039 137.824ZM139.364 139.553L141.327 132.434H144.276L140.712 143H138.016L134.452 132.434H137.401L139.364 139.553ZM149.853 143.195C148.303 143.195 147.04 142.72 146.064 141.77C145.094 140.819 144.609 139.553 144.609 137.971V137.697C144.609 136.636 144.814 135.689 145.224 134.855C145.634 134.016 146.213 133.371 146.962 132.922C147.717 132.466 148.577 132.238 149.54 132.238C150.986 132.238 152.122 132.694 152.948 133.605C153.782 134.517 154.198 135.809 154.198 137.482V138.635H147.47C147.561 139.325 147.835 139.878 148.29 140.295C148.752 140.712 149.335 140.92 150.038 140.92C151.126 140.92 151.975 140.526 152.587 139.738L153.974 141.291C153.551 141.89 152.978 142.359 152.255 142.697C151.532 143.029 150.732 143.195 149.853 143.195ZM149.53 134.523C148.971 134.523 148.515 134.712 148.163 135.09C147.818 135.467 147.597 136.008 147.499 136.711H151.425V136.486C151.412 135.861 151.243 135.38 150.917 135.041C150.592 134.696 150.129 134.523 149.53 134.523ZM161.347 135.08C160.963 135.028 160.625 135.002 160.332 135.002C159.264 135.002 158.564 135.363 158.232 136.086V143H155.41V132.434H158.076L158.154 133.693C158.72 132.723 159.505 132.238 160.507 132.238C160.82 132.238 161.113 132.281 161.386 132.365L161.347 135.08ZM172.588 135.041H176.114V137.59H172.588V141.574H169.903V137.59H166.368V135.041H169.903V131.223H172.588V135.041ZM193.839 136.213C193.839 137.541 193.624 138.697 193.195 139.68C192.765 140.656 192.169 141.441 191.407 142.033L193.771 143.889L191.905 145.539L188.878 143.107C188.533 143.166 188.175 143.195 187.804 143.195C186.626 143.195 185.574 142.912 184.65 142.346C183.725 141.779 183.009 140.972 182.501 139.924C181.993 138.869 181.736 137.658 181.73 136.291V135.588C181.73 134.188 181.98 132.958 182.482 131.896C182.989 130.829 183.702 130.012 184.62 129.445C185.545 128.872 186.599 128.586 187.784 128.586C188.969 128.586 190.021 128.872 190.939 129.445C191.863 130.012 192.576 130.829 193.077 131.896C193.585 132.958 193.839 134.185 193.839 135.578V136.213ZM190.87 135.568C190.87 134.077 190.603 132.945 190.07 132.17C189.536 131.395 188.774 131.008 187.784 131.008C186.801 131.008 186.043 131.392 185.509 132.16C184.975 132.922 184.705 134.042 184.698 135.52V136.213C184.698 137.665 184.965 138.791 185.499 139.592C186.033 140.393 186.801 140.793 187.804 140.793C188.787 140.793 189.542 140.409 190.07 139.641C190.597 138.866 190.864 137.74 190.87 136.262V135.568ZM201.73 141.926C201.033 142.772 200.07 143.195 198.839 143.195C197.707 143.195 196.841 142.87 196.242 142.219C195.649 141.568 195.347 140.614 195.334 139.357V132.434H198.156V139.26C198.156 140.36 198.657 140.91 199.66 140.91C200.617 140.91 201.274 140.578 201.632 139.914V132.434H204.464V143H201.808L201.73 141.926ZM209.172 143H206.34V132.434H209.172V143ZM206.174 129.699C206.174 129.276 206.314 128.928 206.594 128.654C206.88 128.381 207.268 128.244 207.756 128.244C208.238 128.244 208.622 128.381 208.908 128.654C209.195 128.928 209.338 129.276 209.338 129.699C209.338 130.129 209.191 130.48 208.898 130.754C208.612 131.027 208.231 131.164 207.756 131.164C207.281 131.164 206.896 131.027 206.604 130.754C206.317 130.48 206.174 130.129 206.174 129.699ZM215.5 140.92C216.021 140.92 216.444 140.777 216.77 140.49C217.095 140.204 217.265 139.823 217.278 139.348H219.924C219.918 140.064 219.722 140.721 219.338 141.32C218.954 141.913 218.427 142.375 217.756 142.707C217.092 143.033 216.357 143.195 215.549 143.195C214.039 143.195 212.847 142.717 211.975 141.76C211.103 140.796 210.666 139.468 210.666 137.775V137.59C210.666 135.962 211.099 134.663 211.965 133.693C212.831 132.723 214.019 132.238 215.53 132.238C216.851 132.238 217.909 132.616 218.704 133.371C219.504 134.12 219.911 135.119 219.924 136.369H217.278C217.265 135.822 217.095 135.38 216.77 135.041C216.444 134.696 216.015 134.523 215.481 134.523C214.823 134.523 214.325 134.764 213.987 135.246C213.655 135.721 213.489 136.496 213.489 137.57V137.863C213.489 138.951 213.655 139.732 213.987 140.207C214.319 140.682 214.823 140.92 215.5 140.92ZM224.973 138.762L223.958 139.777V143H221.136V128H223.958V136.311L224.505 135.607L227.21 132.434H230.598L226.78 136.838L230.93 143H227.688L224.973 138.762ZM239.115 137.99V143H236.185V128.781H241.732C242.8 128.781 243.737 128.977 244.545 129.367C245.358 129.758 245.983 130.314 246.42 131.037C246.856 131.753 247.074 132.57 247.074 133.488C247.074 134.882 246.595 135.982 245.638 136.789C244.688 137.59 243.369 137.99 241.683 137.99H239.115ZM239.115 135.617H241.732C242.507 135.617 243.096 135.435 243.5 135.07C243.91 134.706 244.115 134.185 244.115 133.508C244.115 132.811 243.91 132.248 243.5 131.818C243.089 131.389 242.523 131.167 241.8 131.154H239.115V135.617ZM254.516 143C254.385 142.746 254.291 142.43 254.232 142.053C253.549 142.814 252.66 143.195 251.566 143.195C250.531 143.195 249.672 142.896 248.988 142.297C248.311 141.698 247.973 140.943 247.973 140.031C247.973 138.911 248.386 138.052 249.213 137.453C250.046 136.854 251.247 136.551 252.816 136.545H254.115V135.939C254.115 135.451 253.988 135.061 253.734 134.768C253.487 134.475 253.093 134.328 252.553 134.328C252.077 134.328 251.703 134.442 251.43 134.67C251.163 134.898 251.029 135.21 251.029 135.607H248.207C248.207 134.995 248.396 134.429 248.773 133.908C249.151 133.387 249.685 132.98 250.375 132.688C251.065 132.388 251.84 132.238 252.699 132.238C254.001 132.238 255.033 132.567 255.795 133.225C256.563 133.876 256.947 134.794 256.947 135.979V140.559C256.954 141.561 257.094 142.32 257.367 142.834V143H254.516ZM252.182 141.037C252.598 141.037 252.982 140.946 253.334 140.764C253.686 140.575 253.946 140.324 254.115 140.012V138.195H253.061C251.648 138.195 250.896 138.684 250.805 139.66L250.795 139.826C250.795 140.178 250.919 140.467 251.166 140.695C251.413 140.923 251.752 141.037 252.182 141.037ZM262.504 139.006L264.457 132.434H267.485L263.237 144.641L263.002 145.197C262.371 146.577 261.329 147.268 259.877 147.268C259.467 147.268 259.051 147.206 258.627 147.082V144.943L259.057 144.953C259.591 144.953 259.988 144.872 260.248 144.709C260.515 144.546 260.724 144.276 260.873 143.898L261.205 143.029L257.504 132.434H260.541L262.504 139.006ZM267.602 137.619C267.602 136.571 267.804 135.637 268.208 134.816C268.611 133.996 269.191 133.361 269.946 132.912C270.708 132.463 271.59 132.238 272.593 132.238C274.018 132.238 275.18 132.674 276.079 133.547C276.984 134.419 277.488 135.604 277.593 137.102L277.612 137.824C277.612 139.445 277.16 140.747 276.255 141.73C275.35 142.707 274.136 143.195 272.612 143.195C271.089 143.195 269.871 142.707 268.96 141.73C268.055 140.754 267.602 139.426 267.602 137.746V137.619ZM270.425 137.824C270.425 138.827 270.613 139.595 270.991 140.129C271.369 140.656 271.909 140.92 272.612 140.92C273.296 140.92 273.83 140.66 274.214 140.139C274.598 139.611 274.79 138.771 274.79 137.619C274.79 136.636 274.598 135.874 274.214 135.334C273.83 134.794 273.289 134.523 272.593 134.523C271.902 134.523 271.369 134.794 270.991 135.334C270.613 135.868 270.425 136.698 270.425 137.824ZM285.279 141.926C284.582 142.772 283.618 143.195 282.388 143.195C281.255 143.195 280.389 142.87 279.79 142.219C279.198 141.568 278.895 140.614 278.882 139.357V132.434H281.704V139.26C281.704 140.36 282.206 140.91 283.208 140.91C284.165 140.91 284.823 140.578 285.181 139.914V132.434H288.013V143H285.357L285.279 141.926ZM293.121 129.836V132.434H294.927V134.504H293.121V139.777C293.121 140.168 293.196 140.448 293.345 140.617C293.495 140.786 293.782 140.871 294.205 140.871C294.517 140.871 294.794 140.848 295.035 140.803V142.941C294.481 143.111 293.912 143.195 293.326 143.195C291.347 143.195 290.337 142.196 290.298 140.197V134.504H288.755V132.434H290.298V129.836H293.121Z" fill="#333E48"/>
<path fill-rule="evenodd" clip-rule="evenodd" d="M47.0047 140.402C47.0047 140.676 46.7655 140.899 46.4733 140.899H37.9709C37.6787 140.899 37.4395 140.676 37.4395 140.402V132.453C37.4395 132.18 37.6787 131.956 37.9709 131.956H46.4733C46.7655 131.956 47.0047 132.18 47.0047 132.453V140.402ZM30.5314 125C30.2391 125 30 125.224 30 125.497V147.358C30 147.632 30.2391 147.855 30.5314 147.855H53.9128C54.2051 147.855 54.4442 147.632 54.4442 147.358V125.497C54.4442 125.224 54.2051 125 53.9128 125H30.5314Z" fill="url(#paint2_linear)"/>
<path opacity="0.5" fill-rule="evenodd" clip-rule="evenodd" d="M47.0052 140.403C47.0052 140.676 46.7661 140.899 46.4738 140.899H37.9715C37.6793 140.899 37.4401 140.676 37.4401 140.403V132.453C37.4401 132.18 37.6793 131.956 37.9715 131.956H46.4738C46.7661 131.956 47.0052 132.18 47.0052 132.453V140.403ZM36.3773 130.465C36.0851 130.465 35.8459 130.688 35.8459 130.962V141.893C35.8459 142.166 36.0851 142.39 36.3773 142.39H48.068C48.3603 142.39 48.5994 142.166 48.5994 141.893V130.962C48.5994 130.688 48.3603 130.465 48.068 130.465H36.3773Z" fill="url(#paint3_linear)"/>
<rect x="1.25" y="197.25" width="342.5" height="74.5" rx="4.75" fill="white" stroke="#EBEEF1" stroke-width="0.5"/>
<path fill-rule="evenodd" clip-rule="evenodd" d="M49.055 242.066C49.055 242.408 48.7709 242.687 48.4237 242.687H43.0925C42.7452 242.687 42.6619 242.49 42.9075 242.248L48.6087 236.638C48.8542 236.395 49.055 236.477 49.055 236.82V242.066ZM26.1411 249.082C25.8955 249.324 25.9789 249.521 26.3261 249.521H55.3686C55.7159 249.521 56 249.242 56 248.9V220.321C56 219.979 55.7992 219.897 55.5536 220.139L26.1411 249.082Z" fill="url(#paint4_linear)"/>
<path opacity="0.5" fill-rule="evenodd" clip-rule="evenodd" d="M49.0555 242.066C49.0555 242.407 48.7714 242.687 48.4242 242.687H43.093C42.7458 242.687 42.6624 242.489 42.908 242.248L48.6092 236.638C48.8548 236.395 49.0555 236.477 49.0555 236.82V242.066ZM38.3357 244.112C38.0901 244.353 38.1735 244.551 38.5201 244.551H50.3183C50.6655 244.551 50.9496 244.271 50.9496 243.93V232.32C50.9496 231.978 50.7488 231.896 50.5032 232.138L38.3357 244.112Z" fill="url(#paint5_linear)"/>
<path d="M86.4316 239.264C86.321 240.794 85.7546 241.998 84.7324 242.877C83.7168 243.756 82.3757 244.195 80.709 244.195C78.8861 244.195 77.4505 243.583 76.4023 242.359C75.3607 241.129 74.8398 239.443 74.8398 237.301V236.432C74.8398 235.064 75.0807 233.86 75.5625 232.818C76.0443 231.777 76.7311 230.979 77.623 230.426C78.5215 229.866 79.5632 229.586 80.748 229.586C82.3887 229.586 83.7103 230.025 84.7129 230.904C85.7155 231.783 86.2949 233.017 86.4512 234.605H83.5215C83.4499 233.688 83.1927 233.023 82.75 232.613C82.3138 232.197 81.6465 231.988 80.748 231.988C79.7715 231.988 79.0391 232.34 78.5508 233.043C78.069 233.74 77.8216 234.824 77.8086 236.295V237.369C77.8086 238.906 78.0397 240.029 78.502 240.738C78.9707 241.448 79.7064 241.803 80.709 241.803C81.6139 241.803 82.2878 241.598 82.7305 241.188C83.1797 240.771 83.4368 240.13 83.502 239.264H86.4316ZM93.7074 236.08C93.3233 236.028 92.9848 236.002 92.6918 236.002C91.6241 236.002 90.9242 236.363 90.5922 237.086V244H87.7699V233.434H90.4359L90.5141 234.693C91.0805 233.723 91.865 233.238 92.8676 233.238C93.1801 233.238 93.473 233.281 93.7465 233.365L93.7074 236.08ZM97.6531 244H94.8211V233.434H97.6531V244ZM94.6551 230.699C94.6551 230.276 94.7951 229.928 95.075 229.654C95.3615 229.381 95.7488 229.244 96.2371 229.244C96.7189 229.244 97.103 229.381 97.3895 229.654C97.6759 229.928 97.8191 230.276 97.8191 230.699C97.8191 231.129 97.6727 231.48 97.3797 231.754C97.0932 232.027 96.7124 232.164 96.2371 232.164C95.7618 232.164 95.3777 232.027 95.0848 231.754C94.7983 231.48 94.6551 231.129 94.6551 230.699ZM102.966 230.836V233.434H104.773V235.504H102.966V240.777C102.966 241.168 103.041 241.448 103.191 241.617C103.34 241.786 103.627 241.871 104.05 241.871C104.362 241.871 104.639 241.848 104.88 241.803V243.941C104.327 244.111 103.757 244.195 103.171 244.195C101.192 244.195 100.183 243.196 100.144 241.197V235.504H98.6008V233.434H100.144V230.836H102.966ZM108.923 244H106.091V233.434H108.923V244ZM105.925 230.699C105.925 230.276 106.065 229.928 106.345 229.654C106.632 229.381 107.019 229.244 107.507 229.244C107.989 229.244 108.373 229.381 108.66 229.654C108.946 229.928 109.089 230.276 109.089 230.699C109.089 231.129 108.943 231.48 108.65 231.754C108.364 232.027 107.983 232.164 107.507 232.164C107.032 232.164 106.648 232.027 106.355 231.754C106.069 231.48 105.925 231.129 105.925 230.699ZM115.252 241.92C115.773 241.92 116.196 241.777 116.521 241.49C116.847 241.204 117.016 240.823 117.029 240.348H119.676C119.669 241.064 119.474 241.721 119.09 242.32C118.706 242.913 118.178 243.375 117.508 243.707C116.844 244.033 116.108 244.195 115.301 244.195C113.79 244.195 112.599 243.717 111.727 242.76C110.854 241.796 110.418 240.468 110.418 238.775V238.59C110.418 236.962 110.851 235.663 111.717 234.693C112.583 233.723 113.771 233.238 115.281 233.238C116.603 233.238 117.661 233.616 118.455 234.371C119.256 235.12 119.663 236.119 119.676 237.369H117.029C117.016 236.822 116.847 236.38 116.521 236.041C116.196 235.696 115.766 235.523 115.232 235.523C114.575 235.523 114.077 235.764 113.738 236.246C113.406 236.721 113.24 237.496 113.24 238.57V238.863C113.24 239.951 113.406 240.732 113.738 241.207C114.07 241.682 114.575 241.92 115.252 241.92ZM127.01 244C126.88 243.746 126.786 243.43 126.727 243.053C126.043 243.814 125.155 244.195 124.061 244.195C123.026 244.195 122.166 243.896 121.483 243.297C120.806 242.698 120.467 241.943 120.467 241.031C120.467 239.911 120.881 239.052 121.707 238.453C122.541 237.854 123.742 237.551 125.311 237.545H126.61V236.939C126.61 236.451 126.483 236.061 126.229 235.768C125.982 235.475 125.588 235.328 125.047 235.328C124.572 235.328 124.198 235.442 123.924 235.67C123.657 235.898 123.524 236.21 123.524 236.607H120.702C120.702 235.995 120.89 235.429 121.268 234.908C121.646 234.387 122.179 233.98 122.87 233.688C123.56 233.388 124.334 233.238 125.194 233.238C126.496 233.238 127.528 233.567 128.289 234.225C129.058 234.876 129.442 235.794 129.442 236.979V241.559C129.448 242.561 129.588 243.32 129.862 243.834V244H127.01ZM124.676 242.037C125.093 242.037 125.477 241.946 125.829 241.764C126.18 241.575 126.44 241.324 126.61 241.012V239.195H125.555C124.142 239.195 123.39 239.684 123.299 240.66L123.289 240.826C123.289 241.178 123.413 241.467 123.661 241.695C123.908 241.923 124.246 242.037 124.676 242.037ZM134.188 244H131.356V229H134.188V244ZM144.004 244H141.074V229.781H144.004V244ZM149.121 244H146.289V229H149.121V244ZM154.034 244H151.202V229H154.034V244ZM158.565 233.434L158.653 234.654C159.408 233.71 160.421 233.238 161.69 233.238C162.81 233.238 163.643 233.567 164.19 234.225C164.737 234.882 165.017 235.865 165.03 237.174V244H162.208V237.242C162.208 236.643 162.078 236.21 161.817 235.943C161.557 235.67 161.124 235.533 160.518 235.533C159.724 235.533 159.128 235.872 158.731 236.549V244H155.909V233.434H158.565ZM171.642 244.195C170.092 244.195 168.829 243.72 167.853 242.77C166.883 241.819 166.398 240.553 166.398 238.971V238.697C166.398 237.636 166.603 236.689 167.013 235.855C167.423 235.016 168.002 234.371 168.751 233.922C169.506 233.466 170.366 233.238 171.329 233.238C172.775 233.238 173.911 233.694 174.738 234.605C175.571 235.517 175.988 236.809 175.988 238.482V239.635H169.259C169.35 240.325 169.624 240.878 170.079 241.295C170.542 241.712 171.124 241.92 171.827 241.92C172.915 241.92 173.764 241.526 174.376 240.738L175.763 242.291C175.34 242.89 174.767 243.359 174.044 243.697C173.321 244.029 172.521 244.195 171.642 244.195ZM171.32 235.523C170.76 235.523 170.304 235.712 169.952 236.09C169.607 236.467 169.386 237.008 169.288 237.711H173.214V237.486C173.201 236.861 173.032 236.38 172.706 236.041C172.381 235.696 171.918 235.523 171.32 235.523ZM182.921 241.08C182.921 240.735 182.749 240.465 182.404 240.27C182.065 240.068 181.518 239.889 180.763 239.732C178.25 239.205 176.994 238.137 176.994 236.529C176.994 235.592 177.381 234.811 178.156 234.186C178.937 233.554 179.956 233.238 181.213 233.238C182.554 233.238 183.625 233.554 184.425 234.186C185.233 234.817 185.636 235.637 185.636 236.646H182.814C182.814 236.243 182.684 235.911 182.423 235.65C182.163 235.383 181.756 235.25 181.203 235.25C180.727 235.25 180.36 235.357 180.099 235.572C179.839 235.787 179.709 236.061 179.709 236.393C179.709 236.705 179.855 236.959 180.148 237.154C180.448 237.343 180.949 237.509 181.652 237.652C182.355 237.789 182.948 237.945 183.429 238.121C184.92 238.668 185.666 239.615 185.666 240.963C185.666 241.926 185.252 242.708 184.425 243.307C183.599 243.899 182.531 244.195 181.222 244.195C180.337 244.195 179.549 244.039 178.859 243.727C178.175 243.408 177.638 242.975 177.248 242.428C176.857 241.874 176.662 241.279 176.662 240.641H179.338C179.364 241.142 179.549 241.526 179.894 241.793C180.239 242.06 180.701 242.193 181.281 242.193C181.821 242.193 182.228 242.092 182.502 241.891C182.782 241.682 182.921 241.412 182.921 241.08ZM192.814 241.08C192.814 240.735 192.642 240.465 192.297 240.27C191.958 240.068 191.411 239.889 190.656 239.732C188.143 239.205 186.887 238.137 186.887 236.529C186.887 235.592 187.274 234.811 188.049 234.186C188.83 233.554 189.849 233.238 191.105 233.238C192.447 233.238 193.518 233.554 194.318 234.186C195.126 234.817 195.529 235.637 195.529 236.646H192.707C192.707 236.243 192.577 235.911 192.316 235.65C192.056 235.383 191.649 235.25 191.096 235.25C190.62 235.25 190.253 235.357 189.992 235.572C189.732 235.787 189.602 236.061 189.602 236.393C189.602 236.705 189.748 236.959 190.041 237.154C190.34 237.343 190.842 237.509 191.545 237.652C192.248 237.789 192.84 237.945 193.322 238.121C194.813 238.668 195.559 239.615 195.559 240.963C195.559 241.926 195.145 242.708 194.318 243.307C193.492 243.899 192.424 244.195 191.115 244.195C190.23 244.195 189.442 244.039 188.752 243.727C188.068 243.408 187.531 242.975 187.141 242.428C186.75 241.874 186.555 241.279 186.555 240.641H189.23C189.257 241.142 189.442 241.526 189.787 241.793C190.132 242.06 190.594 242.193 191.174 242.193C191.714 242.193 192.121 242.092 192.395 241.891C192.674 241.682 192.814 241.412 192.814 241.08ZM212.913 239.264C212.802 240.794 212.236 241.998 211.214 242.877C210.198 243.756 208.857 244.195 207.19 244.195C205.367 244.195 203.932 243.583 202.884 242.359C201.842 241.129 201.321 239.443 201.321 237.301V236.432C201.321 235.064 201.562 233.86 202.044 232.818C202.526 231.777 203.212 230.979 204.104 230.426C205.003 229.866 206.044 229.586 207.229 229.586C208.87 229.586 210.192 230.025 211.194 230.904C212.197 231.783 212.776 233.017 212.932 234.605H210.003C209.931 233.688 209.674 233.023 209.231 232.613C208.795 232.197 208.128 231.988 207.229 231.988C206.253 231.988 205.52 232.34 205.032 233.043C204.55 233.74 204.303 234.824 204.29 236.295V237.369C204.29 238.906 204.521 240.029 204.983 240.738C205.452 241.448 206.188 241.803 207.19 241.803C208.095 241.803 208.769 241.598 209.212 241.188C209.661 240.771 209.918 240.13 209.983 239.264H212.913ZM213.812 238.619C213.812 237.571 214.014 236.637 214.417 235.816C214.821 234.996 215.4 234.361 216.155 233.912C216.917 233.463 217.799 233.238 218.802 233.238C220.228 233.238 221.39 233.674 222.288 234.547C223.193 235.419 223.698 236.604 223.802 238.102L223.821 238.824C223.821 240.445 223.369 241.747 222.464 242.73C221.559 243.707 220.345 244.195 218.821 244.195C217.298 244.195 216.081 243.707 215.169 242.73C214.264 241.754 213.812 240.426 213.812 238.746V238.619ZM216.634 238.824C216.634 239.827 216.823 240.595 217.2 241.129C217.578 241.656 218.118 241.92 218.821 241.92C219.505 241.92 220.039 241.66 220.423 241.139C220.807 240.611 220.999 239.771 220.999 238.619C220.999 237.636 220.807 236.874 220.423 236.334C220.039 235.794 219.499 235.523 218.802 235.523C218.112 235.523 217.578 235.794 217.2 236.334C216.823 236.868 216.634 237.698 216.634 238.824ZM228.959 240.553L230.921 233.434H233.871L230.306 244H227.611L224.046 233.434H226.996L228.959 240.553ZM239.447 244.195C237.898 244.195 236.635 243.72 235.658 242.77C234.688 241.819 234.203 240.553 234.203 238.971V238.697C234.203 237.636 234.408 236.689 234.818 235.855C235.229 235.016 235.808 234.371 236.557 233.922C237.312 233.466 238.171 233.238 239.135 233.238C240.58 233.238 241.716 233.694 242.543 234.605C243.376 235.517 243.793 236.809 243.793 238.482V239.635H237.064C237.156 240.325 237.429 240.878 237.885 241.295C238.347 241.712 238.93 241.92 239.633 241.92C240.72 241.92 241.57 241.526 242.182 240.738L243.568 242.291C243.145 242.89 242.572 243.359 241.85 243.697C241.127 244.029 240.326 244.195 239.447 244.195ZM239.125 235.523C238.565 235.523 238.109 235.712 237.758 236.09C237.413 236.467 237.191 237.008 237.094 237.711H241.02V237.486C241.007 236.861 240.837 236.38 240.512 236.041C240.186 235.696 239.724 235.523 239.125 235.523ZM250.942 236.08C250.558 236.028 250.219 236.002 249.926 236.002C248.858 236.002 248.159 236.363 247.827 237.086V244H245.004V233.434H247.67L247.748 234.693C248.315 233.723 249.099 233.238 250.102 233.238C250.414 233.238 250.707 233.281 250.981 233.365L250.942 236.08Z" fill="#333E48"/>
<rect x="0.25" y="296.25" width="342.5" height="74.5" rx="4.75" fill="white" stroke="#EBEEF1" stroke-width="0.5"/>
<path d="M77.3848 343H74.4551V328.781H77.3848V343ZM82.1215 332.434L82.2094 333.654C82.9646 332.71 83.977 332.238 85.2465 332.238C86.3663 332.238 87.1996 332.567 87.7465 333.225C88.2934 333.882 88.5733 334.865 88.5863 336.174V343H85.7641V336.242C85.7641 335.643 85.6339 335.21 85.3734 334.943C85.113 334.67 84.6801 334.533 84.0746 334.533C83.2803 334.533 82.6846 334.872 82.2875 335.549V343H79.4652V332.434H82.1215ZM94.7293 340.92C95.2501 340.92 95.6733 340.777 95.9988 340.49C96.3243 340.204 96.4936 339.823 96.5066 339.348H99.1531C99.1466 340.064 98.9513 340.721 98.5672 341.32C98.1831 341.913 97.6557 342.375 96.9852 342.707C96.3211 343.033 95.5854 343.195 94.7781 343.195C93.2677 343.195 92.0763 342.717 91.2039 341.76C90.3315 340.796 89.8953 339.468 89.8953 337.775V337.59C89.8953 335.962 90.3283 334.663 91.1941 333.693C92.06 332.723 93.2482 332.238 94.7586 332.238C96.0802 332.238 97.1382 332.616 97.9324 333.371C98.7332 334.12 99.1401 335.119 99.1531 336.369H96.5066C96.4936 335.822 96.3243 335.38 95.9988 335.041C95.6733 334.696 95.2436 334.523 94.7098 334.523C94.0522 334.523 93.5542 334.764 93.2156 335.246C92.8836 335.721 92.7176 336.496 92.7176 337.57V337.863C92.7176 338.951 92.8836 339.732 93.2156 340.207C93.5477 340.682 94.0522 340.92 94.7293 340.92ZM99.925 337.619C99.925 336.571 100.127 335.637 100.53 334.816C100.934 333.996 101.514 333.361 102.269 332.912C103.03 332.463 103.913 332.238 104.915 332.238C106.341 332.238 107.503 332.674 108.402 333.547C109.307 334.419 109.811 335.604 109.915 337.102L109.935 337.824C109.935 339.445 109.482 340.747 108.577 341.73C107.672 342.707 106.458 343.195 104.935 343.195C103.411 343.195 102.194 342.707 101.282 341.73C100.377 340.754 99.925 339.426 99.925 337.746V337.619ZM102.747 337.824C102.747 338.827 102.936 339.595 103.314 340.129C103.691 340.656 104.232 340.92 104.935 340.92C105.618 340.92 106.152 340.66 106.536 340.139C106.92 339.611 107.112 338.771 107.112 337.619C107.112 336.636 106.92 335.874 106.536 335.334C106.152 334.794 105.612 334.523 104.915 334.523C104.225 334.523 103.691 334.794 103.314 335.334C102.936 335.868 102.747 336.698 102.747 337.824ZM113.92 332.434L114.007 333.615C114.756 332.697 115.768 332.238 117.045 332.238C118.405 332.238 119.339 332.775 119.847 333.85C120.589 332.775 121.647 332.238 123.021 332.238C124.167 332.238 125.02 332.574 125.58 333.244C126.14 333.908 126.42 334.911 126.42 336.252V343H123.588V336.262C123.588 335.663 123.47 335.227 123.236 334.953C123.002 334.673 122.588 334.533 121.996 334.533C121.149 334.533 120.563 334.937 120.238 335.744L120.248 343H117.425V336.271C117.425 335.66 117.305 335.217 117.064 334.943C116.823 334.67 116.413 334.533 115.834 334.533C115.033 334.533 114.453 334.865 114.095 335.529V343H111.273V332.434H113.92ZM133.061 343.195C131.511 343.195 130.248 342.72 129.271 341.77C128.301 340.819 127.816 339.553 127.816 337.971V337.697C127.816 336.636 128.021 335.689 128.432 334.855C128.842 334.016 129.421 333.371 130.17 332.922C130.925 332.466 131.785 332.238 132.748 332.238C134.193 332.238 135.329 332.694 136.156 333.605C136.99 334.517 137.406 335.809 137.406 337.482V338.635H130.678C130.769 339.325 131.042 339.878 131.498 340.295C131.96 340.712 132.543 340.92 133.246 340.92C134.333 340.92 135.183 340.526 135.795 339.738L137.182 341.291C136.758 341.89 136.186 342.359 135.463 342.697C134.74 343.029 133.939 343.195 133.061 343.195ZM132.738 334.523C132.178 334.523 131.723 334.712 131.371 335.09C131.026 335.467 130.805 336.008 130.707 336.711H134.633V336.486C134.62 335.861 134.451 335.38 134.125 335.041C133.799 334.696 133.337 334.523 132.738 334.523ZM146.313 337.99V343H143.384V328.781H148.93C149.998 328.781 150.936 328.977 151.743 329.367C152.557 329.758 153.182 330.314 153.618 331.037C154.054 331.753 154.272 332.57 154.272 333.488C154.272 334.882 153.794 335.982 152.837 336.789C151.886 337.59 150.568 337.99 148.882 337.99H146.313ZM146.313 335.617H148.93C149.705 335.617 150.294 335.435 150.698 335.07C151.108 334.706 151.313 334.185 151.313 333.508C151.313 332.811 151.108 332.248 150.698 331.818C150.288 331.389 149.721 331.167 148.999 331.154H146.313V335.617ZM161.646 335.08C161.262 335.028 160.923 335.002 160.63 335.002C159.562 335.002 158.863 335.363 158.53 336.086V343H155.708V332.434H158.374L158.452 333.693C159.019 332.723 159.803 332.238 160.806 332.238C161.118 332.238 161.411 332.281 161.685 332.365L161.646 335.08ZM161.822 337.619C161.822 336.571 162.024 335.637 162.427 334.816C162.831 333.996 163.41 333.361 164.166 332.912C164.927 332.463 165.81 332.238 166.812 332.238C168.238 332.238 169.4 332.674 170.298 333.547C171.203 334.419 171.708 335.604 171.812 337.102L171.832 337.824C171.832 339.445 171.379 340.747 170.474 341.73C169.569 342.707 168.355 343.195 166.832 343.195C165.308 343.195 164.091 342.707 163.179 341.73C162.274 340.754 161.822 339.426 161.822 337.746V337.619ZM164.644 337.824C164.644 338.827 164.833 339.595 165.211 340.129C165.588 340.656 166.129 340.92 166.832 340.92C167.515 340.92 168.049 340.66 168.433 340.139C168.817 339.611 169.009 338.771 169.009 337.619C169.009 336.636 168.817 335.874 168.433 335.334C168.049 334.794 167.509 334.523 166.812 334.523C166.122 334.523 165.588 334.794 165.211 335.334C164.833 335.868 164.644 336.698 164.644 337.824ZM176.549 329.836V332.434H178.355V334.504H176.549V339.777C176.549 340.168 176.624 340.448 176.773 340.617C176.923 340.786 177.21 340.871 177.633 340.871C177.945 340.871 178.222 340.848 178.463 340.803V342.941C177.91 343.111 177.34 343.195 176.754 343.195C174.775 343.195 173.766 342.196 173.727 340.197V334.504H172.184V332.434H173.727V329.836H176.549ZM184.391 343.195C182.842 343.195 181.579 342.72 180.602 341.77C179.632 340.819 179.147 339.553 179.147 337.971V337.697C179.147 336.636 179.352 335.689 179.762 334.855C180.172 334.016 180.752 333.371 181.5 332.922C182.256 332.466 183.115 332.238 184.079 332.238C185.524 332.238 186.66 332.694 187.487 333.605C188.32 334.517 188.737 335.809 188.737 337.482V338.635H182.008C182.099 339.325 182.373 339.878 182.829 340.295C183.291 340.712 183.873 340.92 184.577 340.92C185.664 340.92 186.513 340.526 187.125 339.738L188.512 341.291C188.089 341.89 187.516 342.359 186.793 342.697C186.071 343.029 185.27 343.195 184.391 343.195ZM184.069 334.523C183.509 334.523 183.053 334.712 182.702 335.09C182.357 335.467 182.135 336.008 182.037 336.711H185.963V336.486C185.95 335.861 185.781 335.38 185.455 335.041C185.13 334.696 184.668 334.523 184.069 334.523ZM194.343 340.92C194.863 340.92 195.287 340.777 195.612 340.49C195.938 340.204 196.107 339.823 196.12 339.348H198.766C198.76 340.064 198.565 340.721 198.18 341.32C197.796 341.913 197.269 342.375 196.598 342.707C195.934 343.033 195.199 343.195 194.391 343.195C192.881 343.195 191.69 342.717 190.817 341.76C189.945 340.796 189.509 339.468 189.509 337.775V337.59C189.509 335.962 189.942 334.663 190.807 333.693C191.673 332.723 192.861 332.238 194.372 332.238C195.693 332.238 196.751 332.616 197.546 333.371C198.346 334.12 198.753 335.119 198.766 336.369H196.12C196.107 335.822 195.938 335.38 195.612 335.041C195.287 334.696 194.857 334.523 194.323 334.523C193.665 334.523 193.167 334.764 192.829 335.246C192.497 335.721 192.331 336.496 192.331 337.57V337.863C192.331 338.951 192.497 339.732 192.829 340.207C193.161 340.682 193.665 340.92 194.343 340.92ZM203.357 329.836V332.434H205.163V334.504H203.357V339.777C203.357 340.168 203.432 340.448 203.581 340.617C203.731 340.786 204.017 340.871 204.441 340.871C204.753 340.871 205.03 340.848 205.271 340.803V342.941C204.717 343.111 204.148 343.195 203.562 343.195C201.583 343.195 200.573 342.196 200.534 340.197V334.504H198.991V332.434H200.534V329.836H203.357ZM209.314 343H206.482V332.434H209.314V343ZM206.316 329.699C206.316 329.276 206.456 328.928 206.736 328.654C207.022 328.381 207.41 328.244 207.898 328.244C208.38 328.244 208.764 328.381 209.05 328.654C209.337 328.928 209.48 329.276 209.48 329.699C209.48 330.129 209.334 330.48 209.041 330.754C208.754 331.027 208.373 331.164 207.898 331.164C207.423 331.164 207.039 331.027 206.746 330.754C206.459 330.48 206.316 330.129 206.316 329.699ZM210.809 337.619C210.809 336.571 211.01 335.637 211.414 334.816C211.818 333.996 212.397 333.361 213.152 332.912C213.914 332.463 214.796 332.238 215.799 332.238C217.225 332.238 218.387 332.674 219.285 333.547C220.19 334.419 220.695 335.604 220.799 337.102L220.818 337.824C220.818 339.445 220.366 340.747 219.461 341.73C218.556 342.707 217.342 343.195 215.818 343.195C214.295 343.195 213.077 342.707 212.166 341.73C211.261 340.754 210.809 339.426 210.809 337.746V337.619ZM213.631 337.824C213.631 338.827 213.82 339.595 214.197 340.129C214.575 340.656 215.115 340.92 215.818 340.92C216.502 340.92 217.036 340.66 217.42 340.139C217.804 339.611 217.996 338.771 217.996 337.619C217.996 336.636 217.804 335.874 217.42 335.334C217.036 334.794 216.495 334.523 215.799 334.523C215.109 334.523 214.575 334.794 214.197 335.334C213.82 335.868 213.631 336.698 213.631 337.824ZM224.754 332.434L224.842 333.654C225.597 332.71 226.61 332.238 227.879 332.238C228.999 332.238 229.832 332.567 230.379 333.225C230.926 333.882 231.206 334.865 231.219 336.174V343H228.397V336.242C228.397 335.643 228.267 335.21 228.006 334.943C227.746 334.67 227.313 334.533 226.707 334.533C225.913 334.533 225.317 334.872 224.92 335.549V343H222.098V332.434H224.754Z" fill="#333E48"/>
<path fill-rule="evenodd" clip-rule="evenodd" d="M41 340.011C38.243 340.011 36 337.899 36 335.302C36 332.705 38.243 330.593 41 330.593C43.757 330.593 46 332.705 46 335.302C46 337.899 43.757 340.011 41 340.011ZM29 335.302C29 341.544 34.3725 346.604 41 346.604C47.6275 346.604 53 341.544 53 335.302C53 329.06 47.6275 324 41 324C34.3725 324 29 329.06 29 335.302Z" fill="url(#paint6_linear)"/>
<path opacity="0.5" fill-rule="evenodd" clip-rule="evenodd" d="M41.001 340.011C38.244 340.011 36.001 337.899 36.001 335.302C36.001 332.705 38.244 330.593 41.001 330.593C43.758 330.593 46.001 332.705 46.001 335.302C46.001 337.899 43.758 340.011 41.001 340.011ZM41.001 329.18C37.417 329.18 34.501 331.927 34.501 335.302C34.501 338.678 37.417 341.424 41.001 341.424C44.585 341.424 47.501 338.678 47.501 335.302C47.501 331.927 44.585 329.18 41.001 329.18Z" fill="url(#paint7_linear)"/>
<rect x="0.25" y="395.25" width="342.5" height="74.5" rx="4.75" fill="white" stroke="#EBEEF1" stroke-width="0.5"/>
<path d="M74.2695 442V427.781H78.6445C79.8945 427.781 81.0111 428.064 81.9941 428.631C82.9837 429.191 83.7552 429.992 84.3086 431.033C84.862 432.068 85.1387 433.247 85.1387 434.568V435.223C85.1387 436.544 84.8652 437.719 84.3184 438.748C83.778 439.777 83.013 440.574 82.0234 441.141C81.0339 441.707 79.9173 441.993 78.6738 442H74.2695ZM77.1992 430.154V439.646H78.6152C79.7611 439.646 80.6367 439.272 81.2422 438.523C81.8477 437.775 82.1569 436.704 82.1699 435.311V434.559C82.1699 433.113 81.8704 432.02 81.2715 431.277C80.6725 430.529 79.7969 430.154 78.6445 430.154H77.1992ZM89.6703 442H86.8383V431.434H89.6703V442ZM86.6723 428.699C86.6723 428.276 86.8122 427.928 87.0922 427.654C87.3786 427.381 87.766 427.244 88.2543 427.244C88.7361 427.244 89.1202 427.381 89.4066 427.654C89.6931 427.928 89.8363 428.276 89.8363 428.699C89.8363 429.129 89.6898 429.48 89.3969 429.754C89.1104 430.027 88.7296 430.164 88.2543 430.164C87.779 430.164 87.3949 430.027 87.102 429.754C86.8155 429.48 86.6723 429.129 86.6723 428.699ZM97.327 439.08C97.327 438.735 97.1544 438.465 96.8094 438.27C96.4708 438.068 95.924 437.889 95.1688 437.732C92.6557 437.205 91.3992 436.137 91.3992 434.529C91.3992 433.592 91.7866 432.811 92.5613 432.186C93.3426 431.554 94.3615 431.238 95.618 431.238C96.9591 431.238 98.0301 431.554 98.8309 432.186C99.6382 432.817 100.042 433.637 100.042 434.646H97.2195C97.2195 434.243 97.0893 433.911 96.8289 433.65C96.5685 433.383 96.1616 433.25 95.6082 433.25C95.1329 433.25 94.7651 433.357 94.5047 433.572C94.2443 433.787 94.1141 434.061 94.1141 434.393C94.1141 434.705 94.2605 434.959 94.5535 435.154C94.853 435.343 95.3543 435.509 96.0574 435.652C96.7605 435.789 97.353 435.945 97.8348 436.121C99.3257 436.668 100.071 437.615 100.071 438.963C100.071 439.926 99.6577 440.708 98.8309 441.307C98.004 441.899 96.9363 442.195 95.6277 442.195C94.7423 442.195 93.9546 442.039 93.2645 441.727C92.5809 441.408 92.0438 440.975 91.6531 440.428C91.2625 439.874 91.0672 439.279 91.0672 438.641H93.743C93.769 439.142 93.9546 439.526 94.2996 439.793C94.6447 440.06 95.1069 440.193 95.6863 440.193C96.2267 440.193 96.6336 440.092 96.907 439.891C97.187 439.682 97.327 439.412 97.327 439.08ZM107.62 442C107.49 441.746 107.396 441.43 107.337 441.053C106.654 441.814 105.765 442.195 104.671 442.195C103.636 442.195 102.777 441.896 102.093 441.297C101.416 440.698 101.077 439.943 101.077 439.031C101.077 437.911 101.491 437.052 102.318 436.453C103.151 435.854 104.352 435.551 105.921 435.545H107.22V434.939C107.22 434.451 107.093 434.061 106.839 433.768C106.592 433.475 106.198 433.328 105.657 433.328C105.182 433.328 104.808 433.442 104.534 433.67C104.267 433.898 104.134 434.21 104.134 434.607H101.312C101.312 433.995 101.501 433.429 101.878 432.908C102.256 432.387 102.79 431.98 103.48 431.688C104.17 431.388 104.945 431.238 105.804 431.238C107.106 431.238 108.138 431.567 108.9 432.225C109.668 432.876 110.052 433.794 110.052 434.979V439.559C110.058 440.561 110.198 441.32 110.472 441.834V442H107.62ZM105.286 440.037C105.703 440.037 106.087 439.946 106.439 439.764C106.79 439.575 107.051 439.324 107.22 439.012V437.195H106.165C104.752 437.195 104.001 437.684 103.909 438.66L103.9 438.826C103.9 439.178 104.023 439.467 104.271 439.695C104.518 439.923 104.857 440.037 105.286 440.037ZM121.341 436.814C121.341 438.507 120.98 439.829 120.257 440.779C119.535 441.723 118.526 442.195 117.23 442.195C116.084 442.195 115.17 441.756 114.486 440.877L114.359 442H111.82V427H114.642V432.381C115.293 431.619 116.149 431.238 117.211 431.238C118.5 431.238 119.509 431.714 120.238 432.664C120.974 433.608 121.341 434.939 121.341 436.658V436.814ZM118.519 436.609C118.519 435.542 118.35 434.764 118.011 434.275C117.673 433.781 117.168 433.533 116.498 433.533C115.599 433.533 114.981 433.901 114.642 434.637V438.807C114.987 439.549 115.612 439.92 116.517 439.92C117.429 439.92 118.028 439.471 118.314 438.572C118.451 438.143 118.519 437.488 118.519 436.609ZM125.668 442H122.836V431.434H125.668V442ZM122.67 428.699C122.67 428.276 122.81 427.928 123.09 427.654C123.376 427.381 123.764 427.244 124.252 427.244C124.734 427.244 125.118 427.381 125.404 427.654C125.691 427.928 125.834 428.276 125.834 428.699C125.834 429.129 125.688 429.48 125.395 429.754C125.108 430.027 124.727 430.164 124.252 430.164C123.777 430.164 123.393 430.027 123.1 429.754C122.813 429.48 122.67 429.129 122.67 428.699ZM130.58 442H127.748V427H130.58V442ZM135.493 442H132.661V431.434H135.493V442ZM132.495 428.699C132.495 428.276 132.635 427.928 132.915 427.654C133.201 427.381 133.589 427.244 134.077 427.244C134.559 427.244 134.943 427.381 135.229 427.654C135.516 427.928 135.659 428.276 135.659 428.699C135.659 429.129 135.513 429.48 135.22 429.754C134.933 430.027 134.552 430.164 134.077 430.164C133.602 430.164 133.218 430.027 132.925 429.754C132.638 429.48 132.495 429.129 132.495 428.699ZM140.806 428.836V431.434H142.612V433.504H140.806V438.777C140.806 439.168 140.881 439.448 141.03 439.617C141.18 439.786 141.467 439.871 141.89 439.871C142.202 439.871 142.479 439.848 142.72 439.803V441.941C142.167 442.111 141.597 442.195 141.011 442.195C139.032 442.195 138.023 441.196 137.984 439.197V433.504H136.441V431.434H137.984V428.836H140.806ZM147.73 438.006L149.683 431.434H152.711L148.463 443.641L148.228 444.197C147.597 445.577 146.555 446.268 145.103 446.268C144.693 446.268 144.276 446.206 143.853 446.082V443.943L144.283 443.953C144.817 443.953 145.214 443.872 145.474 443.709C145.741 443.546 145.949 443.276 146.099 442.898L146.431 442.029L142.73 431.434H145.767L147.73 438.006ZM158.912 437.049H153.414V434.773H158.912V437.049ZM172.125 437.264C172.015 438.794 171.448 439.998 170.426 440.877C169.411 441.756 168.069 442.195 166.403 442.195C164.58 442.195 163.144 441.583 162.096 440.359C161.054 439.129 160.534 437.443 160.534 435.301V434.432C160.534 433.064 160.774 431.86 161.256 430.818C161.738 429.777 162.425 428.979 163.317 428.426C164.215 427.866 165.257 427.586 166.442 427.586C168.082 427.586 169.404 428.025 170.407 428.904C171.409 429.783 171.989 431.017 172.145 432.605H169.215C169.144 431.688 168.886 431.023 168.444 430.613C168.008 430.197 167.34 429.988 166.442 429.988C165.465 429.988 164.733 430.34 164.245 431.043C163.763 431.74 163.515 432.824 163.502 434.295V435.369C163.502 436.906 163.733 438.029 164.196 438.738C164.664 439.448 165.4 439.803 166.403 439.803C167.308 439.803 167.982 439.598 168.424 439.188C168.873 438.771 169.131 438.13 169.196 437.264H172.125ZM173.024 436.619C173.024 435.571 173.226 434.637 173.63 433.816C174.033 432.996 174.613 432.361 175.368 431.912C176.13 431.463 177.012 431.238 178.014 431.238C179.44 431.238 180.602 431.674 181.501 432.547C182.406 433.419 182.91 434.604 183.014 436.102L183.034 436.824C183.034 438.445 182.582 439.747 181.677 440.73C180.772 441.707 179.557 442.195 178.034 442.195C176.511 442.195 175.293 441.707 174.382 440.73C173.477 439.754 173.024 438.426 173.024 436.746V436.619ZM175.846 436.824C175.846 437.827 176.035 438.595 176.413 439.129C176.79 439.656 177.331 439.92 178.034 439.92C178.718 439.92 179.251 439.66 179.636 439.139C180.02 438.611 180.212 437.771 180.212 436.619C180.212 435.636 180.02 434.874 179.636 434.334C179.251 433.794 178.711 433.523 178.014 433.523C177.324 433.523 176.79 433.794 176.413 434.334C176.035 434.868 175.846 435.698 175.846 436.824ZM188.171 438.553L190.134 431.434H193.083L189.519 442H186.823L183.259 431.434H186.208L188.171 438.553ZM198.66 442.195C197.11 442.195 195.847 441.72 194.871 440.77C193.901 439.819 193.416 438.553 193.416 436.971V436.697C193.416 435.636 193.621 434.689 194.031 433.855C194.441 433.016 195.02 432.371 195.769 431.922C196.524 431.466 197.384 431.238 198.347 431.238C199.793 431.238 200.929 431.694 201.755 432.605C202.589 433.517 203.005 434.809 203.005 436.482V437.635H196.277C196.368 438.325 196.642 438.878 197.097 439.295C197.56 439.712 198.142 439.92 198.845 439.92C199.933 439.92 200.782 439.526 201.394 438.738L202.781 440.291C202.358 440.89 201.785 441.359 201.062 441.697C200.339 442.029 199.539 442.195 198.66 442.195ZM198.338 433.523C197.778 433.523 197.322 433.712 196.97 434.09C196.625 434.467 196.404 435.008 196.306 435.711H200.232V435.486C200.219 434.861 200.05 434.38 199.724 434.041C199.399 433.696 198.936 433.523 198.338 433.523ZM210.154 434.08C209.77 434.028 209.432 434.002 209.139 434.002C208.071 434.002 207.371 434.363 207.039 435.086V442H204.217V431.434H206.883L206.961 432.693C207.527 431.723 208.312 431.238 209.314 431.238C209.627 431.238 209.92 431.281 210.193 431.365L210.154 434.08Z" fill="#333E48"/>
<path fill-rule="evenodd" clip-rule="evenodd" d="M40.7809 432.614C40.9013 432.421 41.0982 432.421 41.219 432.614L43.9983 437.07C44.1191 437.263 44.0218 437.421 43.7828 437.421H38.2176C37.9786 437.421 37.8812 437.263 38.0016 437.07L40.7809 432.614ZM41.219 423.144C41.0986 422.952 40.9013 422.952 40.7809 423.144L29.0517 441.945C28.9314 442.138 29.0283 442.296 29.2673 442.296H52.7326C52.9721 442.296 53.0685 442.138 52.9482 441.945L41.219 423.144Z" fill="url(#paint8_linear)"/>
<path opacity="0.5" fill-rule="evenodd" clip-rule="evenodd" d="M40.7801 432.614C40.9005 432.421 41.0974 432.421 41.2182 432.614L43.9975 437.069C44.1183 437.262 44.021 437.42 43.782 437.42H38.2168C37.9778 437.42 37.8804 437.262 38.0008 437.069L40.7801 432.614ZM41.2182 430.195C41.0974 430.002 40.9005 430.002 40.7801 430.195L35.7316 438.288C35.6108 438.481 35.7082 438.639 35.9472 438.639H46.052C46.291 438.639 46.3879 438.481 46.2676 438.288L41.2182 430.195Z" fill="url(#paint9_linear)"/>
<rect x="0.25" y="494.25" width="342.5" height="74.5" rx="4.75" fill="white" stroke="#EBEEF1" stroke-width="0.5"/>
<path d="M74.2695 541V526.781H78.6445C79.8945 526.781 81.0111 527.064 81.9941 527.631C82.9837 528.191 83.7552 528.992 84.3086 530.033C84.862 531.068 85.1387 532.247 85.1387 533.568V534.223C85.1387 535.544 84.8652 536.719 84.3184 537.748C83.778 538.777 83.013 539.574 82.0234 540.141C81.0339 540.707 79.9173 540.993 78.6738 541H74.2695ZM77.1992 529.154V538.646H78.6152C79.7611 538.646 80.6367 538.272 81.2422 537.523C81.8477 536.775 82.1569 535.704 82.1699 534.311V533.559C82.1699 532.113 81.8704 531.02 81.2715 530.277C80.6725 529.529 79.7969 529.154 78.6445 529.154H77.1992ZM91.5551 541.195C90.0056 541.195 88.7426 540.72 87.766 539.77C86.796 538.819 86.3109 537.553 86.3109 535.971V535.697C86.3109 534.636 86.516 533.689 86.9262 532.855C87.3363 532.016 87.9158 531.371 88.6645 530.922C89.4197 530.466 90.279 530.238 91.2426 530.238C92.6879 530.238 93.824 530.694 94.6508 531.605C95.4841 532.517 95.9008 533.809 95.9008 535.482V536.635H89.1723C89.2634 537.325 89.5368 537.878 89.9926 538.295C90.4548 538.712 91.0375 538.92 91.7406 538.92C92.8279 538.92 93.6775 538.526 94.2895 537.738L95.6762 539.291C95.253 539.89 94.6801 540.359 93.9574 540.697C93.2348 541.029 92.434 541.195 91.5551 541.195ZM91.2328 532.523C90.6729 532.523 90.2172 532.712 89.8656 533.09C89.5206 533.467 89.2992 534.008 89.2016 534.711H93.1273V534.486C93.1143 533.861 92.9451 533.38 92.6195 533.041C92.294 532.696 91.8318 532.523 91.2328 532.523ZM103.235 541C103.105 540.746 103.011 540.43 102.952 540.053C102.268 540.814 101.38 541.195 100.286 541.195C99.2508 541.195 98.3914 540.896 97.7078 540.297C97.0307 539.698 96.6922 538.943 96.6922 538.031C96.6922 536.911 97.1056 536.052 97.9324 535.453C98.7658 534.854 99.9669 534.551 101.536 534.545H102.835V533.939C102.835 533.451 102.708 533.061 102.454 532.768C102.207 532.475 101.813 532.328 101.272 532.328C100.797 532.328 100.423 532.442 100.149 532.67C99.8823 532.898 99.7488 533.21 99.7488 533.607H96.9266C96.9266 532.995 97.1154 532.429 97.493 531.908C97.8706 531.387 98.4044 530.98 99.0945 530.688C99.7846 530.388 100.559 530.238 101.419 530.238C102.721 530.238 103.753 530.567 104.514 531.225C105.283 531.876 105.667 532.794 105.667 533.979V538.559C105.673 539.561 105.813 540.32 106.087 540.834V541H103.235ZM100.901 539.037C101.318 539.037 101.702 538.946 102.054 538.764C102.405 538.575 102.665 538.324 102.835 538.012V536.195H101.78C100.367 536.195 99.6154 536.684 99.5242 537.66L99.5145 537.826C99.5145 538.178 99.6382 538.467 99.8855 538.695C100.133 538.923 100.471 539.037 100.901 539.037ZM110.814 527.836V530.434H112.62V532.504H110.814V537.777C110.814 538.168 110.889 538.448 111.038 538.617C111.188 538.786 111.474 538.871 111.898 538.871C112.21 538.871 112.487 538.848 112.728 538.803V540.941C112.174 541.111 111.605 541.195 111.019 541.195C109.04 541.195 108.03 540.196 107.991 538.197V532.504H106.448V530.434H107.991V527.836H110.814ZM116.546 531.586C117.295 530.688 118.236 530.238 119.369 530.238C121.66 530.238 122.823 531.57 122.855 534.232V541H120.033V534.311C120.033 533.705 119.903 533.259 119.642 532.973C119.382 532.68 118.949 532.533 118.343 532.533C117.517 532.533 116.918 532.852 116.546 533.49V541H113.724V526H116.546V531.586ZM130.072 536.049H124.574V533.773H130.072V536.049ZM135.239 541H132.309V526.781H135.239V541ZM139.975 530.434L140.063 531.654C140.818 530.71 141.831 530.238 143.1 530.238C144.22 530.238 145.054 530.567 145.6 531.225C146.147 531.882 146.427 532.865 146.44 534.174V541H143.618V534.242C143.618 533.643 143.488 533.21 143.227 532.943C142.967 532.67 142.534 532.533 141.929 532.533C141.134 532.533 140.539 532.872 140.141 533.549V541H137.319V530.434H139.975ZM152.583 538.92C153.104 538.92 153.527 538.777 153.853 538.49C154.178 538.204 154.348 537.823 154.361 537.348H157.007C157.001 538.064 156.805 538.721 156.421 539.32C156.037 539.913 155.51 540.375 154.839 540.707C154.175 541.033 153.439 541.195 152.632 541.195C151.122 541.195 149.93 540.717 149.058 539.76C148.185 538.796 147.749 537.468 147.749 535.775V535.59C147.749 533.962 148.182 532.663 149.048 531.693C149.914 530.723 151.102 530.238 152.613 530.238C153.934 530.238 154.992 530.616 155.786 531.371C156.587 532.12 156.994 533.119 157.007 534.369H154.361C154.348 533.822 154.178 533.38 153.853 533.041C153.527 532.696 153.098 532.523 152.564 532.523C151.906 532.523 151.408 532.764 151.07 533.246C150.738 533.721 150.571 534.496 150.571 535.57V535.863C150.571 536.951 150.738 537.732 151.07 538.207C151.402 538.682 151.906 538.92 152.583 538.92ZM157.779 535.619C157.779 534.571 157.981 533.637 158.384 532.816C158.788 531.996 159.367 531.361 160.123 530.912C160.884 530.463 161.767 530.238 162.769 530.238C164.195 530.238 165.357 530.674 166.255 531.547C167.16 532.419 167.665 533.604 167.769 535.102L167.789 535.824C167.789 537.445 167.336 538.747 166.431 539.73C165.526 540.707 164.312 541.195 162.789 541.195C161.265 541.195 160.048 540.707 159.136 539.73C158.231 538.754 157.779 537.426 157.779 535.746V535.619ZM160.601 535.824C160.601 536.827 160.79 537.595 161.168 538.129C161.545 538.656 162.086 538.92 162.789 538.92C163.472 538.92 164.006 538.66 164.39 538.139C164.774 537.611 164.966 536.771 164.966 535.619C164.966 534.636 164.774 533.874 164.39 533.334C164.006 532.794 163.466 532.523 162.769 532.523C162.079 532.523 161.545 532.794 161.168 533.334C160.79 533.868 160.601 534.698 160.601 535.824ZM171.773 530.434L171.861 531.615C172.61 530.697 173.622 530.238 174.898 530.238C176.259 530.238 177.193 530.775 177.701 531.85C178.443 530.775 179.501 530.238 180.875 530.238C182.021 530.238 182.874 530.574 183.434 531.244C183.993 531.908 184.273 532.911 184.273 534.252V541H181.441V534.262C181.441 533.663 181.324 533.227 181.09 532.953C180.855 532.673 180.442 532.533 179.85 532.533C179.003 532.533 178.417 532.937 178.092 533.744L178.102 541H175.279V534.271C175.279 533.66 175.159 533.217 174.918 532.943C174.677 532.67 174.267 532.533 173.688 532.533C172.887 532.533 172.307 532.865 171.949 533.529V541H169.127V530.434H171.773ZM190.914 541.195C189.365 541.195 188.102 540.72 187.125 539.77C186.155 538.819 185.67 537.553 185.67 535.971V535.697C185.67 534.636 185.875 533.689 186.286 532.855C186.696 532.016 187.275 531.371 188.024 530.922C188.779 530.466 189.638 530.238 190.602 530.238C192.047 530.238 193.183 530.694 194.01 531.605C194.843 532.517 195.26 533.809 195.26 535.482V536.635H188.532C188.623 537.325 188.896 537.878 189.352 538.295C189.814 538.712 190.397 538.92 191.1 538.92C192.187 538.92 193.037 538.526 193.649 537.738L195.036 539.291C194.612 539.89 194.039 540.359 193.317 540.697C192.594 541.029 191.793 541.195 190.914 541.195ZM190.592 532.523C190.032 532.523 189.577 532.712 189.225 533.09C188.88 533.467 188.659 534.008 188.561 534.711H192.487V534.486C192.474 533.861 192.304 533.38 191.979 533.041C191.653 532.696 191.191 532.523 190.592 532.523ZM204.167 535.99V541H201.238V526.781H206.784C207.852 526.781 208.79 526.977 209.597 527.367C210.411 527.758 211.036 528.314 211.472 529.037C211.908 529.753 212.126 530.57 212.126 531.488C212.126 532.882 211.648 533.982 210.691 534.789C209.74 535.59 208.422 535.99 206.736 535.99H204.167ZM204.167 533.617H206.784C207.559 533.617 208.148 533.435 208.552 533.07C208.962 532.706 209.167 532.185 209.167 531.508C209.167 530.811 208.962 530.248 208.552 529.818C208.142 529.389 207.575 529.167 206.853 529.154H204.167V533.617ZM219.5 533.08C219.115 533.028 218.777 533.002 218.484 533.002C217.416 533.002 216.716 533.363 216.384 534.086V541H213.562V530.434H216.228L216.306 531.693C216.873 530.723 217.657 530.238 218.66 530.238C218.972 530.238 219.265 530.281 219.539 530.365L219.5 533.08ZM219.676 535.619C219.676 534.571 219.878 533.637 220.281 532.816C220.685 531.996 221.264 531.361 222.02 530.912C222.781 530.463 223.663 530.238 224.666 530.238C226.092 530.238 227.254 530.674 228.152 531.547C229.057 532.419 229.562 533.604 229.666 535.102L229.686 535.824C229.686 537.445 229.233 538.747 228.328 539.73C227.423 540.707 226.209 541.195 224.686 541.195C223.162 541.195 221.945 540.707 221.033 539.73C220.128 538.754 219.676 537.426 219.676 535.746V535.619ZM222.498 535.824C222.498 536.827 222.687 537.595 223.064 538.129C223.442 538.656 223.982 538.92 224.686 538.92C225.369 538.92 225.903 538.66 226.287 538.139C226.671 537.611 226.863 536.771 226.863 535.619C226.863 534.636 226.671 533.874 226.287 533.334C225.903 532.794 225.363 532.523 224.666 532.523C223.976 532.523 223.442 532.794 223.064 533.334C222.687 533.868 222.498 534.698 222.498 535.824ZM234.403 527.836V530.434H236.209V532.504H234.403V537.777C234.403 538.168 234.478 538.448 234.627 538.617C234.777 538.786 235.064 538.871 235.487 538.871C235.799 538.871 236.076 538.848 236.317 538.803V540.941C235.763 541.111 235.194 541.195 234.608 541.195C232.629 541.195 231.62 540.196 231.58 538.197V532.504H230.038V530.434H231.58V527.836H234.403ZM242.245 541.195C240.695 541.195 239.432 540.72 238.456 539.77C237.486 538.819 237.001 537.553 237.001 535.971V535.697C237.001 534.636 237.206 533.689 237.616 532.855C238.026 532.016 238.606 531.371 239.354 530.922C240.11 530.466 240.969 530.238 241.932 530.238C243.378 530.238 244.514 530.694 245.341 531.605C246.174 532.517 246.591 533.809 246.591 535.482V536.635H239.862C239.953 537.325 240.227 537.878 240.682 538.295C241.145 538.712 241.727 538.92 242.43 538.92C243.518 538.92 244.367 538.526 244.979 537.738L246.366 539.291C245.943 539.89 245.37 540.359 244.647 540.697C243.925 541.029 243.124 541.195 242.245 541.195ZM241.923 532.523C241.363 532.523 240.907 532.712 240.555 533.09C240.21 533.467 239.989 534.008 239.891 534.711H243.817V534.486C243.804 533.861 243.635 533.38 243.309 533.041C242.984 532.696 242.522 532.523 241.923 532.523ZM252.196 538.92C252.717 538.92 253.14 538.777 253.466 538.49C253.792 538.204 253.961 537.823 253.974 537.348H256.62C256.614 538.064 256.418 538.721 256.034 539.32C255.65 539.913 255.123 540.375 254.452 540.707C253.788 541.033 253.053 541.195 252.245 541.195C250.735 541.195 249.543 540.717 248.671 539.76C247.799 538.796 247.363 537.468 247.363 535.775V535.59C247.363 533.962 247.795 532.663 248.661 531.693C249.527 530.723 250.715 530.238 252.226 530.238C253.547 530.238 254.605 530.616 255.4 531.371C256.2 532.12 256.607 533.119 256.62 534.369H253.974C253.961 533.822 253.792 533.38 253.466 533.041C253.14 532.696 252.711 532.523 252.177 532.523C251.519 532.523 251.021 532.764 250.683 533.246C250.351 533.721 250.185 534.496 250.185 535.57V535.863C250.185 536.951 250.351 537.732 250.683 538.207C251.015 538.682 251.519 538.92 252.196 538.92ZM261.211 527.836V530.434H263.017V532.504H261.211V537.777C261.211 538.168 261.285 538.448 261.435 538.617C261.585 538.786 261.871 538.871 262.295 538.871C262.607 538.871 262.884 538.848 263.125 538.803V540.941C262.571 541.111 262.002 541.195 261.416 541.195C259.436 541.195 258.427 540.196 258.388 538.197V532.504H256.845V530.434H258.388V527.836H261.211ZM267.168 541H264.336V530.434H267.168V541ZM264.17 527.699C264.17 527.276 264.31 526.928 264.59 526.654C264.876 526.381 265.264 526.244 265.752 526.244C266.234 526.244 266.618 526.381 266.904 526.654C267.191 526.928 267.334 527.276 267.334 527.699C267.334 528.129 267.188 528.48 266.895 528.754C266.608 529.027 266.227 529.164 265.752 529.164C265.277 529.164 264.893 529.027 264.6 528.754C264.313 528.48 264.17 528.129 264.17 527.699ZM268.663 535.619C268.663 534.571 268.864 533.637 269.268 532.816C269.672 531.996 270.251 531.361 271.006 530.912C271.768 530.463 272.65 530.238 273.653 530.238C275.079 530.238 276.241 530.674 277.139 531.547C278.044 532.419 278.549 533.604 278.653 535.102L278.672 535.824C278.672 537.445 278.22 538.747 277.315 539.73C276.41 540.707 275.196 541.195 273.672 541.195C272.149 541.195 270.931 540.707 270.02 539.73C269.115 538.754 268.663 537.426 268.663 535.746V535.619ZM271.485 535.824C271.485 536.827 271.674 537.595 272.051 538.129C272.429 538.656 272.969 538.92 273.672 538.92C274.356 538.92 274.89 538.66 275.274 538.139C275.658 537.611 275.85 536.771 275.85 535.619C275.85 534.636 275.658 533.874 275.274 533.334C274.89 532.794 274.349 532.523 273.653 532.523C272.963 532.523 272.429 532.794 272.051 533.334C271.674 533.868 271.485 534.698 271.485 535.824ZM282.608 530.434L282.696 531.654C283.451 530.71 284.464 530.238 285.733 530.238C286.853 530.238 287.686 530.567 288.233 531.225C288.78 531.882 289.06 532.865 289.073 534.174V541H286.251V534.242C286.251 533.643 286.121 533.21 285.86 532.943C285.6 532.67 285.167 532.533 284.561 532.533C283.767 532.533 283.171 532.872 282.774 533.549V541H279.952V530.434H282.608Z" fill="#333E48"/>
<path fill-rule="evenodd" clip-rule="evenodd" d="M43.3329 537.57C43.1496 537.743 42.8498 537.743 42.6665 537.57L39.468 534.558C39.2847 534.385 39.2847 534.102 39.468 533.93L42.6665 530.918C42.8498 530.745 43.1496 530.745 43.3329 530.918L46.5314 533.93C46.7147 534.102 46.7147 534.385 46.5314 534.558L43.3329 537.57ZM43.3334 522.129C43.1496 521.957 42.8503 521.957 42.667 522.129L30.1378 533.93C29.9541 534.102 29.9541 534.385 30.1378 534.558L42.667 546.358C42.8503 546.53 43.1496 546.53 43.3334 546.358L55.8625 534.558C56.0458 534.385 56.0458 534.102 55.8625 533.93L43.3334 522.129Z" fill="url(#paint10_linear)"/>
<path opacity="0.5" fill-rule="evenodd" clip-rule="evenodd" d="M39.4679 534.558C39.2846 534.385 39.2846 534.103 39.4679 533.93L42.6664 530.918C42.8497 530.745 43.1494 530.745 43.3328 530.918L46.5313 533.93C46.7146 534.103 46.7146 534.385 46.5313 534.558L43.3328 537.57C43.1494 537.743 42.8497 537.743 42.6664 537.57L39.4679 534.558ZM43.3328 529.035C43.1494 528.862 42.8497 528.862 42.6664 529.035L37.4683 533.93C37.285 534.103 37.285 534.385 37.4683 534.558L42.6664 539.453C42.8497 539.626 43.1494 539.626 43.3328 539.453L48.5308 534.558C48.7142 534.385 48.7142 534.103 48.5308 533.93L43.3328 529.035Z" fill="url(#paint11_linear)"/>
<defs>
<linearGradient id="paint0_linear" x1="29" y1="26.7565" x2="50.4175" y2="50.4272" gradientUnits="userSpaceOnUse">
<stop stop-color="#8BC1E6"/>
<stop offset="1" stop-color="#0175C9"/>
</linearGradient>
<linearGradient id="paint1_linear" x1="47.0172" y1="41.7354" x2="39.6176" y2="32.0732" gradientUnits="userSpaceOnUse">
<stop stop-color="#8BC1E6"/>
<stop offset="1" stop-color="#0175C9"/>
</linearGradient>
<linearGradient id="paint2_linear" x1="27.9277" y1="122.155" x2="52.6052" y2="149.514" gradientUnits="userSpaceOnUse">
<stop stop-color="#8BC1E6"/>
<stop offset="1" stop-color="#0175C9"/>
</linearGradient>
<linearGradient id="paint3_linear" x1="48.5994" y1="142.39" x2="36.7016" y2="129.665" gradientUnits="userSpaceOnUse">
<stop stop-color="#8BC1E6"/>
<stop offset="1" stop-color="#0175C9"/>
</linearGradient>
<linearGradient id="paint4_linear" x1="32.7799" y1="224.928" x2="55.5996" y2="249.887" gradientUnits="userSpaceOnUse">
<stop stop-color="#8BC1E6"/>
<stop offset="1" stop-color="#0175C9"/>
</linearGradient>
<linearGradient id="paint5_linear" x1="50.9492" y1="244.551" x2="44.6745" y2="238.174" gradientUnits="userSpaceOnUse">
<stop stop-color="#8BC1E6"/>
<stop offset="1" stop-color="#0175C9"/>
</linearGradient>
<linearGradient id="paint6_linear" x1="29" y1="321.945" x2="49.2824" y2="344.967" gradientUnits="userSpaceOnUse">
<stop stop-color="#8BC1E6"/>
<stop offset="1" stop-color="#0175C9"/>
</linearGradient>
<linearGradient id="paint7_linear" x1="45.4965" y1="339.135" x2="37.0167" y2="330.243" gradientUnits="userSpaceOnUse">
<stop stop-color="#8BC1E6"/>
<stop offset="1" stop-color="#0175C9"/>
</linearGradient>
<linearGradient id="paint8_linear" x1="29" y1="424.217" x2="48.3994" y2="445.327" gradientUnits="userSpaceOnUse">
<stop stop-color="#8BC1E6"/>
<stop offset="1" stop-color="#0175C9"/>
</linearGradient>
<linearGradient id="paint9_linear" x1="46.3193" y1="437.546" x2="39.591" y2="432.557" gradientUnits="userSpaceOnUse">
<stop stop-color="#8BC1E6"/>
<stop offset="1" stop-color="#0175C9"/>
</linearGradient>
<linearGradient id="paint10_linear" x1="30" y1="522.001" x2="51.0458" y2="543.921" gradientUnits="userSpaceOnUse">
<stop stop-color="#8BC1E6"/>
<stop offset="1" stop-color="#0175C9"/>
</linearGradient>
<linearGradient id="paint11_linear" x1="46.4225" y1="536.831" x2="40.251" y2="530.723" gradientUnits="userSpaceOnUse">
<stop stop-color="#8BC1E6"/>
<stop offset="1" stop-color="#0175C9"/>
</linearGradient>
</defs>
</svg>
