<svg width="35" height="34" viewBox="0 0 35 34" fill="none" xmlns="http://www.w3.org/2000/svg">
<g clip-path="url(#clip0)">
<path d="M30.1647 0.755371H3.30066C1.81777 0.755371 0.614258 2.09192 0.614258 3.73874V30.5891C0.614258 32.2359 1.81777 33.5724 3.30066 33.5724H5.98707V36.5558H11.3599V33.5724H22.1055V36.5558H27.4783V33.5724H30.1647C31.6476 33.5724 32.8511 32.2359 32.8511 30.5891V3.73874C32.8511 2.09192 31.6476 0.755371 30.1647 0.755371ZM26.1351 17.1639C26.1351 19.3403 25.6018 21.3734 24.6858 23.1306H27.4783C28.2197 23.1306 28.8215 23.7989 28.8215 24.6223C28.8215 25.4457 28.2197 26.114 27.4783 26.114H22.4802C20.5877 27.9652 18.1108 29.0974 15.3895 29.0974C9.45521 29.0974 4.64386 23.7542 4.64386 17.1639C4.64386 10.5736 9.45521 5.23042 15.3895 5.23042C18.1108 5.23042 20.5877 6.36261 22.4802 8.21379H27.4783C28.2197 8.21379 28.8215 8.88207 28.8215 9.70548C28.8215 10.5289 28.2197 11.1972 27.4783 11.1972H24.6858C25.6018 12.9544 26.1351 14.9875 26.1351 17.1639ZM15.3895 8.21379C10.9395 8.21379 7.33027 12.2219 7.33027 17.1639C7.33027 22.1058 10.9395 26.114 15.3895 26.114C19.8395 26.114 23.4487 22.1058 23.4487 17.1639C23.4487 12.2219 19.8395 8.21379 15.3895 8.21379ZM15.3895 20.1473C13.9066 20.1473 12.7031 18.8107 12.7031 17.1639C12.7031 15.5171 13.9066 14.1805 15.3895 14.1805C16.8724 14.1805 18.0759 15.5171 18.0759 17.1639C18.0759 18.8107 16.8724 20.1473 15.3895 20.1473Z" fill="#0075C9"/>
</g>
<defs>
<clipPath id="clip0">
<rect width="35" height="34" fill="white"/>
</clipPath>
</defs>
</svg>
