<svg width="410" height="641" viewBox="0 0 410 641" fill="none" xmlns="http://www.w3.org/2000/svg">
<rect x="0.25" y="0.25" width="409.5" height="89.5" rx="4.75" fill="white" stroke="#EBEEF1" stroke-width="0.5"/>
<rect x="0.25" y="110.25" width="409.5" height="89.5" rx="4.75" fill="white" stroke="#EBEEF1" stroke-width="0.5"/>
<rect x="0.25" y="219.25" width="409.5" height="90.5" rx="4.75" fill="white" stroke="#EBEEF1" stroke-width="0.5"/>
<rect x="0.25" y="330.25" width="409.5" height="90.5" rx="4.75" fill="white" stroke="#EBEEF1" stroke-width="0.5"/>
<rect x="0.25" y="440.25" width="409.5" height="90.5" rx="4.75" fill="white" stroke="#EBEEF1" stroke-width="0.5"/>
<rect x="0.25" y="550.25" width="409.5" height="90.5" rx="4.75" fill="white" stroke="#EBEEF1" stroke-width="0.5"/>
<path d="M91.2695 600V585.781H95.6445C96.8945 585.781 98.0111 586.064 98.9941 586.631C99.9837 587.191 100.755 587.992 101.309 589.033C101.862 590.068 102.139 591.247 102.139 592.568V593.223C102.139 594.544 101.865 595.719 101.318 596.748C100.778 597.777 100.013 598.574 99.0234 599.141C98.0339 599.707 96.9173 599.993 95.6738 600H91.2695ZM94.1992 588.154V597.646H95.6152C96.7611 597.646 97.6367 597.272 98.2422 596.523C98.8477 595.775 99.1569 594.704 99.1699 593.311V592.559C99.1699 591.113 98.8704 590.02 98.2715 589.277C97.6725 588.529 96.7969 588.154 95.6445 588.154H94.1992ZM108.555 600.195C107.006 600.195 105.743 599.72 104.766 598.77C103.796 597.819 103.311 596.553 103.311 594.971V594.697C103.311 593.636 103.516 592.689 103.926 591.855C104.336 591.016 104.916 590.371 105.664 589.922C106.42 589.466 107.279 589.238 108.243 589.238C109.688 589.238 110.824 589.694 111.651 590.605C112.484 591.517 112.901 592.809 112.901 594.482V595.635H106.172C106.263 596.325 106.537 596.878 106.993 597.295C107.455 597.712 108.038 597.92 108.741 597.92C109.828 597.92 110.677 597.526 111.289 596.738L112.676 598.291C112.253 598.89 111.68 599.359 110.957 599.697C110.235 600.029 109.434 600.195 108.555 600.195ZM108.233 591.523C107.673 591.523 107.217 591.712 106.866 592.09C106.521 592.467 106.299 593.008 106.202 593.711H110.127V593.486C110.114 592.861 109.945 592.38 109.62 592.041C109.294 591.696 108.832 591.523 108.233 591.523ZM120.235 600C120.105 599.746 120.011 599.43 119.952 599.053C119.268 599.814 118.38 600.195 117.286 600.195C116.251 600.195 115.391 599.896 114.708 599.297C114.031 598.698 113.692 597.943 113.692 597.031C113.692 595.911 114.106 595.052 114.932 594.453C115.766 593.854 116.967 593.551 118.536 593.545H119.835V592.939C119.835 592.451 119.708 592.061 119.454 591.768C119.207 591.475 118.813 591.328 118.272 591.328C117.797 591.328 117.423 591.442 117.149 591.67C116.882 591.898 116.749 592.21 116.749 592.607H113.927C113.927 591.995 114.115 591.429 114.493 590.908C114.871 590.387 115.404 589.98 116.095 589.688C116.785 589.388 117.559 589.238 118.419 589.238C119.721 589.238 120.753 589.567 121.514 590.225C122.283 590.876 122.667 591.794 122.667 592.979V597.559C122.673 598.561 122.813 599.32 123.087 599.834V600H120.235ZM117.901 598.037C118.318 598.037 118.702 597.946 119.054 597.764C119.405 597.575 119.665 597.324 119.835 597.012V595.195H118.78C117.367 595.195 116.615 595.684 116.524 596.66L116.514 596.826C116.514 597.178 116.638 597.467 116.886 597.695C117.133 597.923 117.471 598.037 117.901 598.037ZM127.814 586.836V589.434H129.62V591.504H127.814V596.777C127.814 597.168 127.889 597.448 128.038 597.617C128.188 597.786 128.474 597.871 128.898 597.871C129.21 597.871 129.487 597.848 129.728 597.803V599.941C129.174 600.111 128.605 600.195 128.019 600.195C126.04 600.195 125.03 599.196 124.991 597.197V591.504H123.448V589.434H124.991V586.836H127.814ZM133.546 590.586C134.295 589.688 135.236 589.238 136.369 589.238C138.66 589.238 139.823 590.57 139.855 593.232V600H137.033V593.311C137.033 592.705 136.903 592.259 136.642 591.973C136.382 591.68 135.949 591.533 135.343 591.533C134.517 591.533 133.918 591.852 133.546 592.49V600H130.724V585H133.546V590.586ZM149.465 600H146.536V585.781H149.465V600ZM154.202 589.434L154.29 590.654C155.045 589.71 156.057 589.238 157.327 589.238C158.447 589.238 159.28 589.567 159.827 590.225C160.374 590.882 160.654 591.865 160.667 593.174V600H157.845V593.242C157.845 592.643 157.714 592.21 157.454 591.943C157.193 591.67 156.761 591.533 156.155 591.533C155.361 591.533 154.765 591.872 154.368 592.549V600H151.546V589.434H154.202ZM166.81 597.92C167.331 597.92 167.754 597.777 168.079 597.49C168.405 597.204 168.574 596.823 168.587 596.348H171.234C171.227 597.064 171.032 597.721 170.648 598.32C170.264 598.913 169.736 599.375 169.066 599.707C168.402 600.033 167.666 600.195 166.859 600.195C165.348 600.195 164.157 599.717 163.284 598.76C162.412 597.796 161.976 596.468 161.976 594.775V594.59C161.976 592.962 162.409 591.663 163.275 590.693C164.14 589.723 165.329 589.238 166.839 589.238C168.161 589.238 169.219 589.616 170.013 590.371C170.814 591.12 171.221 592.119 171.234 593.369H168.587C168.574 592.822 168.405 592.38 168.079 592.041C167.754 591.696 167.324 591.523 166.79 591.523C166.133 591.523 165.635 591.764 165.296 592.246C164.964 592.721 164.798 593.496 164.798 594.57V594.863C164.798 595.951 164.964 596.732 165.296 597.207C165.628 597.682 166.133 597.92 166.81 597.92ZM172.005 594.619C172.005 593.571 172.207 592.637 172.611 591.816C173.015 590.996 173.594 590.361 174.349 589.912C175.111 589.463 175.993 589.238 176.996 589.238C178.421 589.238 179.584 589.674 180.482 590.547C181.387 591.419 181.892 592.604 181.996 594.102L182.015 594.824C182.015 596.445 181.563 597.747 180.658 598.73C179.753 599.707 178.539 600.195 177.015 600.195C175.492 600.195 174.274 599.707 173.363 598.73C172.458 597.754 172.005 596.426 172.005 594.746V594.619ZM174.828 594.824C174.828 595.827 175.017 596.595 175.394 597.129C175.772 597.656 176.312 597.92 177.015 597.92C177.699 597.92 178.233 597.66 178.617 597.139C179.001 596.611 179.193 595.771 179.193 594.619C179.193 593.636 179.001 592.874 178.617 592.334C178.233 591.794 177.692 591.523 176.996 591.523C176.306 591.523 175.772 591.794 175.394 592.334C175.017 592.868 174.828 593.698 174.828 594.824ZM186 589.434L186.088 590.615C186.837 589.697 187.849 589.238 189.125 589.238C190.486 589.238 191.42 589.775 191.928 590.85C192.67 589.775 193.728 589.238 195.102 589.238C196.247 589.238 197.1 589.574 197.66 590.244C198.22 590.908 198.5 591.911 198.5 593.252V600H195.668V593.262C195.668 592.663 195.551 592.227 195.316 591.953C195.082 591.673 194.669 591.533 194.076 591.533C193.23 591.533 192.644 591.937 192.318 592.744L192.328 600H189.506V593.271C189.506 592.66 189.385 592.217 189.145 591.943C188.904 591.67 188.493 591.533 187.914 591.533C187.113 591.533 186.534 591.865 186.176 592.529V600H183.354V589.434H186ZM205.141 600.195C203.592 600.195 202.329 599.72 201.352 598.77C200.382 597.819 199.897 596.553 199.897 594.971V594.697C199.897 593.636 200.102 592.689 200.512 591.855C200.922 591.016 201.502 590.371 202.25 589.922C203.006 589.466 203.865 589.238 204.829 589.238C206.274 589.238 207.41 589.694 208.237 590.605C209.07 591.517 209.487 592.809 209.487 594.482V595.635H202.758C202.849 596.325 203.123 596.878 203.579 597.295C204.041 597.712 204.623 597.92 205.327 597.92C206.414 597.92 207.263 597.526 207.875 596.738L209.262 598.291C208.839 598.89 208.266 599.359 207.543 599.697C206.821 600.029 206.02 600.195 205.141 600.195ZM204.819 591.523C204.259 591.523 203.803 591.712 203.452 592.09C203.107 592.467 202.885 593.008 202.787 593.711H206.713V593.486C206.7 592.861 206.531 592.38 206.205 592.041C205.88 591.696 205.418 591.523 204.819 591.523ZM218.394 594.99V600H215.464V585.781H221.011C222.079 585.781 223.016 585.977 223.823 586.367C224.637 586.758 225.262 587.314 225.698 588.037C226.135 588.753 226.353 589.57 226.353 590.488C226.353 591.882 225.874 592.982 224.917 593.789C223.967 594.59 222.648 594.99 220.962 594.99H218.394ZM218.394 592.617H221.011C221.786 592.617 222.375 592.435 222.779 592.07C223.189 591.706 223.394 591.185 223.394 590.508C223.394 589.811 223.189 589.248 222.779 588.818C222.368 588.389 221.802 588.167 221.079 588.154H218.394V592.617ZM233.726 592.08C233.342 592.028 233.004 592.002 232.711 592.002C231.643 592.002 230.943 592.363 230.611 593.086V600H227.789V589.434H230.455L230.533 590.693C231.099 589.723 231.884 589.238 232.886 589.238C233.199 589.238 233.492 589.281 233.765 589.365L233.726 592.08ZM233.902 594.619C233.902 593.571 234.104 592.637 234.508 591.816C234.911 590.996 235.491 590.361 236.246 589.912C237.008 589.463 237.89 589.238 238.893 589.238C240.318 589.238 241.48 589.674 242.379 590.547C243.284 591.419 243.788 592.604 243.893 594.102L243.912 594.824C243.912 596.445 243.46 597.747 242.555 598.73C241.65 599.707 240.436 600.195 238.912 600.195C237.389 600.195 236.171 599.707 235.26 598.73C234.355 597.754 233.902 596.426 233.902 594.746V594.619ZM236.725 594.824C236.725 595.827 236.913 596.595 237.291 597.129C237.669 597.656 238.209 597.92 238.912 597.92C239.596 597.92 240.13 597.66 240.514 597.139C240.898 596.611 241.09 595.771 241.09 594.619C241.09 593.636 240.898 592.874 240.514 592.334C240.13 591.794 239.589 591.523 238.893 591.523C238.202 591.523 237.669 591.794 237.291 592.334C236.913 592.868 236.725 593.698 236.725 594.824ZM248.629 586.836V589.434H250.436V591.504H248.629V596.777C248.629 597.168 248.704 597.448 248.854 597.617C249.004 597.786 249.29 597.871 249.713 597.871C250.026 597.871 250.302 597.848 250.543 597.803V599.941C249.99 600.111 249.42 600.195 248.834 600.195C246.855 600.195 245.846 599.196 245.807 597.197V591.504H244.264V589.434H245.807V586.836H248.629ZM256.471 600.195C254.922 600.195 253.659 599.72 252.682 598.77C251.712 597.819 251.227 596.553 251.227 594.971V594.697C251.227 593.636 251.432 592.689 251.843 591.855C252.253 591.016 252.832 590.371 253.581 589.922C254.336 589.466 255.195 589.238 256.159 589.238C257.604 589.238 258.74 589.694 259.567 590.605C260.401 591.517 260.817 592.809 260.817 594.482V595.635H254.089C254.18 596.325 254.453 596.878 254.909 597.295C255.371 597.712 255.954 597.92 256.657 597.92C257.744 597.92 258.594 597.526 259.206 596.738L260.593 598.291C260.169 598.89 259.596 599.359 258.874 599.697C258.151 600.029 257.35 600.195 256.471 600.195ZM256.149 591.523C255.589 591.523 255.134 591.712 254.782 592.09C254.437 592.467 254.216 593.008 254.118 593.711H258.044V593.486C258.031 592.861 257.861 592.38 257.536 592.041C257.21 591.696 256.748 591.523 256.149 591.523ZM266.423 597.92C266.944 597.92 267.367 597.777 267.693 597.49C268.018 597.204 268.187 596.823 268.2 596.348H270.847C270.84 597.064 270.645 597.721 270.261 598.32C269.877 598.913 269.349 599.375 268.679 599.707C268.015 600.033 267.279 600.195 266.472 600.195C264.961 600.195 263.77 599.717 262.898 598.76C262.025 597.796 261.589 596.468 261.589 594.775V594.59C261.589 592.962 262.022 591.663 262.888 590.693C263.754 589.723 264.942 589.238 266.452 589.238C267.774 589.238 268.832 589.616 269.626 590.371C270.427 591.12 270.834 592.119 270.847 593.369H268.2C268.187 592.822 268.018 592.38 267.693 592.041C267.367 591.696 266.937 591.523 266.404 591.523C265.746 591.523 265.248 591.764 264.909 592.246C264.577 592.721 264.411 593.496 264.411 594.57V594.863C264.411 595.951 264.577 596.732 264.909 597.207C265.241 597.682 265.746 597.92 266.423 597.92ZM275.437 586.836V589.434H277.244V591.504H275.437V596.777C275.437 597.168 275.512 597.448 275.662 597.617C275.811 597.786 276.098 597.871 276.521 597.871C276.834 597.871 277.11 597.848 277.351 597.803V599.941C276.798 600.111 276.228 600.195 275.642 600.195C273.663 600.195 272.654 599.196 272.615 597.197V591.504H271.072V589.434H272.615V586.836H275.437ZM281.395 600H278.562V589.434H281.395V600ZM278.396 586.699C278.396 586.276 278.536 585.928 278.816 585.654C279.103 585.381 279.49 585.244 279.979 585.244C280.46 585.244 280.844 585.381 281.131 585.654C281.417 585.928 281.561 586.276 281.561 586.699C281.561 587.129 281.414 587.48 281.121 587.754C280.835 588.027 280.454 588.164 279.979 588.164C279.503 588.164 279.119 588.027 278.826 587.754C278.54 587.48 278.396 587.129 278.396 586.699ZM282.889 594.619C282.889 593.571 283.091 592.637 283.495 591.816C283.898 590.996 284.478 590.361 285.233 589.912C285.995 589.463 286.877 589.238 287.879 589.238C289.305 589.238 290.467 589.674 291.366 590.547C292.271 591.419 292.775 592.604 292.879 594.102L292.899 594.824C292.899 596.445 292.446 597.747 291.541 598.73C290.636 599.707 289.422 600.195 287.899 600.195C286.375 600.195 285.158 599.707 284.246 598.73C283.342 597.754 282.889 596.426 282.889 594.746V594.619ZM285.711 594.824C285.711 595.827 285.9 596.595 286.278 597.129C286.655 597.656 287.196 597.92 287.899 597.92C288.582 597.92 289.116 597.66 289.5 597.139C289.885 596.611 290.077 595.771 290.077 594.619C290.077 593.636 289.885 592.874 289.5 592.334C289.116 591.794 288.576 591.523 287.879 591.523C287.189 591.523 286.655 591.794 286.278 592.334C285.9 592.868 285.711 593.698 285.711 594.824ZM296.835 589.434L296.923 590.654C297.678 589.71 298.69 589.238 299.96 589.238C301.08 589.238 301.913 589.567 302.46 590.225C303.007 590.882 303.287 591.865 303.3 593.174V600H300.477V593.242C300.477 592.643 300.347 592.21 300.087 591.943C299.826 591.67 299.393 591.533 298.788 591.533C297.994 591.533 297.398 591.872 297.001 592.549V600H294.179V589.434H296.835Z" fill="#333E48"/>
<path d="M99.8242 44.1895H94.1992V50H91.2695V35.7812H100.527V38.1543H94.1992V41.8262H99.8242V44.1895ZM107.754 48.9258C107.058 49.7721 106.094 50.1953 104.864 50.1953C103.731 50.1953 102.865 49.8698 102.266 49.2188C101.674 48.5677 101.371 47.6139 101.358 46.3574V39.4336H104.18V46.2598C104.18 47.36 104.681 47.9102 105.684 47.9102C106.641 47.9102 107.299 47.5781 107.657 46.9141V39.4336H110.489V50H107.832L107.754 48.9258ZM114.815 39.4336L114.903 40.6543C115.658 39.7103 116.671 39.2383 117.94 39.2383C119.06 39.2383 119.893 39.5671 120.44 40.2246C120.987 40.8822 121.267 41.8652 121.28 43.1738V50H118.458V43.2422C118.458 42.6432 118.328 42.2103 118.067 41.9434C117.807 41.6699 117.374 41.5332 116.768 41.5332C115.974 41.5332 115.378 41.8717 114.981 42.5488V50H112.159V39.4336H114.815ZM127.892 50.1953C126.342 50.1953 125.079 49.7201 124.103 48.7695C123.133 47.819 122.648 46.5527 122.648 44.9707V44.6973C122.648 43.6361 122.853 42.6888 123.263 41.8555C123.673 41.0156 124.252 40.3711 125.001 39.9219C125.756 39.4661 126.616 39.2383 127.579 39.2383C129.025 39.2383 130.161 39.694 130.987 40.6055C131.821 41.5169 132.237 42.8092 132.237 44.4824V45.6348H125.509C125.6 46.3249 125.874 46.8783 126.329 47.2949C126.792 47.7116 127.374 47.9199 128.077 47.9199C129.165 47.9199 130.014 47.526 130.626 46.7383L132.013 48.291C131.59 48.89 131.017 49.3587 130.294 49.6973C129.571 50.0293 128.771 50.1953 127.892 50.1953ZM127.57 41.5234C127.01 41.5234 126.554 41.7122 126.202 42.0898C125.857 42.4674 125.636 43.0078 125.538 43.7109H129.464V43.4863C129.451 42.8613 129.282 42.3796 128.956 42.041C128.631 41.696 128.168 41.5234 127.57 41.5234ZM139.386 42.0801C139.002 42.028 138.664 42.002 138.371 42.002C137.303 42.002 136.603 42.3633 136.271 43.0859V50H133.449V39.4336H136.115L136.193 40.6934C136.759 39.7233 137.544 39.2383 138.546 39.2383C138.859 39.2383 139.152 39.2806 139.425 39.3652L139.386 42.0801ZM146.184 50C146.053 49.7461 145.959 49.4303 145.9 49.0527C145.217 49.8145 144.328 50.1953 143.234 50.1953C142.199 50.1953 141.34 49.8958 140.656 49.2969C139.979 48.6979 139.641 47.9427 139.641 47.0312C139.641 45.9115 140.054 45.0521 140.881 44.4531C141.714 43.8542 142.915 43.5514 144.484 43.5449H145.783V42.9395C145.783 42.4512 145.656 42.0605 145.402 41.7676C145.155 41.4746 144.761 41.3281 144.221 41.3281C143.745 41.3281 143.371 41.4421 143.098 41.6699C142.831 41.8978 142.697 42.2103 142.697 42.6074H139.875C139.875 41.9954 140.064 41.429 140.441 40.9082C140.819 40.3874 141.353 39.9805 142.043 39.6875C142.733 39.388 143.508 39.2383 144.367 39.2383C145.669 39.2383 146.701 39.5671 147.463 40.2246C148.231 40.8757 148.615 41.7936 148.615 42.9785V47.5586C148.622 48.5612 148.762 49.3197 149.035 49.834V50H146.184ZM143.85 48.0371C144.266 48.0371 144.65 47.946 145.002 47.7637C145.354 47.5749 145.614 47.3242 145.783 47.0117V45.1953H144.729C143.316 45.1953 142.564 45.6836 142.473 46.6602L142.463 46.8262C142.463 47.1777 142.587 47.4674 142.834 47.6953C143.081 47.9232 143.42 48.0371 143.85 48.0371ZM153.362 50H150.53V35H153.362V50ZM171.224 45.2637C171.113 46.7936 170.547 47.998 169.525 48.877C168.509 49.7559 167.168 50.1953 165.501 50.1953C163.678 50.1953 162.243 49.5833 161.195 48.3594C160.153 47.1289 159.632 45.4427 159.632 43.3008V42.4316C159.632 41.0645 159.873 39.86 160.355 38.8184C160.836 37.7767 161.523 36.9792 162.415 36.4258C163.314 35.8659 164.355 35.5859 165.54 35.5859C167.181 35.5859 168.502 36.0254 169.505 36.9043C170.508 37.7832 171.087 39.0169 171.243 40.6055H168.314C168.242 39.6875 167.985 39.0234 167.542 38.6133C167.106 38.1966 166.439 37.9883 165.54 37.9883C164.564 37.9883 163.831 38.3398 163.343 39.043C162.861 39.7396 162.614 40.8236 162.601 42.2949V43.3691C162.601 44.9056 162.832 46.0286 163.294 46.7383C163.763 47.4479 164.499 47.8027 165.501 47.8027C166.406 47.8027 167.08 47.5977 167.523 47.1875C167.972 46.7708 168.229 46.1296 168.294 45.2637H171.224ZM172.123 44.6191C172.123 43.571 172.324 42.6367 172.728 41.8164C173.132 40.9961 173.711 40.3613 174.466 39.9121C175.228 39.4629 176.11 39.2383 177.113 39.2383C178.539 39.2383 179.701 39.6745 180.599 40.5469C181.504 41.4193 182.009 42.6042 182.113 44.1016L182.132 44.8242C182.132 46.4453 181.68 47.7474 180.775 48.7305C179.87 49.707 178.656 50.1953 177.132 50.1953C175.609 50.1953 174.392 49.707 173.48 48.7305C172.575 47.7539 172.123 46.4258 172.123 44.7461V44.6191ZM174.945 44.8242C174.945 45.8268 175.134 46.5951 175.511 47.1289C175.889 47.6562 176.429 47.9199 177.132 47.9199C177.816 47.9199 178.35 47.6595 178.734 47.1387C179.118 46.6113 179.31 45.7715 179.31 44.6191C179.31 43.6361 179.118 42.8743 178.734 42.334C178.35 41.7936 177.81 41.5234 177.113 41.5234C176.423 41.5234 175.889 41.7936 175.511 42.334C175.134 42.8678 174.945 43.6979 174.945 44.8242ZM187.27 46.5527L189.232 39.4336H192.182L188.617 50H185.922L182.357 39.4336H185.307L187.27 46.5527ZM197.758 50.1953C196.209 50.1953 194.946 49.7201 193.969 48.7695C192.999 47.819 192.514 46.5527 192.514 44.9707V44.6973C192.514 43.6361 192.719 42.6888 193.129 41.8555C193.539 41.0156 194.119 40.3711 194.868 39.9219C195.623 39.4661 196.482 39.2383 197.446 39.2383C198.891 39.2383 200.027 39.694 200.854 40.6055C201.687 41.5169 202.104 42.8092 202.104 44.4824V45.6348H195.375C195.467 46.3249 195.74 46.8783 196.196 47.2949C196.658 47.7116 197.241 47.9199 197.944 47.9199C199.031 47.9199 199.881 47.526 200.493 46.7383L201.879 48.291C201.456 48.89 200.883 49.3587 200.161 49.6973C199.438 50.0293 198.637 50.1953 197.758 50.1953ZM197.436 41.5234C196.876 41.5234 196.42 41.7122 196.069 42.0898C195.724 42.4674 195.502 43.0078 195.405 43.7109H199.33V43.4863C199.317 42.8613 199.148 42.3796 198.823 42.041C198.497 41.696 198.035 41.5234 197.436 41.5234ZM209.253 42.0801C208.869 42.028 208.53 42.002 208.237 42.002C207.169 42.002 206.47 42.3633 206.137 43.0859V50H203.315V39.4336H205.981L206.059 40.6934C206.626 39.7233 207.41 39.2383 208.413 39.2383C208.725 39.2383 209.018 39.2806 209.292 39.3652L209.253 42.0801Z" fill="#333E48"/>
<path d="M94.1992 157.646H100.42V160H91.2695V145.781H94.1992V157.646ZM104.502 160H101.67V149.434H104.502V160ZM101.504 146.699C101.504 146.276 101.644 145.928 101.924 145.654C102.211 145.381 102.598 145.244 103.086 145.244C103.568 145.244 103.952 145.381 104.239 145.654C104.525 145.928 104.668 146.276 104.668 146.699C104.668 147.129 104.522 147.48 104.229 147.754C103.942 148.027 103.562 148.164 103.086 148.164C102.611 148.164 102.227 148.027 101.934 147.754C101.648 147.48 101.504 147.129 101.504 146.699ZM107.208 160V151.504H105.636V149.434H107.208V148.535C107.208 147.35 107.546 146.432 108.223 145.781C108.907 145.124 109.861 144.795 111.085 144.795C111.475 144.795 111.954 144.86 112.52 144.99L112.491 147.178C112.257 147.119 111.97 147.09 111.632 147.09C110.57 147.09 110.04 147.588 110.04 148.584V149.434H112.139V151.504H110.04V160H107.208ZM117.833 160.195C116.284 160.195 115.021 159.72 114.044 158.77C113.074 157.819 112.589 156.553 112.589 154.971V154.697C112.589 153.636 112.794 152.689 113.204 151.855C113.614 151.016 114.194 150.371 114.943 149.922C115.698 149.466 116.557 149.238 117.521 149.238C118.966 149.238 120.102 149.694 120.929 150.605C121.762 151.517 122.179 152.809 122.179 154.482V155.635H115.45C115.542 156.325 115.815 156.878 116.271 157.295C116.733 157.712 117.316 157.92 118.019 157.92C119.106 157.92 119.956 157.526 120.568 156.738L121.954 158.291C121.531 158.89 120.958 159.359 120.236 159.697C119.513 160.029 118.712 160.195 117.833 160.195ZM117.511 151.523C116.951 151.523 116.495 151.712 116.144 152.09C115.799 152.467 115.577 153.008 115.48 153.711H119.405V153.486C119.392 152.861 119.223 152.38 118.898 152.041C118.572 151.696 118.11 151.523 117.511 151.523ZM139.318 155.264C139.208 156.794 138.641 157.998 137.619 158.877C136.604 159.756 135.262 160.195 133.596 160.195C131.773 160.195 130.337 159.583 129.289 158.359C128.247 157.129 127.727 155.443 127.727 153.301V152.432C127.727 151.064 127.967 149.86 128.449 148.818C128.931 147.777 129.618 146.979 130.51 146.426C131.408 145.866 132.45 145.586 133.635 145.586C135.275 145.586 136.597 146.025 137.6 146.904C138.602 147.783 139.182 149.017 139.338 150.605H136.408C136.337 149.688 136.079 149.023 135.637 148.613C135.201 148.197 134.533 147.988 133.635 147.988C132.658 147.988 131.926 148.34 131.438 149.043C130.956 149.74 130.708 150.824 130.695 152.295V153.369C130.695 154.906 130.926 156.029 131.389 156.738C131.857 157.448 132.593 157.803 133.596 157.803C134.501 157.803 135.174 157.598 135.617 157.188C136.066 156.771 136.324 156.13 136.389 155.264H139.318ZM140.217 154.619C140.217 153.571 140.419 152.637 140.823 151.816C141.226 150.996 141.806 150.361 142.561 149.912C143.323 149.463 144.205 149.238 145.207 149.238C146.633 149.238 147.795 149.674 148.694 150.547C149.599 151.419 150.103 152.604 150.207 154.102L150.227 154.824C150.227 156.445 149.774 157.747 148.87 158.73C147.965 159.707 146.75 160.195 145.227 160.195C143.704 160.195 142.486 159.707 141.575 158.73C140.67 157.754 140.217 156.426 140.217 154.746V154.619ZM143.039 154.824C143.039 155.827 143.228 156.595 143.606 157.129C143.983 157.656 144.524 157.92 145.227 157.92C145.911 157.92 146.444 157.66 146.829 157.139C147.213 156.611 147.405 155.771 147.405 154.619C147.405 153.636 147.213 152.874 146.829 152.334C146.444 151.794 145.904 151.523 145.207 151.523C144.517 151.523 143.983 151.794 143.606 152.334C143.228 152.868 143.039 153.698 143.039 154.824ZM155.364 156.553L157.327 149.434H160.276L156.712 160H154.016L150.452 149.434H153.401L155.364 156.553ZM165.853 160.195C164.303 160.195 163.04 159.72 162.064 158.77C161.094 157.819 160.609 156.553 160.609 154.971V154.697C160.609 153.636 160.814 152.689 161.224 151.855C161.634 151.016 162.213 150.371 162.962 149.922C163.717 149.466 164.577 149.238 165.54 149.238C166.986 149.238 168.122 149.694 168.948 150.605C169.782 151.517 170.198 152.809 170.198 154.482V155.635H163.47C163.561 156.325 163.835 156.878 164.29 157.295C164.752 157.712 165.335 157.92 166.038 157.92C167.126 157.92 167.975 157.526 168.587 156.738L169.974 158.291C169.551 158.89 168.978 159.359 168.255 159.697C167.532 160.029 166.732 160.195 165.853 160.195ZM165.53 151.523C164.971 151.523 164.515 151.712 164.163 152.09C163.818 152.467 163.597 153.008 163.499 153.711H167.425V153.486C167.412 152.861 167.243 152.38 166.917 152.041C166.592 151.696 166.129 151.523 165.53 151.523ZM177.347 152.08C176.963 152.028 176.625 152.002 176.332 152.002C175.264 152.002 174.564 152.363 174.232 153.086V160H171.41V149.434H174.076L174.154 150.693C174.72 149.723 175.505 149.238 176.507 149.238C176.82 149.238 177.113 149.281 177.386 149.365L177.347 152.08ZM188.588 152.041H192.114V154.59H188.588V158.574H185.903V154.59H182.368V152.041H185.903V148.223H188.588V152.041ZM209.839 153.213C209.839 154.541 209.624 155.697 209.195 156.68C208.765 157.656 208.169 158.441 207.407 159.033L209.771 160.889L207.905 162.539L204.878 160.107C204.533 160.166 204.175 160.195 203.804 160.195C202.626 160.195 201.574 159.912 200.65 159.346C199.725 158.779 199.009 157.972 198.501 156.924C197.993 155.869 197.736 154.658 197.73 153.291V152.588C197.73 151.188 197.98 149.958 198.482 148.896C198.989 147.829 199.702 147.012 200.62 146.445C201.545 145.872 202.599 145.586 203.784 145.586C204.969 145.586 206.021 145.872 206.939 146.445C207.863 147.012 208.576 147.829 209.077 148.896C209.585 149.958 209.839 151.185 209.839 152.578V153.213ZM206.87 152.568C206.87 151.077 206.603 149.945 206.07 149.17C205.536 148.395 204.774 148.008 203.784 148.008C202.801 148.008 202.043 148.392 201.509 149.16C200.975 149.922 200.705 151.042 200.698 152.52V153.213C200.698 154.665 200.965 155.791 201.499 156.592C202.033 157.393 202.801 157.793 203.804 157.793C204.787 157.793 205.542 157.409 206.07 156.641C206.597 155.866 206.864 154.74 206.87 153.262V152.568ZM217.73 158.926C217.033 159.772 216.07 160.195 214.839 160.195C213.707 160.195 212.841 159.87 212.242 159.219C211.649 158.568 211.347 157.614 211.334 156.357V149.434H214.156V156.26C214.156 157.36 214.657 157.91 215.66 157.91C216.617 157.91 217.274 157.578 217.632 156.914V149.434H220.464V160H217.808L217.73 158.926ZM225.172 160H222.34V149.434H225.172V160ZM222.174 146.699C222.174 146.276 222.314 145.928 222.594 145.654C222.88 145.381 223.268 145.244 223.756 145.244C224.238 145.244 224.622 145.381 224.908 145.654C225.195 145.928 225.338 146.276 225.338 146.699C225.338 147.129 225.191 147.48 224.898 147.754C224.612 148.027 224.231 148.164 223.756 148.164C223.281 148.164 222.896 148.027 222.604 147.754C222.317 147.48 222.174 147.129 222.174 146.699ZM231.5 157.92C232.021 157.92 232.444 157.777 232.77 157.49C233.095 157.204 233.265 156.823 233.278 156.348H235.924C235.918 157.064 235.722 157.721 235.338 158.32C234.954 158.913 234.427 159.375 233.756 159.707C233.092 160.033 232.357 160.195 231.549 160.195C230.039 160.195 228.847 159.717 227.975 158.76C227.103 157.796 226.666 156.468 226.666 154.775V154.59C226.666 152.962 227.099 151.663 227.965 150.693C228.831 149.723 230.019 149.238 231.53 149.238C232.851 149.238 233.909 149.616 234.704 150.371C235.504 151.12 235.911 152.119 235.924 153.369H233.278C233.265 152.822 233.095 152.38 232.77 152.041C232.444 151.696 232.015 151.523 231.481 151.523C230.823 151.523 230.325 151.764 229.987 152.246C229.655 152.721 229.489 153.496 229.489 154.57V154.863C229.489 155.951 229.655 156.732 229.987 157.207C230.319 157.682 230.823 157.92 231.5 157.92ZM240.973 155.762L239.958 156.777V160H237.136V145H239.958V153.311L240.505 152.607L243.21 149.434H246.598L242.78 153.838L246.93 160H243.688L240.973 155.762ZM255.115 154.99V160H252.185V145.781H257.732C258.8 145.781 259.737 145.977 260.545 146.367C261.358 146.758 261.983 147.314 262.42 148.037C262.856 148.753 263.074 149.57 263.074 150.488C263.074 151.882 262.595 152.982 261.638 153.789C260.688 154.59 259.369 154.99 257.683 154.99H255.115ZM255.115 152.617H257.732C258.507 152.617 259.096 152.435 259.5 152.07C259.91 151.706 260.115 151.185 260.115 150.508C260.115 149.811 259.91 149.248 259.5 148.818C259.089 148.389 258.523 148.167 257.8 148.154H255.115V152.617ZM270.516 160C270.385 159.746 270.291 159.43 270.232 159.053C269.549 159.814 268.66 160.195 267.566 160.195C266.531 160.195 265.672 159.896 264.988 159.297C264.311 158.698 263.973 157.943 263.973 157.031C263.973 155.911 264.386 155.052 265.213 154.453C266.046 153.854 267.247 153.551 268.816 153.545H270.115V152.939C270.115 152.451 269.988 152.061 269.734 151.768C269.487 151.475 269.093 151.328 268.553 151.328C268.077 151.328 267.703 151.442 267.43 151.67C267.163 151.898 267.029 152.21 267.029 152.607H264.207C264.207 151.995 264.396 151.429 264.773 150.908C265.151 150.387 265.685 149.98 266.375 149.688C267.065 149.388 267.84 149.238 268.699 149.238C270.001 149.238 271.033 149.567 271.795 150.225C272.563 150.876 272.947 151.794 272.947 152.979V157.559C272.954 158.561 273.094 159.32 273.367 159.834V160H270.516ZM268.182 158.037C268.598 158.037 268.982 157.946 269.334 157.764C269.686 157.575 269.946 157.324 270.115 157.012V155.195H269.061C267.648 155.195 266.896 155.684 266.805 156.66L266.795 156.826C266.795 157.178 266.919 157.467 267.166 157.695C267.413 157.923 267.752 158.037 268.182 158.037ZM278.504 156.006L280.457 149.434H283.485L279.237 161.641L279.002 162.197C278.371 163.577 277.329 164.268 275.877 164.268C275.467 164.268 275.051 164.206 274.627 164.082V161.943L275.057 161.953C275.591 161.953 275.988 161.872 276.248 161.709C276.515 161.546 276.724 161.276 276.873 160.898L277.205 160.029L273.504 149.434H276.541L278.504 156.006ZM283.602 154.619C283.602 153.571 283.804 152.637 284.208 151.816C284.611 150.996 285.191 150.361 285.946 149.912C286.708 149.463 287.59 149.238 288.593 149.238C290.018 149.238 291.18 149.674 292.079 150.547C292.984 151.419 293.488 152.604 293.593 154.102L293.612 154.824C293.612 156.445 293.16 157.747 292.255 158.73C291.35 159.707 290.136 160.195 288.612 160.195C287.089 160.195 285.871 159.707 284.96 158.73C284.055 157.754 283.602 156.426 283.602 154.746V154.619ZM286.425 154.824C286.425 155.827 286.613 156.595 286.991 157.129C287.369 157.656 287.909 157.92 288.612 157.92C289.296 157.92 289.83 157.66 290.214 157.139C290.598 156.611 290.79 155.771 290.79 154.619C290.79 153.636 290.598 152.874 290.214 152.334C289.83 151.794 289.289 151.523 288.593 151.523C287.902 151.523 287.369 151.794 286.991 152.334C286.613 152.868 286.425 153.698 286.425 154.824ZM301.279 158.926C300.582 159.772 299.618 160.195 298.388 160.195C297.255 160.195 296.389 159.87 295.79 159.219C295.198 158.568 294.895 157.614 294.882 156.357V149.434H297.704V156.26C297.704 157.36 298.206 157.91 299.208 157.91C300.165 157.91 300.823 157.578 301.181 156.914V149.434H304.013V160H301.357L301.279 158.926ZM309.121 146.836V149.434H310.927V151.504H309.121V156.777C309.121 157.168 309.196 157.448 309.345 157.617C309.495 157.786 309.782 157.871 310.205 157.871C310.517 157.871 310.794 157.848 311.035 157.803V159.941C310.481 160.111 309.912 160.195 309.326 160.195C307.347 160.195 306.337 159.196 306.298 157.197V151.504H304.755V149.434H306.298V146.836H309.121Z" fill="#333E48"/>
<path d="M102.432 265.264C102.321 266.794 101.755 267.998 100.732 268.877C99.7168 269.756 98.3757 270.195 96.709 270.195C94.8861 270.195 93.4505 269.583 92.4023 268.359C91.3607 267.129 90.8398 265.443 90.8398 263.301V262.432C90.8398 261.064 91.0807 259.86 91.5625 258.818C92.0443 257.777 92.7311 256.979 93.623 256.426C94.5215 255.866 95.5632 255.586 96.748 255.586C98.3887 255.586 99.7103 256.025 100.713 256.904C101.715 257.783 102.295 259.017 102.451 260.605H99.5215C99.4499 259.688 99.1927 259.023 98.75 258.613C98.3138 258.197 97.6465 257.988 96.748 257.988C95.7715 257.988 95.0391 258.34 94.5508 259.043C94.069 259.74 93.8216 260.824 93.8086 262.295V263.369C93.8086 264.906 94.0397 266.029 94.502 266.738C94.9707 267.448 95.7064 267.803 96.709 267.803C97.6139 267.803 98.2878 267.598 98.7305 267.188C99.1797 266.771 99.4368 266.13 99.502 265.264H102.432ZM109.707 262.08C109.323 262.028 108.985 262.002 108.692 262.002C107.624 262.002 106.924 262.363 106.592 263.086V270H103.77V259.434H106.436L106.514 260.693C107.08 259.723 107.865 259.238 108.868 259.238C109.18 259.238 109.473 259.281 109.746 259.365L109.707 262.08ZM113.653 270H110.821V259.434H113.653V270ZM110.655 256.699C110.655 256.276 110.795 255.928 111.075 255.654C111.361 255.381 111.749 255.244 112.237 255.244C112.719 255.244 113.103 255.381 113.389 255.654C113.676 255.928 113.819 256.276 113.819 256.699C113.819 257.129 113.673 257.48 113.38 257.754C113.093 258.027 112.712 258.164 112.237 258.164C111.762 258.164 111.378 258.027 111.085 257.754C110.798 257.48 110.655 257.129 110.655 256.699ZM118.966 256.836V259.434H120.773V261.504H118.966V266.777C118.966 267.168 119.041 267.448 119.191 267.617C119.34 267.786 119.627 267.871 120.05 267.871C120.362 267.871 120.639 267.848 120.88 267.803V269.941C120.327 270.111 119.757 270.195 119.171 270.195C117.192 270.195 116.183 269.196 116.144 267.197V261.504H114.601V259.434H116.144V256.836H118.966ZM124.923 270H122.091V259.434H124.923V270ZM121.925 256.699C121.925 256.276 122.065 255.928 122.345 255.654C122.632 255.381 123.019 255.244 123.507 255.244C123.989 255.244 124.373 255.381 124.66 255.654C124.946 255.928 125.089 256.276 125.089 256.699C125.089 257.129 124.943 257.48 124.65 257.754C124.364 258.027 123.983 258.164 123.507 258.164C123.032 258.164 122.648 258.027 122.355 257.754C122.069 257.48 121.925 257.129 121.925 256.699ZM131.252 267.92C131.773 267.92 132.196 267.777 132.521 267.49C132.847 267.204 133.016 266.823 133.029 266.348H135.676C135.669 267.064 135.474 267.721 135.09 268.32C134.706 268.913 134.178 269.375 133.508 269.707C132.844 270.033 132.108 270.195 131.301 270.195C129.79 270.195 128.599 269.717 127.727 268.76C126.854 267.796 126.418 266.468 126.418 264.775V264.59C126.418 262.962 126.851 261.663 127.717 260.693C128.583 259.723 129.771 259.238 131.281 259.238C132.603 259.238 133.661 259.616 134.455 260.371C135.256 261.12 135.663 262.119 135.676 263.369H133.029C133.016 262.822 132.847 262.38 132.521 262.041C132.196 261.696 131.766 261.523 131.232 261.523C130.575 261.523 130.077 261.764 129.738 262.246C129.406 262.721 129.24 263.496 129.24 264.57V264.863C129.24 265.951 129.406 266.732 129.738 267.207C130.07 267.682 130.575 267.92 131.252 267.92ZM143.01 270C142.88 269.746 142.786 269.43 142.727 269.053C142.043 269.814 141.155 270.195 140.061 270.195C139.026 270.195 138.166 269.896 137.483 269.297C136.806 268.698 136.467 267.943 136.467 267.031C136.467 265.911 136.881 265.052 137.707 264.453C138.541 263.854 139.742 263.551 141.311 263.545H142.61V262.939C142.61 262.451 142.483 262.061 142.229 261.768C141.982 261.475 141.588 261.328 141.047 261.328C140.572 261.328 140.198 261.442 139.924 261.67C139.657 261.898 139.524 262.21 139.524 262.607H136.702C136.702 261.995 136.89 261.429 137.268 260.908C137.646 260.387 138.179 259.98 138.87 259.688C139.56 259.388 140.334 259.238 141.194 259.238C142.496 259.238 143.528 259.567 144.289 260.225C145.058 260.876 145.442 261.794 145.442 262.979V267.559C145.448 268.561 145.588 269.32 145.862 269.834V270H143.01ZM140.676 268.037C141.093 268.037 141.477 267.946 141.829 267.764C142.18 267.575 142.44 267.324 142.61 267.012V265.195H141.555C140.142 265.195 139.39 265.684 139.299 266.66L139.289 266.826C139.289 267.178 139.413 267.467 139.661 267.695C139.908 267.923 140.246 268.037 140.676 268.037ZM150.188 270H147.356V255H150.188V270ZM160.004 270H157.074V255.781H160.004V270ZM165.121 270H162.289V255H165.121V270ZM170.034 270H167.202V255H170.034V270ZM174.565 259.434L174.653 260.654C175.408 259.71 176.421 259.238 177.69 259.238C178.81 259.238 179.643 259.567 180.19 260.225C180.737 260.882 181.017 261.865 181.03 263.174V270H178.208V263.242C178.208 262.643 178.078 262.21 177.817 261.943C177.557 261.67 177.124 261.533 176.518 261.533C175.724 261.533 175.128 261.872 174.731 262.549V270H171.909V259.434H174.565ZM187.642 270.195C186.092 270.195 184.829 269.72 183.853 268.77C182.883 267.819 182.398 266.553 182.398 264.971V264.697C182.398 263.636 182.603 262.689 183.013 261.855C183.423 261.016 184.002 260.371 184.751 259.922C185.506 259.466 186.366 259.238 187.329 259.238C188.775 259.238 189.911 259.694 190.738 260.605C191.571 261.517 191.988 262.809 191.988 264.482V265.635H185.259C185.35 266.325 185.624 266.878 186.079 267.295C186.542 267.712 187.124 267.92 187.827 267.92C188.915 267.92 189.764 267.526 190.376 266.738L191.763 268.291C191.34 268.89 190.767 269.359 190.044 269.697C189.321 270.029 188.521 270.195 187.642 270.195ZM187.32 261.523C186.76 261.523 186.304 261.712 185.952 262.09C185.607 262.467 185.386 263.008 185.288 263.711H189.214V263.486C189.201 262.861 189.032 262.38 188.706 262.041C188.381 261.696 187.918 261.523 187.32 261.523ZM198.921 267.08C198.921 266.735 198.749 266.465 198.404 266.27C198.065 266.068 197.518 265.889 196.763 265.732C194.25 265.205 192.994 264.137 192.994 262.529C192.994 261.592 193.381 260.811 194.156 260.186C194.937 259.554 195.956 259.238 197.213 259.238C198.554 259.238 199.625 259.554 200.425 260.186C201.233 260.817 201.636 261.637 201.636 262.646H198.814C198.814 262.243 198.684 261.911 198.423 261.65C198.163 261.383 197.756 261.25 197.203 261.25C196.727 261.25 196.36 261.357 196.099 261.572C195.839 261.787 195.709 262.061 195.709 262.393C195.709 262.705 195.855 262.959 196.148 263.154C196.448 263.343 196.949 263.509 197.652 263.652C198.355 263.789 198.948 263.945 199.429 264.121C200.92 264.668 201.666 265.615 201.666 266.963C201.666 267.926 201.252 268.708 200.425 269.307C199.599 269.899 198.531 270.195 197.222 270.195C196.337 270.195 195.549 270.039 194.859 269.727C194.175 269.408 193.638 268.975 193.248 268.428C192.857 267.874 192.662 267.279 192.662 266.641H195.338C195.364 267.142 195.549 267.526 195.894 267.793C196.239 268.06 196.701 268.193 197.281 268.193C197.821 268.193 198.228 268.092 198.502 267.891C198.782 267.682 198.921 267.412 198.921 267.08ZM208.814 267.08C208.814 266.735 208.642 266.465 208.297 266.27C207.958 266.068 207.411 265.889 206.656 265.732C204.143 265.205 202.887 264.137 202.887 262.529C202.887 261.592 203.274 260.811 204.049 260.186C204.83 259.554 205.849 259.238 207.105 259.238C208.447 259.238 209.518 259.554 210.318 260.186C211.126 260.817 211.529 261.637 211.529 262.646H208.707C208.707 262.243 208.577 261.911 208.316 261.65C208.056 261.383 207.649 261.25 207.096 261.25C206.62 261.25 206.253 261.357 205.992 261.572C205.732 261.787 205.602 262.061 205.602 262.393C205.602 262.705 205.748 262.959 206.041 263.154C206.34 263.343 206.842 263.509 207.545 263.652C208.248 263.789 208.84 263.945 209.322 264.121C210.813 264.668 211.559 265.615 211.559 266.963C211.559 267.926 211.145 268.708 210.318 269.307C209.492 269.899 208.424 270.195 207.115 270.195C206.23 270.195 205.442 270.039 204.752 269.727C204.068 269.408 203.531 268.975 203.141 268.428C202.75 267.874 202.555 267.279 202.555 266.641H205.23C205.257 267.142 205.442 267.526 205.787 267.793C206.132 268.06 206.594 268.193 207.174 268.193C207.714 268.193 208.121 268.092 208.395 267.891C208.674 267.682 208.814 267.412 208.814 267.08ZM228.913 265.264C228.802 266.794 228.236 267.998 227.214 268.877C226.198 269.756 224.857 270.195 223.19 270.195C221.367 270.195 219.932 269.583 218.884 268.359C217.842 267.129 217.321 265.443 217.321 263.301V262.432C217.321 261.064 217.562 259.86 218.044 258.818C218.526 257.777 219.212 256.979 220.104 256.426C221.003 255.866 222.044 255.586 223.229 255.586C224.87 255.586 226.192 256.025 227.194 256.904C228.197 257.783 228.776 259.017 228.932 260.605H226.003C225.931 259.688 225.674 259.023 225.231 258.613C224.795 258.197 224.128 257.988 223.229 257.988C222.253 257.988 221.52 258.34 221.032 259.043C220.55 259.74 220.303 260.824 220.29 262.295V263.369C220.29 264.906 220.521 266.029 220.983 266.738C221.452 267.448 222.188 267.803 223.19 267.803C224.095 267.803 224.769 267.598 225.212 267.188C225.661 266.771 225.918 266.13 225.983 265.264H228.913ZM229.812 264.619C229.812 263.571 230.014 262.637 230.417 261.816C230.821 260.996 231.4 260.361 232.155 259.912C232.917 259.463 233.799 259.238 234.802 259.238C236.228 259.238 237.39 259.674 238.288 260.547C239.193 261.419 239.698 262.604 239.802 264.102L239.821 264.824C239.821 266.445 239.369 267.747 238.464 268.73C237.559 269.707 236.345 270.195 234.821 270.195C233.298 270.195 232.081 269.707 231.169 268.73C230.264 267.754 229.812 266.426 229.812 264.746V264.619ZM232.634 264.824C232.634 265.827 232.823 266.595 233.2 267.129C233.578 267.656 234.118 267.92 234.821 267.92C235.505 267.92 236.039 267.66 236.423 267.139C236.807 266.611 236.999 265.771 236.999 264.619C236.999 263.636 236.807 262.874 236.423 262.334C236.039 261.794 235.499 261.523 234.802 261.523C234.112 261.523 233.578 261.794 233.2 262.334C232.823 262.868 232.634 263.698 232.634 264.824ZM244.959 266.553L246.921 259.434H249.871L246.306 270H243.611L240.046 259.434H242.996L244.959 266.553ZM255.447 270.195C253.898 270.195 252.635 269.72 251.658 268.77C250.688 267.819 250.203 266.553 250.203 264.971V264.697C250.203 263.636 250.408 262.689 250.818 261.855C251.229 261.016 251.808 260.371 252.557 259.922C253.312 259.466 254.171 259.238 255.135 259.238C256.58 259.238 257.716 259.694 258.543 260.605C259.376 261.517 259.793 262.809 259.793 264.482V265.635H253.064C253.156 266.325 253.429 266.878 253.885 267.295C254.347 267.712 254.93 267.92 255.633 267.92C256.72 267.92 257.57 267.526 258.182 266.738L259.568 268.291C259.145 268.89 258.572 269.359 257.85 269.697C257.127 270.029 256.326 270.195 255.447 270.195ZM255.125 261.523C254.565 261.523 254.109 261.712 253.758 262.09C253.413 262.467 253.191 263.008 253.094 263.711H257.02V263.486C257.007 262.861 256.837 262.38 256.512 262.041C256.186 261.696 255.724 261.523 255.125 261.523ZM266.942 262.08C266.558 262.028 266.219 262.002 265.926 262.002C264.858 262.002 264.159 262.363 263.827 263.086V270H261.004V259.434H263.67L263.748 260.693C264.315 259.723 265.099 259.238 266.102 259.238C266.414 259.238 266.707 259.281 266.981 259.365L266.942 262.08Z" fill="#333E48"/>
<path d="M94.3848 380H91.4551V365.781H94.3848V380ZM99.1215 369.434L99.2094 370.654C99.9646 369.71 100.977 369.238 102.246 369.238C103.366 369.238 104.2 369.567 104.746 370.225C105.293 370.882 105.573 371.865 105.586 373.174V380H102.764V373.242C102.764 372.643 102.634 372.21 102.373 371.943C102.113 371.67 101.68 371.533 101.075 371.533C100.28 371.533 99.6846 371.872 99.2875 372.549V380H96.4652V369.434H99.1215ZM111.729 377.92C112.25 377.92 112.673 377.777 112.999 377.49C113.324 377.204 113.494 376.823 113.507 376.348H116.153C116.147 377.064 115.951 377.721 115.567 378.32C115.183 378.913 114.656 379.375 113.985 379.707C113.321 380.033 112.585 380.195 111.778 380.195C110.268 380.195 109.076 379.717 108.204 378.76C107.332 377.796 106.895 376.468 106.895 374.775V374.59C106.895 372.962 107.328 371.663 108.194 370.693C109.06 369.723 110.248 369.238 111.759 369.238C113.08 369.238 114.138 369.616 114.932 370.371C115.733 371.12 116.14 372.119 116.153 373.369H113.507C113.494 372.822 113.324 372.38 112.999 372.041C112.673 371.696 112.244 371.523 111.71 371.523C111.052 371.523 110.554 371.764 110.216 372.246C109.884 372.721 109.718 373.496 109.718 374.57V374.863C109.718 375.951 109.884 376.732 110.216 377.207C110.548 377.682 111.052 377.92 111.729 377.92ZM116.925 374.619C116.925 373.571 117.127 372.637 117.53 371.816C117.934 370.996 118.514 370.361 119.269 369.912C120.03 369.463 120.913 369.238 121.915 369.238C123.341 369.238 124.503 369.674 125.402 370.547C126.307 371.419 126.811 372.604 126.915 374.102L126.935 374.824C126.935 376.445 126.482 377.747 125.577 378.73C124.672 379.707 123.458 380.195 121.935 380.195C120.411 380.195 119.194 379.707 118.282 378.73C117.377 377.754 116.925 376.426 116.925 374.746V374.619ZM119.747 374.824C119.747 375.827 119.936 376.595 120.314 377.129C120.691 377.656 121.232 377.92 121.935 377.92C122.618 377.92 123.152 377.66 123.536 377.139C123.92 376.611 124.112 375.771 124.112 374.619C124.112 373.636 123.92 372.874 123.536 372.334C123.152 371.794 122.612 371.523 121.915 371.523C121.225 371.523 120.691 371.794 120.314 372.334C119.936 372.868 119.747 373.698 119.747 374.824ZM130.92 369.434L131.007 370.615C131.756 369.697 132.768 369.238 134.045 369.238C135.405 369.238 136.339 369.775 136.847 370.85C137.589 369.775 138.647 369.238 140.021 369.238C141.167 369.238 142.02 369.574 142.58 370.244C143.14 370.908 143.42 371.911 143.42 373.252V380H140.588V373.262C140.588 372.663 140.47 372.227 140.236 371.953C140.002 371.673 139.588 371.533 138.996 371.533C138.149 371.533 137.563 371.937 137.238 372.744L137.248 380H134.425V373.271C134.425 372.66 134.305 372.217 134.064 371.943C133.823 371.67 133.413 371.533 132.834 371.533C132.033 371.533 131.453 371.865 131.095 372.529V380H128.273V369.434H130.92ZM150.061 380.195C148.511 380.195 147.248 379.72 146.271 378.77C145.301 377.819 144.816 376.553 144.816 374.971V374.697C144.816 373.636 145.021 372.689 145.432 371.855C145.842 371.016 146.421 370.371 147.17 369.922C147.925 369.466 148.785 369.238 149.748 369.238C151.193 369.238 152.329 369.694 153.156 370.605C153.99 371.517 154.406 372.809 154.406 374.482V375.635H147.678C147.769 376.325 148.042 376.878 148.498 377.295C148.96 377.712 149.543 377.92 150.246 377.92C151.333 377.92 152.183 377.526 152.795 376.738L154.182 378.291C153.758 378.89 153.186 379.359 152.463 379.697C151.74 380.029 150.939 380.195 150.061 380.195ZM149.738 371.523C149.178 371.523 148.723 371.712 148.371 372.09C148.026 372.467 147.805 373.008 147.707 373.711H151.633V373.486C151.62 372.861 151.451 372.38 151.125 372.041C150.799 371.696 150.337 371.523 149.738 371.523ZM163.313 374.99V380H160.384V365.781H165.93C166.998 365.781 167.936 365.977 168.743 366.367C169.557 366.758 170.182 367.314 170.618 368.037C171.054 368.753 171.272 369.57 171.272 370.488C171.272 371.882 170.794 372.982 169.837 373.789C168.886 374.59 167.568 374.99 165.882 374.99H163.313ZM163.313 372.617H165.93C166.705 372.617 167.294 372.435 167.698 372.07C168.108 371.706 168.313 371.185 168.313 370.508C168.313 369.811 168.108 369.248 167.698 368.818C167.288 368.389 166.721 368.167 165.999 368.154H163.313V372.617ZM178.646 372.08C178.262 372.028 177.923 372.002 177.63 372.002C176.562 372.002 175.863 372.363 175.53 373.086V380H172.708V369.434H175.374L175.452 370.693C176.019 369.723 176.803 369.238 177.806 369.238C178.118 369.238 178.411 369.281 178.685 369.365L178.646 372.08ZM178.822 374.619C178.822 373.571 179.024 372.637 179.427 371.816C179.831 370.996 180.41 370.361 181.166 369.912C181.927 369.463 182.81 369.238 183.812 369.238C185.238 369.238 186.4 369.674 187.298 370.547C188.203 371.419 188.708 372.604 188.812 374.102L188.832 374.824C188.832 376.445 188.379 377.747 187.474 378.73C186.569 379.707 185.355 380.195 183.832 380.195C182.308 380.195 181.091 379.707 180.179 378.73C179.274 377.754 178.822 376.426 178.822 374.746V374.619ZM181.644 374.824C181.644 375.827 181.833 376.595 182.211 377.129C182.588 377.656 183.129 377.92 183.832 377.92C184.515 377.92 185.049 377.66 185.433 377.139C185.817 376.611 186.009 375.771 186.009 374.619C186.009 373.636 185.817 372.874 185.433 372.334C185.049 371.794 184.509 371.523 183.812 371.523C183.122 371.523 182.588 371.794 182.211 372.334C181.833 372.868 181.644 373.698 181.644 374.824ZM193.549 366.836V369.434H195.355V371.504H193.549V376.777C193.549 377.168 193.624 377.448 193.773 377.617C193.923 377.786 194.21 377.871 194.633 377.871C194.945 377.871 195.222 377.848 195.463 377.803V379.941C194.91 380.111 194.34 380.195 193.754 380.195C191.775 380.195 190.766 379.196 190.727 377.197V371.504H189.184V369.434H190.727V366.836H193.549ZM201.391 380.195C199.842 380.195 198.579 379.72 197.602 378.77C196.632 377.819 196.147 376.553 196.147 374.971V374.697C196.147 373.636 196.352 372.689 196.762 371.855C197.172 371.016 197.752 370.371 198.5 369.922C199.256 369.466 200.115 369.238 201.079 369.238C202.524 369.238 203.66 369.694 204.487 370.605C205.32 371.517 205.737 372.809 205.737 374.482V375.635H199.008C199.099 376.325 199.373 376.878 199.829 377.295C200.291 377.712 200.873 377.92 201.577 377.92C202.664 377.92 203.513 377.526 204.125 376.738L205.512 378.291C205.089 378.89 204.516 379.359 203.793 379.697C203.071 380.029 202.27 380.195 201.391 380.195ZM201.069 371.523C200.509 371.523 200.053 371.712 199.702 372.09C199.357 372.467 199.135 373.008 199.037 373.711H202.963V373.486C202.95 372.861 202.781 372.38 202.455 372.041C202.13 371.696 201.668 371.523 201.069 371.523ZM211.343 377.92C211.863 377.92 212.287 377.777 212.612 377.49C212.938 377.204 213.107 376.823 213.12 376.348H215.766C215.76 377.064 215.565 377.721 215.18 378.32C214.796 378.913 214.269 379.375 213.598 379.707C212.934 380.033 212.199 380.195 211.391 380.195C209.881 380.195 208.69 379.717 207.817 378.76C206.945 377.796 206.509 376.468 206.509 374.775V374.59C206.509 372.962 206.942 371.663 207.807 370.693C208.673 369.723 209.861 369.238 211.372 369.238C212.693 369.238 213.751 369.616 214.546 370.371C215.346 371.12 215.753 372.119 215.766 373.369H213.12C213.107 372.822 212.938 372.38 212.612 372.041C212.287 371.696 211.857 371.523 211.323 371.523C210.665 371.523 210.167 371.764 209.829 372.246C209.497 372.721 209.331 373.496 209.331 374.57V374.863C209.331 375.951 209.497 376.732 209.829 377.207C210.161 377.682 210.665 377.92 211.343 377.92ZM220.357 366.836V369.434H222.163V371.504H220.357V376.777C220.357 377.168 220.432 377.448 220.581 377.617C220.731 377.786 221.017 377.871 221.441 377.871C221.753 377.871 222.03 377.848 222.271 377.803V379.941C221.717 380.111 221.148 380.195 220.562 380.195C218.583 380.195 217.573 379.196 217.534 377.197V371.504H215.991V369.434H217.534V366.836H220.357ZM226.314 380H223.482V369.434H226.314V380ZM223.316 366.699C223.316 366.276 223.456 365.928 223.736 365.654C224.022 365.381 224.41 365.244 224.898 365.244C225.38 365.244 225.764 365.381 226.05 365.654C226.337 365.928 226.48 366.276 226.48 366.699C226.48 367.129 226.334 367.48 226.041 367.754C225.754 368.027 225.373 368.164 224.898 368.164C224.423 368.164 224.039 368.027 223.746 367.754C223.459 367.48 223.316 367.129 223.316 366.699ZM227.809 374.619C227.809 373.571 228.01 372.637 228.414 371.816C228.818 370.996 229.397 370.361 230.152 369.912C230.914 369.463 231.796 369.238 232.799 369.238C234.225 369.238 235.387 369.674 236.285 370.547C237.19 371.419 237.695 372.604 237.799 374.102L237.818 374.824C237.818 376.445 237.366 377.747 236.461 378.73C235.556 379.707 234.342 380.195 232.818 380.195C231.295 380.195 230.077 379.707 229.166 378.73C228.261 377.754 227.809 376.426 227.809 374.746V374.619ZM230.631 374.824C230.631 375.827 230.82 376.595 231.197 377.129C231.575 377.656 232.115 377.92 232.818 377.92C233.502 377.92 234.036 377.66 234.42 377.139C234.804 376.611 234.996 375.771 234.996 374.619C234.996 373.636 234.804 372.874 234.42 372.334C234.036 371.794 233.495 371.523 232.799 371.523C232.109 371.523 231.575 371.794 231.197 372.334C230.82 372.868 230.631 373.698 230.631 374.824ZM241.754 369.434L241.842 370.654C242.597 369.71 243.61 369.238 244.879 369.238C245.999 369.238 246.832 369.567 247.379 370.225C247.926 370.882 248.206 371.865 248.219 373.174V380H245.397V373.242C245.397 372.643 245.267 372.21 245.006 371.943C244.746 371.67 244.313 371.533 243.707 371.533C242.913 371.533 242.317 371.872 241.92 372.549V380H239.098V369.434H241.754Z" fill="#333E48"/>
<path d="M91.2695 490V475.781H95.6445C96.8945 475.781 98.0111 476.064 98.9941 476.631C99.9837 477.191 100.755 477.992 101.309 479.033C101.862 480.068 102.139 481.247 102.139 482.568V483.223C102.139 484.544 101.865 485.719 101.318 486.748C100.778 487.777 100.013 488.574 99.0234 489.141C98.0339 489.707 96.9173 489.993 95.6738 490H91.2695ZM94.1992 478.154V487.646H95.6152C96.7611 487.646 97.6367 487.272 98.2422 486.523C98.8477 485.775 99.1569 484.704 99.1699 483.311V482.559C99.1699 481.113 98.8704 480.02 98.2715 479.277C97.6725 478.529 96.7969 478.154 95.6445 478.154H94.1992ZM106.67 490H103.838V479.434H106.67V490ZM103.672 476.699C103.672 476.276 103.812 475.928 104.092 475.654C104.379 475.381 104.766 475.244 105.254 475.244C105.736 475.244 106.12 475.381 106.407 475.654C106.693 475.928 106.836 476.276 106.836 476.699C106.836 477.129 106.69 477.48 106.397 477.754C106.11 478.027 105.73 478.164 105.254 478.164C104.779 478.164 104.395 478.027 104.102 477.754C103.815 477.48 103.672 477.129 103.672 476.699ZM114.327 487.08C114.327 486.735 114.154 486.465 113.809 486.27C113.471 486.068 112.924 485.889 112.169 485.732C109.656 485.205 108.399 484.137 108.399 482.529C108.399 481.592 108.787 480.811 109.561 480.186C110.343 479.554 111.361 479.238 112.618 479.238C113.959 479.238 115.03 479.554 115.831 480.186C116.638 480.817 117.042 481.637 117.042 482.646H114.22C114.22 482.243 114.089 481.911 113.829 481.65C113.568 481.383 113.162 481.25 112.608 481.25C112.133 481.25 111.765 481.357 111.505 481.572C111.244 481.787 111.114 482.061 111.114 482.393C111.114 482.705 111.261 482.959 111.554 483.154C111.853 483.343 112.354 483.509 113.057 483.652C113.761 483.789 114.353 483.945 114.835 484.121C116.326 484.668 117.071 485.615 117.071 486.963C117.071 487.926 116.658 488.708 115.831 489.307C115.004 489.899 113.936 490.195 112.628 490.195C111.742 490.195 110.955 490.039 110.264 489.727C109.581 489.408 109.044 488.975 108.653 488.428C108.263 487.874 108.067 487.279 108.067 486.641H110.743C110.769 487.142 110.955 487.526 111.3 487.793C111.645 488.06 112.107 488.193 112.686 488.193C113.227 488.193 113.634 488.092 113.907 487.891C114.187 487.682 114.327 487.412 114.327 487.08ZM124.62 490C124.49 489.746 124.396 489.43 124.337 489.053C123.654 489.814 122.765 490.195 121.671 490.195C120.636 490.195 119.777 489.896 119.093 489.297C118.416 488.698 118.077 487.943 118.077 487.031C118.077 485.911 118.491 485.052 119.318 484.453C120.151 483.854 121.352 483.551 122.921 483.545H124.22V482.939C124.22 482.451 124.093 482.061 123.839 481.768C123.592 481.475 123.198 481.328 122.657 481.328C122.182 481.328 121.808 481.442 121.534 481.67C121.267 481.898 121.134 482.21 121.134 482.607H118.312C118.312 481.995 118.501 481.429 118.878 480.908C119.256 480.387 119.79 479.98 120.48 479.688C121.17 479.388 121.945 479.238 122.804 479.238C124.106 479.238 125.138 479.567 125.9 480.225C126.668 480.876 127.052 481.794 127.052 482.979V487.559C127.058 488.561 127.198 489.32 127.472 489.834V490H124.62ZM122.286 488.037C122.703 488.037 123.087 487.946 123.439 487.764C123.79 487.575 124.051 487.324 124.22 487.012V485.195H123.165C121.752 485.195 121.001 485.684 120.909 486.66L120.9 486.826C120.9 487.178 121.023 487.467 121.271 487.695C121.518 487.923 121.857 488.037 122.286 488.037ZM138.341 484.814C138.341 486.507 137.98 487.829 137.257 488.779C136.535 489.723 135.526 490.195 134.23 490.195C133.084 490.195 132.17 489.756 131.486 488.877L131.359 490H128.82V475H131.642V480.381C132.293 479.619 133.149 479.238 134.211 479.238C135.5 479.238 136.509 479.714 137.238 480.664C137.974 481.608 138.341 482.939 138.341 484.658V484.814ZM135.519 484.609C135.519 483.542 135.35 482.764 135.011 482.275C134.673 481.781 134.168 481.533 133.498 481.533C132.599 481.533 131.981 481.901 131.642 482.637V486.807C131.987 487.549 132.612 487.92 133.517 487.92C134.429 487.92 135.028 487.471 135.314 486.572C135.451 486.143 135.519 485.488 135.519 484.609ZM142.668 490H139.836V479.434H142.668V490ZM139.67 476.699C139.67 476.276 139.81 475.928 140.09 475.654C140.376 475.381 140.764 475.244 141.252 475.244C141.734 475.244 142.118 475.381 142.404 475.654C142.691 475.928 142.834 476.276 142.834 476.699C142.834 477.129 142.688 477.48 142.395 477.754C142.108 478.027 141.727 478.164 141.252 478.164C140.777 478.164 140.393 478.027 140.1 477.754C139.813 477.48 139.67 477.129 139.67 476.699ZM147.58 490H144.748V475H147.58V490ZM152.493 490H149.661V479.434H152.493V490ZM149.495 476.699C149.495 476.276 149.635 475.928 149.915 475.654C150.201 475.381 150.589 475.244 151.077 475.244C151.559 475.244 151.943 475.381 152.229 475.654C152.516 475.928 152.659 476.276 152.659 476.699C152.659 477.129 152.513 477.48 152.22 477.754C151.933 478.027 151.552 478.164 151.077 478.164C150.602 478.164 150.218 478.027 149.925 477.754C149.638 477.48 149.495 477.129 149.495 476.699ZM157.806 476.836V479.434H159.612V481.504H157.806V486.777C157.806 487.168 157.881 487.448 158.03 487.617C158.18 487.786 158.467 487.871 158.89 487.871C159.202 487.871 159.479 487.848 159.72 487.803V489.941C159.167 490.111 158.597 490.195 158.011 490.195C156.032 490.195 155.023 489.196 154.984 487.197V481.504H153.441V479.434H154.984V476.836H157.806ZM164.73 486.006L166.683 479.434H169.711L165.463 491.641L165.228 492.197C164.597 493.577 163.555 494.268 162.103 494.268C161.693 494.268 161.276 494.206 160.853 494.082V491.943L161.283 491.953C161.817 491.953 162.214 491.872 162.474 491.709C162.741 491.546 162.949 491.276 163.099 490.898L163.431 490.029L159.73 479.434H162.767L164.73 486.006ZM186.352 485.264C186.241 486.794 185.675 487.998 184.653 488.877C183.637 489.756 182.296 490.195 180.629 490.195C178.806 490.195 177.371 489.583 176.323 488.359C175.281 487.129 174.76 485.443 174.76 483.301V482.432C174.76 481.064 175.001 479.86 175.483 478.818C175.965 477.777 176.651 476.979 177.543 476.426C178.442 475.866 179.483 475.586 180.668 475.586C182.309 475.586 183.631 476.025 184.633 476.904C185.636 477.783 186.215 479.017 186.371 480.605H183.442C183.37 479.688 183.113 479.023 182.67 478.613C182.234 478.197 181.567 477.988 180.668 477.988C179.692 477.988 178.959 478.34 178.471 479.043C177.989 479.74 177.742 480.824 177.729 482.295V483.369C177.729 484.906 177.96 486.029 178.422 486.738C178.891 487.448 179.627 487.803 180.629 487.803C181.534 487.803 182.208 487.598 182.651 487.188C183.1 486.771 183.357 486.13 183.422 485.264H186.352ZM187.251 484.619C187.251 483.571 187.453 482.637 187.856 481.816C188.26 480.996 188.839 480.361 189.595 479.912C190.356 479.463 191.238 479.238 192.241 479.238C193.667 479.238 194.829 479.674 195.727 480.547C196.632 481.419 197.137 482.604 197.241 484.102L197.261 484.824C197.261 486.445 196.808 487.747 195.903 488.73C194.998 489.707 193.784 490.195 192.261 490.195C190.737 490.195 189.52 489.707 188.608 488.73C187.703 487.754 187.251 486.426 187.251 484.746V484.619ZM190.073 484.824C190.073 485.827 190.262 486.595 190.639 487.129C191.017 487.656 191.557 487.92 192.261 487.92C192.944 487.92 193.478 487.66 193.862 487.139C194.246 486.611 194.438 485.771 194.438 484.619C194.438 483.636 194.246 482.874 193.862 482.334C193.478 481.794 192.938 481.523 192.241 481.523C191.551 481.523 191.017 481.794 190.639 482.334C190.262 482.868 190.073 483.698 190.073 484.824ZM202.398 486.553L204.361 479.434H207.31L203.745 490H201.05L197.486 479.434H200.435L202.398 486.553ZM212.886 490.195C211.337 490.195 210.074 489.72 209.097 488.77C208.127 487.819 207.642 486.553 207.642 484.971V484.697C207.642 483.636 207.847 482.689 208.257 481.855C208.668 481.016 209.247 480.371 209.996 479.922C210.751 479.466 211.61 479.238 212.574 479.238C214.019 479.238 215.155 479.694 215.982 480.605C216.815 481.517 217.232 482.809 217.232 484.482V485.635H210.504C210.595 486.325 210.868 486.878 211.324 487.295C211.786 487.712 212.369 487.92 213.072 487.92C214.159 487.92 215.009 487.526 215.621 486.738L217.007 488.291C216.584 488.89 216.011 489.359 215.289 489.697C214.566 490.029 213.765 490.195 212.886 490.195ZM212.564 481.523C212.004 481.523 211.548 481.712 211.197 482.09C210.852 482.467 210.63 483.008 210.533 483.711H214.459V483.486C214.446 482.861 214.276 482.38 213.951 482.041C213.625 481.696 213.163 481.523 212.564 481.523ZM224.381 482.08C223.997 482.028 223.658 482.002 223.365 482.002C222.298 482.002 221.598 482.363 221.266 483.086V490H218.443V479.434H221.109L221.188 480.693C221.754 479.723 222.538 479.238 223.541 479.238C223.854 479.238 224.146 479.281 224.42 479.365L224.381 482.08Z" fill="#333E48"/>
<path fill-rule="evenodd" clip-rule="evenodd" d="M47.802 42.564C47.66 42.8035 47.3075 43 47.0182 43H42.4817C42.1924 43 41.8395 42.8035 41.698 42.564L39.2545 38.4355C39.1125 38.196 39.1125 37.8035 39.2545 37.564L41.698 33.4355C41.8395 33.196 42.1924 33 42.4817 33H47.0182C47.3075 33 47.66 33.196 47.802 33.4355L50.2454 37.564C50.3869 37.8035 50.3869 38.196 50.2454 38.4355L47.802 42.564ZM38.3157 26C38.0326 26 37.6872 26.196 37.5488 26.4355L31.1042 37.564C30.9653 37.8035 30.9653 38.196 31.1042 38.4355L37.5488 49.564C37.6872 49.8035 38.0326 50 38.3157 50H51.1842C51.4673 50 51.8122 49.8035 51.9512 49.564L58.3957 38.4355C58.5342 38.196 58.5342 37.8035 58.3957 37.564L51.9512 26.4355C51.8122 26.196 51.4673 26 51.1842 26H38.3157Z" fill="url(#paint0_linear)"/>
<path opacity="0.5" fill-rule="evenodd" clip-rule="evenodd" d="M48.6343 43.9331C48.4536 44.2445 48.005 44.4999 47.6368 44.4999H41.863C41.4948 44.4999 41.0456 44.2445 40.8655 43.9331L37.7557 38.5661C37.5749 38.2548 37.5749 37.7445 37.7557 37.4332L40.8655 32.0661C41.0456 31.7548 41.4948 31.5 41.863 31.5H47.6368C48.005 31.5 48.4536 31.7548 48.6343 32.0661L51.7441 37.4332C51.9242 37.7445 51.9242 38.2548 51.7441 38.5661L48.6343 43.9331ZM47.8019 42.5639L50.2453 38.4355C50.3868 38.196 50.3868 37.8035 50.2453 37.564L47.8019 33.4355C47.6599 33.196 47.3074 33 47.0181 33H42.4816C42.1923 33 41.8393 33.196 41.6978 33.4355L39.2544 37.564C39.1124 37.8035 39.1124 38.196 39.2544 38.4355L41.6978 42.5639C41.8393 42.8034 42.1923 42.9999 42.4816 42.9999H47.0181C47.3074 42.9999 47.6599 42.8034 47.8019 42.5639Z" fill="url(#paint1_linear)"/>
<path fill-rule="evenodd" clip-rule="evenodd" d="M50.0047 152.174C50.0047 152.461 49.7655 152.696 49.4733 152.696H40.9709C40.6787 152.696 40.4395 152.461 40.4395 152.174V143.826C40.4395 143.539 40.6787 143.304 40.9709 143.304H49.4733C49.7655 143.304 50.0047 143.539 50.0047 143.826V152.174ZM33.5314 136C33.2391 136 33 136.235 33 136.522V159.478C33 159.765 33.2391 160 33.5314 160H56.9128C57.2051 160 57.4442 159.765 57.4442 159.478V136.522C57.4442 136.235 57.2051 136 56.9128 136H33.5314Z" fill="url(#paint2_linear)"/>
<path opacity="0.5" fill-rule="evenodd" clip-rule="evenodd" d="M50.0055 152.174C50.0055 152.461 49.7664 152.696 49.4741 152.696H40.9718C40.6795 152.696 40.4404 152.461 40.4404 152.174V143.826C40.4404 143.539 40.6795 143.304 40.9718 143.304H49.4741C49.7664 143.304 50.0055 143.539 50.0055 143.826V152.174ZM39.3776 141.739C39.0853 141.739 38.8462 141.974 38.8462 142.261V153.739C38.8462 154.026 39.0853 154.261 39.3776 154.261H51.0683C51.3605 154.261 51.5997 154.026 51.5997 153.739V142.261C51.5997 141.974 51.3605 141.739 51.0683 141.739H39.3776Z" fill="url(#paint3_linear)"/>
<path fill-rule="evenodd" clip-rule="evenodd" d="M53.055 262.171C53.055 262.53 52.7709 262.824 52.4237 262.824H47.0925C46.7452 262.824 46.6619 262.616 46.9075 262.362L52.6087 256.471C52.8542 256.217 53.055 256.303 53.055 256.662V262.171ZM30.1411 269.539C29.8955 269.793 29.9789 270 30.3261 270H59.3686C59.7159 270 60 269.706 60 269.348V239.337C60 238.978 59.7992 238.892 59.5536 239.146L30.1411 269.539Z" fill="url(#paint4_linear)"/>
<path opacity="0.5" fill-rule="evenodd" clip-rule="evenodd" d="M53.0558 262.171C53.0558 262.53 52.7717 262.824 52.4244 262.824H47.0933C46.746 262.824 46.6627 262.616 46.9083 262.362L52.6094 256.471C52.855 256.217 53.0558 256.303 53.0558 256.662V262.171ZM42.336 264.32C42.0904 264.573 42.1737 264.781 42.5203 264.781H54.3185C54.6657 264.781 54.9499 264.487 54.9499 264.128V251.937C54.9499 251.578 54.7491 251.492 54.5035 251.746L42.336 264.32Z" fill="url(#paint5_linear)"/>
<path fill-rule="evenodd" clip-rule="evenodd" d="M44 372.813C41.243 372.813 39 370.595 39 367.868C39 365.141 41.243 362.923 44 362.923C46.757 362.923 49 365.141 49 367.868C49 370.595 46.757 372.813 44 372.813ZM32 367.868C32 374.423 37.3725 379.736 44 379.736C50.6275 379.736 56 374.423 56 367.868C56 361.313 50.6275 356 44 356C37.3725 356 32 361.313 32 367.868Z" fill="url(#paint6_linear)"/>
<path opacity="0.5" fill-rule="evenodd" clip-rule="evenodd" d="M44.001 372.813C41.244 372.813 39.001 370.595 39.001 367.868C39.001 365.141 41.244 362.923 44.001 362.923C46.758 362.923 49.001 365.141 49.001 367.868C49.001 370.595 46.758 372.813 44.001 372.813ZM44.001 361.44C40.417 361.44 37.501 364.324 37.501 367.868C37.501 371.413 40.417 374.297 44.001 374.297C47.585 374.297 50.501 371.413 50.501 367.868C50.501 364.324 47.585 361.44 44.001 361.44Z" fill="url(#paint7_linear)"/>
<path fill-rule="evenodd" clip-rule="evenodd" d="M43.7809 480.096C43.9013 479.893 44.0982 479.893 44.219 480.096L46.9983 484.774C47.1191 484.977 47.0218 485.143 46.7828 485.143H41.2176C40.9786 485.143 40.8812 484.977 41.0016 484.774L43.7809 480.096ZM44.219 470.152C44.0986 469.949 43.9013 469.949 43.7809 470.152L32.0517 489.894C31.9314 490.097 32.0283 490.263 32.2673 490.263H55.7326C55.9721 490.263 56.0685 490.097 55.9482 489.894L44.219 470.152Z" fill="url(#paint8_linear)"/>
<path opacity="0.5" fill-rule="evenodd" clip-rule="evenodd" d="M43.7801 480.096C43.9005 479.893 44.0974 479.893 44.2182 480.096L46.9975 484.774C47.1183 484.977 47.021 485.143 46.782 485.143H41.2168C40.9778 485.143 40.8804 484.977 41.0008 484.774L43.7801 480.096ZM44.2182 477.556C44.0974 477.353 43.9005 477.353 43.7801 477.556L38.7316 486.054C38.6108 486.257 38.7082 486.423 38.9472 486.423H49.052C49.291 486.423 49.3879 486.257 49.2676 486.054L44.2182 477.556Z" fill="url(#paint9_linear)"/>
<path fill-rule="evenodd" clip-rule="evenodd" d="M43.3329 593.349C43.1496 593.531 42.8498 593.531 42.6665 593.349L39.468 590.186C39.2847 590.005 39.2847 589.708 39.468 589.527L42.6665 586.365C42.8498 586.183 43.1496 586.183 43.3329 586.365L46.5314 589.527C46.7147 589.708 46.7147 590.005 46.5314 590.186L43.3329 593.349ZM43.3334 577.136C43.1496 576.955 42.8503 576.955 42.667 577.136L30.1378 589.527C29.9541 589.708 29.9541 590.005 30.1378 590.186L42.667 602.578C42.8503 602.759 43.1496 602.759 43.3334 602.578L55.8625 590.186C56.0458 590.005 56.0458 589.708 55.8625 589.527L43.3334 577.136Z" fill="url(#paint10_linear)"/>
<path opacity="0.5" fill-rule="evenodd" clip-rule="evenodd" d="M39.4676 590.186C39.2843 590.005 39.2843 589.709 39.4676 589.527L42.6661 586.364C42.8495 586.183 43.1492 586.183 43.3325 586.364L46.531 589.527C46.7143 589.709 46.7143 590.005 46.531 590.186L43.3325 593.349C43.1492 593.531 42.8495 593.531 42.6661 593.349L39.4676 590.186ZM43.3325 584.387C43.1492 584.206 42.8495 584.206 42.6661 584.387L37.4681 589.527C37.2847 589.709 37.2847 590.005 37.4681 590.186L42.6661 595.327C42.8495 595.508 43.1492 595.508 43.3325 595.327L48.5306 590.186C48.7139 590.005 48.7139 589.709 48.5306 589.527L43.3325 584.387Z" fill="url(#paint11_linear)"/>
<defs>
<linearGradient id="paint0_linear" x1="31" y1="26.7944" x2="53.5733" y2="50.5525" gradientUnits="userSpaceOnUse">
<stop stop-color="#8BC1E6"/>
<stop offset="1" stop-color="#0175C9"/>
</linearGradient>
<linearGradient id="paint1_linear" x1="49.0172" y1="42.5234" x2="41.1562" y2="32.7483" gradientUnits="userSpaceOnUse">
<stop stop-color="#8BC1E6"/>
<stop offset="1" stop-color="#0175C9"/>
</linearGradient>
<linearGradient id="paint2_linear" x1="30.9277" y1="133.012" x2="56.9408" y2="160.477" gradientUnits="userSpaceOnUse">
<stop stop-color="#8BC1E6"/>
<stop offset="1" stop-color="#0175C9"/>
</linearGradient>
<linearGradient id="paint3_linear" x1="51.5997" y1="154.261" x2="39.0799" y2="141.51" gradientUnits="userSpaceOnUse">
<stop stop-color="#8BC1E6"/>
<stop offset="1" stop-color="#0175C9"/>
</linearGradient>
<linearGradient id="paint4_linear" x1="36.7799" y1="244.175" x2="60.8189" y2="269.214" gradientUnits="userSpaceOnUse">
<stop stop-color="#8BC1E6"/>
<stop offset="1" stop-color="#0175C9"/>
</linearGradient>
<linearGradient id="paint5_linear" x1="54.9494" y1="264.781" x2="48.3631" y2="258.407" gradientUnits="userSpaceOnUse">
<stop stop-color="#8BC1E6"/>
<stop offset="1" stop-color="#0175C9"/>
</linearGradient>
<linearGradient id="paint6_linear" x1="32" y1="353.842" x2="53.4047" y2="376.979" gradientUnits="userSpaceOnUse">
<stop stop-color="#8BC1E6"/>
<stop offset="1" stop-color="#0175C9"/>
</linearGradient>
<linearGradient id="paint7_linear" x1="48.4965" y1="371.893" x2="39.582" y2="362.992" gradientUnits="userSpaceOnUse">
<stop stop-color="#8BC1E6"/>
<stop offset="1" stop-color="#0175C9"/>
</linearGradient>
<linearGradient id="paint8_linear" x1="32" y1="471.278" x2="52.4308" y2="492.45" gradientUnits="userSpaceOnUse">
<stop stop-color="#8BC1E6"/>
<stop offset="1" stop-color="#0175C9"/>
</linearGradient>
<linearGradient id="paint9_linear" x1="49.3193" y1="485.274" x2="42.3612" y2="480.361" gradientUnits="userSpaceOnUse">
<stop stop-color="#8BC1E6"/>
<stop offset="1" stop-color="#0175C9"/>
</linearGradient>
<linearGradient id="paint10_linear" x1="30" y1="577.001" x2="52.1174" y2="598.939" gradientUnits="userSpaceOnUse">
<stop stop-color="#8BC1E6"/>
<stop offset="1" stop-color="#0175C9"/>
</linearGradient>
<linearGradient id="paint11_linear" x1="46.4223" y1="592.574" x2="39.9527" y2="586.476" gradientUnits="userSpaceOnUse">
<stop stop-color="#8BC1E6"/>
<stop offset="1" stop-color="#0175C9"/>
</linearGradient>
</defs>
</svg>
