<svg width="45" height="15" viewBox="0 0 45 15" fill="none" xmlns="http://www.w3.org/2000/svg">
<path d="M7.67734 10.7041C7.67734 10.1416 7.47812 9.70801 7.07969 9.40332C6.68711 9.09863 5.97519 8.79102 4.94394 8.48047C3.91269 8.16992 3.09238 7.82422 2.48301 7.44336C1.31699 6.71094 0.733984 5.75586 0.733984 4.57812C0.733984 3.54688 1.15293 2.69727 1.99082 2.0293C2.83457 1.36133 3.92734 1.02734 5.26914 1.02734C6.15977 1.02734 6.95371 1.19141 7.65098 1.51953C8.34824 1.84766 8.89609 2.31641 9.29453 2.92578C9.69297 3.5293 9.89219 4.2002 9.89219 4.93848H7.67734C7.67734 4.27051 7.46641 3.74902 7.04453 3.37402C6.62852 2.99316 6.03086 2.80273 5.25156 2.80273C4.525 2.80273 3.95957 2.95801 3.55527 3.26855C3.15684 3.5791 2.95762 4.0127 2.95762 4.56934C2.95762 5.03809 3.17441 5.43066 3.60801 5.74707C4.0416 6.05762 4.75644 6.3623 5.75254 6.66113C6.74863 6.9541 7.54844 7.29102 8.15195 7.67188C8.75547 8.04688 9.19785 8.48047 9.4791 8.97266C9.76035 9.45898 9.90098 10.0303 9.90098 10.6865C9.90098 11.7529 9.49082 12.6025 8.67051 13.2354C7.85605 13.8623 6.74863 14.1758 5.34824 14.1758C4.42246 14.1758 3.56992 14.0059 2.79062 13.666C2.01719 13.3203 1.41367 12.8457 0.980078 12.2422C0.552343 11.6387 0.338476 10.9355 0.338476 10.1328H2.56211C2.56211 10.8594 2.80234 11.4219 3.28281 11.8203C3.76328 12.2188 4.45176 12.418 5.34824 12.418C6.12168 12.418 6.70176 12.2627 7.08848 11.9521C7.48105 11.6357 7.67734 11.2197 7.67734 10.7041ZM13.5506 5.52734C14.2479 4.71875 15.1297 4.31445 16.1961 4.31445C18.2234 4.31445 19.2518 5.47168 19.2811 7.78613V14H17.1453V7.86523C17.1453 7.20898 17.0018 6.74609 16.7146 6.47656C16.4334 6.20117 16.0174 6.06348 15.4666 6.06348C14.6111 6.06348 13.9725 6.44434 13.5506 7.20605V14H11.4148V0.5H13.5506V5.52734ZM26.9297 14C26.8359 13.8184 26.7539 13.5225 26.6836 13.1123C26.0039 13.8213 25.1719 14.1758 24.1875 14.1758C23.2324 14.1758 22.4531 13.9033 21.8496 13.3584C21.2461 12.8135 20.9443 12.1396 20.9443 11.3369C20.9443 10.3232 21.3193 9.54688 22.0693 9.00781C22.8252 8.46289 23.9033 8.19043 25.3037 8.19043H26.6133V7.56641C26.6133 7.07422 26.4756 6.68164 26.2002 6.38867C25.9248 6.08984 25.5059 5.94043 24.9434 5.94043C24.457 5.94043 24.0586 6.06348 23.748 6.30957C23.4375 6.5498 23.2822 6.85742 23.2822 7.23242H21.1465C21.1465 6.71094 21.3193 6.22461 21.665 5.77344C22.0107 5.31641 22.4795 4.95898 23.0713 4.70117C23.6689 4.44336 24.334 4.31445 25.0664 4.31445C26.1797 4.31445 27.0674 4.5957 27.7295 5.1582C28.3916 5.71484 28.7314 6.5 28.749 7.51367V11.8027C28.749 12.6582 28.8691 13.3408 29.1094 13.8506V14H26.9297ZM24.583 12.4619C25.0049 12.4619 25.4004 12.3594 25.7695 12.1543C26.1445 11.9492 26.4258 11.6738 26.6133 11.3281V9.53516H25.4619C24.6709 9.53516 24.0762 9.67285 23.6777 9.94824C23.2793 10.2236 23.0801 10.6133 23.0801 11.1172C23.0801 11.5273 23.2148 11.8555 23.4844 12.1016C23.7598 12.3418 24.126 12.4619 24.583 12.4619ZM35.7648 6.44141C35.4836 6.39453 35.1936 6.37109 34.8947 6.37109C33.9162 6.37109 33.257 6.74609 32.9172 7.49609V14H30.7814V4.49023H32.8205L32.8732 5.55371C33.3889 4.72754 34.1037 4.31445 35.0178 4.31445C35.3225 4.31445 35.5744 4.35547 35.7736 4.4375L35.7648 6.44141ZM40.9262 14.1758C39.5727 14.1758 38.474 13.751 37.6303 12.9014C36.7924 12.0459 36.3734 10.9092 36.3734 9.49121V9.22754C36.3734 8.27832 36.5551 7.43164 36.9184 6.6875C37.2875 5.9375 37.8031 5.35449 38.4652 4.93848C39.1273 4.52246 39.8656 4.31445 40.6801 4.31445C41.975 4.31445 42.974 4.72754 43.6771 5.55371C44.3861 6.37988 44.7406 7.54883 44.7406 9.06055V9.92188H38.5268C38.5912 10.707 38.852 11.3281 39.309 11.7852C39.7719 12.2422 40.352 12.4707 41.0492 12.4707C42.0277 12.4707 42.8246 12.0752 43.4398 11.2842L44.5912 12.3828C44.2104 12.9512 43.7006 13.3936 43.0619 13.71C42.4291 14.0205 41.7172 14.1758 40.9262 14.1758ZM40.6713 6.02832C40.0854 6.02832 39.6107 6.2334 39.2475 6.64355C38.89 7.05371 38.6615 7.625 38.5619 8.35742H42.6312V8.19922C42.5844 7.48438 42.3939 6.94531 42.06 6.58203C41.726 6.21289 41.2631 6.02832 40.6713 6.02832Z" fill="#0075C9"/>
</svg>
