<svg width="52" height="50" viewBox="0 0 52 50" fill="none" xmlns="http://www.w3.org/2000/svg">
<path d="M41.1201 13.0435C37.1762 13.0435 34.666 10.2016 34.666 6.52174C34.666 2.8419 37.1762 0 41.1201 0H41.2987C45.2476 0 47.666 2.83685 47.666 6.52174C47.666 10.2066 45.2476 13.0435 41.2987 13.0435H41.1201Z" fill="white"/>
<path d="M10.7881 13.0435C6.84418 13.0435 4.33398 10.2016 4.33398 6.52174C4.33398 2.8419 6.84418 0 10.7881 0H10.9666C14.9156 0 17.334 2.83685 17.334 6.52174C17.334 10.2066 14.9156 13.0435 10.9666 13.0435H10.7881Z" fill="white"/>
<path d="M52 23.913C52 27.3388 51.3275 30.7311 50.0209 33.8961C48.7142 37.0611 46.7991 39.9369 44.3848 42.3593C41.9705 44.7817 39.1042 46.7033 35.9498 48.0143C32.7953 49.3252 29.4144 50 26 50C22.5856 50 19.2047 49.3252 16.0502 48.0143C12.8958 46.7033 10.0295 44.7817 7.61522 42.3593C5.2009 39.9369 3.28576 37.0611 1.97913 33.8961C0.672513 30.7311 3.65051e-06 27.3388 4.54599e-06 23.913L13 23.913C13 25.6259 13.3363 27.3221 13.9896 28.9046C14.6429 30.4871 15.6005 31.925 16.8076 33.1362C18.0148 34.3474 19.4479 35.3082 21.0251 35.9636C22.6024 36.6191 24.2928 36.9565 26 36.9565C27.7072 36.9565 29.3977 36.6191 30.9749 35.9637C32.5521 35.3082 33.9852 34.3474 35.1924 33.1362C36.3996 31.925 37.3571 30.4871 38.0104 28.9046C38.6637 27.3221 39 25.6259 39 23.913L52 23.913Z" fill="white"/>
</svg>
