<svg width="166" height="16" viewBox="0 0 166 16" fill="none" xmlns="http://www.w3.org/2000/svg">
<path d="M26.8906 10.5527C26.8906 10.0013 26.6969 9.56608 26.3096 9.24707C25.9222 8.9235 25.2135 8.61816 24.1836 8.33105C23.1536 8.03939 22.4017 7.72266 21.9277 7.38086C21.2533 6.89779 20.916 6.26432 20.916 5.48047C20.916 4.7194 21.2282 4.10189 21.8525 3.62793C22.4814 3.14941 23.2835 2.91016 24.2588 2.91016C24.9196 2.91016 25.5098 3.03776 26.0293 3.29297C26.5534 3.54818 26.959 3.90365 27.2461 4.35938C27.5332 4.8151 27.6768 5.32324 27.6768 5.88379H26.8291C26.8291 5.20475 26.5967 4.66016 26.1318 4.25C25.667 3.83529 25.0426 3.62793 24.2588 3.62793C23.4977 3.62793 22.8916 3.79883 22.4404 4.14062C21.9893 4.47786 21.7637 4.91992 21.7637 5.4668C21.7637 5.97266 21.9665 6.38509 22.3721 6.7041C22.7777 7.02311 23.4271 7.30566 24.3203 7.55176C25.2135 7.79329 25.8903 8.04622 26.3506 8.31055C26.8109 8.57031 27.1572 8.88249 27.3896 9.24707C27.6221 9.61165 27.7383 10.0423 27.7383 10.5391C27.7383 11.3229 27.4238 11.9518 26.7949 12.4258C26.1706 12.8997 25.3457 13.1367 24.3203 13.1367C23.6185 13.1367 22.9736 13.0114 22.3857 12.7607C21.8024 12.5101 21.3581 12.1592 21.0527 11.708C20.752 11.2568 20.6016 10.7396 20.6016 10.1562H21.4424C21.4424 10.8581 21.7044 11.4118 22.2285 11.8174C22.7526 12.223 23.4499 12.4258 24.3203 12.4258C25.0951 12.4258 25.7171 12.2549 26.1865 11.9131C26.6559 11.5713 26.8906 11.1178 26.8906 10.5527ZM30.909 3.70996V5.60352H32.4403V6.27344H30.909V11.2021C30.909 11.6123 30.982 11.9176 31.1278 12.1182C31.2782 12.3187 31.5266 12.4189 31.8729 12.4189C32.0096 12.4189 32.2307 12.3962 32.536 12.3506L32.5702 13.0205C32.356 13.098 32.0643 13.1367 31.6952 13.1367C31.1346 13.1367 30.7268 12.9749 30.4715 12.6514C30.2163 12.3232 30.0887 11.8424 30.0887 11.209V6.27344H28.7284V5.60352H30.0887V3.70996H30.909ZM39.0769 13C38.9948 12.7676 38.9424 12.4235 38.9196 11.9678C38.6325 12.3415 38.2657 12.6309 37.8191 12.8359C37.377 13.0365 36.9076 13.1367 36.4109 13.1367C35.6999 13.1367 35.1234 12.9385 34.6814 12.542C34.2439 12.1455 34.0251 11.6442 34.0251 11.0381C34.0251 10.318 34.3236 9.74837 34.9206 9.3291C35.5222 8.90983 36.3585 8.7002 37.4294 8.7002H38.9128V7.85938C38.9128 7.33073 38.7487 6.91602 38.4206 6.61523C38.0971 6.3099 37.6231 6.15723 36.9987 6.15723C36.4291 6.15723 35.9574 6.30306 35.5837 6.59473C35.21 6.88639 35.0232 7.2373 35.0232 7.64746L34.2029 7.64062C34.2029 7.05273 34.4763 6.5446 35.0232 6.11621C35.57 5.68327 36.2422 5.4668 37.0398 5.4668C37.8646 5.4668 38.514 5.67415 38.988 6.08887C39.4665 6.49902 39.7126 7.07324 39.7263 7.81152V11.3115C39.7263 12.027 39.8015 12.5625 39.9519 12.918V13H39.0769ZM36.5066 12.4121C37.0534 12.4121 37.5411 12.2799 37.9695 12.0156C38.4024 11.7513 38.7168 11.3981 38.9128 10.9561V9.3291H37.4499C36.6342 9.33822 35.9961 9.48861 35.5359 9.78027C35.0756 10.0674 34.8454 10.4639 34.8454 10.9697C34.8454 11.3844 34.9981 11.7285 35.3034 12.002C35.6133 12.2754 36.0144 12.4121 36.5066 12.4121ZM45.6041 6.30078C45.4309 6.26888 45.2463 6.25293 45.0504 6.25293C44.54 6.25293 44.107 6.39648 43.7515 6.68359C43.4006 6.96615 43.15 7.37858 42.9996 7.9209V13H42.1861V5.60352H42.9859L42.9996 6.7793C43.4325 5.9043 44.1275 5.4668 45.0846 5.4668C45.3124 5.4668 45.4924 5.49642 45.6246 5.55566L45.6041 6.30078ZM48.7885 3.70996V5.60352H50.3198V6.27344H48.7885V11.2021C48.7885 11.6123 48.8614 11.9176 49.0073 12.1182C49.1577 12.3187 49.406 12.4189 49.7524 12.4189C49.8891 12.4189 50.1101 12.3962 50.4155 12.3506L50.4496 13.0205C50.2355 13.098 49.9438 13.1367 49.5746 13.1367C49.0141 13.1367 48.6062 12.9749 48.351 12.6514C48.0958 12.3232 47.9682 11.8424 47.9682 11.209V6.27344H46.6079V5.60352H47.9682V3.70996H48.7885ZM53.2034 13H52.3831V5.60352H53.2034V13ZM52.2396 3.46387C52.2396 3.30892 52.2897 3.17904 52.3899 3.07422C52.4902 2.96484 52.6269 2.91016 52.8001 2.91016C52.9733 2.91016 53.11 2.96484 53.2103 3.07422C53.3151 3.17904 53.3675 3.30892 53.3675 3.46387C53.3675 3.61882 53.3151 3.7487 53.2103 3.85352C53.11 3.95833 52.9733 4.01074 52.8001 4.01074C52.6269 4.01074 52.4902 3.95833 52.3899 3.85352C52.2897 3.7487 52.2396 3.61882 52.2396 3.46387ZM56.4836 5.60352L56.5109 6.86816C56.7889 6.41243 57.1352 6.06608 57.55 5.8291C57.9647 5.58757 58.4227 5.4668 58.924 5.4668C59.717 5.4668 60.3071 5.6901 60.6945 6.13672C61.0819 6.58333 61.2778 7.25326 61.2824 8.14648V13H60.4689V8.13965C60.4643 7.47884 60.3231 6.98665 60.0451 6.66309C59.7716 6.33952 59.3319 6.17773 58.7257 6.17773C58.2199 6.17773 57.771 6.33724 57.3791 6.65625C56.9917 6.9707 56.7046 7.39681 56.5177 7.93457V13H55.7043V5.60352H56.4836ZM63.3457 9.2334C63.3457 8.07585 63.6009 7.15983 64.1113 6.48535C64.6263 5.80632 65.3236 5.4668 66.2031 5.4668C67.2103 5.4668 67.9759 5.86784 68.5 6.66992L68.541 5.60352H69.3067V12.8496C69.3067 13.8021 69.0401 14.5563 68.5069 15.1123C67.9737 15.6683 67.2513 15.9463 66.3399 15.9463C65.8249 15.9463 65.3327 15.8301 64.8633 15.5977C64.3985 15.3698 64.0316 15.0645 63.7627 14.6816L64.2207 14.1895C64.7995 14.9004 65.4876 15.2559 66.2852 15.2559C66.9688 15.2559 67.502 15.0531 67.8848 14.6475C68.2676 14.2464 68.4658 13.6882 68.4795 12.9727V12.043C67.9554 12.7721 67.1921 13.1367 66.1895 13.1367C65.3327 13.1367 64.6446 12.7949 64.125 12.1113C63.6055 11.4277 63.3457 10.5049 63.3457 9.34277V9.2334ZM64.1729 9.37695C64.1729 10.3203 64.362 11.0654 64.7403 11.6123C65.1185 12.1546 65.6517 12.4258 66.3399 12.4258C67.347 12.4258 68.0602 11.9746 68.4795 11.0723V7.63379C68.2881 7.15983 68.0124 6.7998 67.6524 6.55371C67.2923 6.30306 66.8594 6.17773 66.3535 6.17773C65.6654 6.17773 65.1299 6.44889 64.7471 6.99121C64.3643 7.52897 64.1729 8.32422 64.1729 9.37695ZM75.9763 13V6.27344H74.7527V5.60352H75.9763V4.70801C75.9763 3.9515 76.1677 3.37044 76.5505 2.96484C76.9379 2.55924 77.4757 2.35645 78.1638 2.35645C78.4737 2.35645 78.7631 2.39518 79.032 2.47266L78.9704 3.15625C78.7426 3.10156 78.4942 3.07422 78.2253 3.07422C77.7742 3.07422 77.4232 3.21549 77.1726 3.49805C76.9219 3.77604 76.7966 4.17253 76.7966 4.6875V5.60352H78.5603V6.27344H76.7966V13H75.9763ZM83.7135 6.30078C83.5403 6.26888 83.3557 6.25293 83.1598 6.25293C82.6494 6.25293 82.2164 6.39648 81.8609 6.68359C81.51 6.96615 81.2594 7.37858 81.109 7.9209V13H80.2955V5.60352H81.0953L81.109 6.7793C81.5419 5.9043 82.2369 5.4668 83.1939 5.4668C83.4218 5.4668 83.6018 5.49642 83.734 5.55566L83.7135 6.30078ZM84.6967 9.19238C84.6967 8.48145 84.8335 7.84115 85.1069 7.27148C85.3849 6.70182 85.7745 6.25977 86.2758 5.94531C86.7817 5.6263 87.3536 5.4668 87.9917 5.4668C88.976 5.4668 89.7736 5.81315 90.3842 6.50586C90.9949 7.19401 91.3003 8.10775 91.3003 9.24707V9.41797C91.3003 10.1335 91.1613 10.7783 90.8833 11.3525C90.6098 11.9222 90.2225 12.362 89.7212 12.6719C89.2199 12.9818 88.6479 13.1367 88.0053 13.1367C87.0255 13.1367 86.228 12.7926 85.6128 12.1045C85.0021 11.4118 84.6967 10.4958 84.6967 9.35645V9.19238ZM85.5171 9.41797C85.5171 10.3021 85.7449 11.029 86.2006 11.5986C86.6609 12.1637 87.2625 12.4463 88.0053 12.4463C88.7436 12.4463 89.3406 12.1637 89.7963 11.5986C90.2566 11.029 90.4868 10.2793 90.4868 9.34961V9.19238C90.4868 8.62728 90.382 8.11003 90.1723 7.64062C89.9627 7.17122 89.6687 6.80892 89.2905 6.55371C88.9122 6.29395 88.4793 6.16406 87.9917 6.16406C87.2625 6.16406 86.6678 6.45117 86.2075 7.02539C85.7472 7.59505 85.5171 8.34245 85.5171 9.26758V9.41797ZM94.013 5.60352L94.0404 6.80664C94.3138 6.36003 94.6556 6.02507 95.0657 5.80176C95.4759 5.57845 95.9316 5.4668 96.4329 5.4668C97.5996 5.4668 98.3402 5.94531 98.6546 6.90234C98.9189 6.44206 99.2721 6.08887 99.7142 5.84277C100.156 5.59212 100.644 5.4668 101.177 5.4668C102.763 5.4668 103.572 6.33268 103.604 8.06445V13H102.784V8.12598C102.779 7.46517 102.635 6.97526 102.353 6.65625C102.075 6.33724 101.619 6.17773 100.986 6.17773C100.398 6.18685 99.901 6.37826 99.4954 6.75195C99.0898 7.12109 98.8642 7.57227 98.8187 8.10547V13H97.9984V8.06445C97.9938 7.43099 97.8434 6.95931 97.5472 6.64941C97.2555 6.33496 96.8043 6.17773 96.1937 6.17773C95.6787 6.17773 95.2366 6.32585 94.8675 6.62207C94.4984 6.91374 94.2249 7.34896 94.0472 7.92773V13H93.2269V5.60352H94.013ZM113.541 8.85742H110.649V13H109.802V3.04688H113.035C114.097 3.04688 114.926 3.30436 115.523 3.81934C116.12 4.33431 116.419 5.05436 116.419 5.97949C116.419 6.61751 116.232 7.18034 115.858 7.66797C115.485 8.1556 114.983 8.49284 114.355 8.67969L116.843 12.9111V13H115.947L113.541 8.85742ZM110.649 8.13965H113.227C113.933 8.13965 114.5 7.93913 114.929 7.53809C115.357 7.13704 115.571 6.61751 115.571 5.97949C115.571 5.27767 115.348 4.73307 114.901 4.3457C114.455 3.95833 113.828 3.76465 113.022 3.76465H110.649V8.13965ZM122.468 13H121.647V4.03125L118.94 5.03613V4.27051L122.331 3.0127H122.468V13ZM132.7 8.85059C132.7 10.2542 132.442 11.3206 131.927 12.0498C131.413 12.7744 130.654 13.1367 129.651 13.1367C128.667 13.1367 127.913 12.7812 127.388 12.0703C126.864 11.3548 126.595 10.3158 126.582 8.95312V7.16895C126.582 5.76986 126.842 4.71029 127.361 3.99023C127.881 3.27018 128.639 2.91016 129.637 2.91016C130.622 2.91016 131.374 3.25879 131.893 3.95605C132.413 4.64876 132.682 5.67188 132.7 7.02539V8.85059ZM131.88 7.06641C131.88 5.92708 131.693 5.06576 131.319 4.48242C130.95 3.89909 130.389 3.60742 129.637 3.60742C128.899 3.60742 128.343 3.89225 127.969 4.46191C127.596 5.03158 127.404 5.8724 127.395 6.98438V8.93945C127.395 10.0742 127.587 10.9424 127.969 11.5439C128.357 12.1455 128.917 12.4463 129.651 12.4463C130.38 12.4463 130.932 12.1523 131.305 11.5645C131.684 10.9766 131.875 10.1152 131.88 8.98047V7.06641ZM140.738 8.85059C140.738 10.2542 140.48 11.3206 139.965 12.0498C139.45 12.7744 138.692 13.1367 137.689 13.1367C136.705 13.1367 135.95 12.7812 135.426 12.0703C134.902 11.3548 134.633 10.3158 134.62 8.95312V7.16895C134.62 5.76986 134.88 4.71029 135.399 3.99023C135.919 3.27018 136.677 2.91016 137.675 2.91016C138.66 2.91016 139.412 3.25879 139.931 3.95605C140.451 4.64876 140.72 5.67188 140.738 7.02539V8.85059ZM139.918 7.06641C139.918 5.92708 139.731 5.06576 139.357 4.48242C138.988 3.89909 138.427 3.60742 137.675 3.60742C136.937 3.60742 136.381 3.89225 136.007 4.46191C135.634 5.03158 135.442 5.8724 135.433 6.98438V8.93945C135.433 10.0742 135.625 10.9424 136.007 11.5439C136.395 12.1455 136.955 12.4463 137.689 12.4463C138.418 12.4463 138.97 12.1523 139.343 11.5645C139.722 10.9766 139.913 10.1152 139.918 8.98047V7.06641ZM152.528 9.37695C152.528 10.5299 152.272 11.446 151.762 12.125C151.252 12.7995 150.568 13.1367 149.711 13.1367C148.7 13.1367 147.925 12.7812 147.387 12.0703V15.8438H146.574V5.60352H147.332L147.373 6.64941C147.907 5.861 148.679 5.4668 149.691 5.4668C150.575 5.4668 151.268 5.80176 151.769 6.47168C152.275 7.1416 152.528 8.07129 152.528 9.26074V9.37695ZM151.707 9.2334C151.707 8.29004 151.514 7.54492 151.126 6.99805C150.739 6.45117 150.199 6.17773 149.506 6.17773C149.005 6.17773 148.574 6.2985 148.214 6.54004C147.854 6.78158 147.578 7.13249 147.387 7.59277V11.1406C147.583 11.5645 147.863 11.888 148.228 12.1113C148.592 12.3346 149.023 12.4463 149.52 12.4463C150.208 12.4463 150.743 12.1729 151.126 11.626C151.514 11.0745 151.707 10.277 151.707 9.2334ZM155.363 5.60352L155.391 6.80664C155.664 6.36003 156.006 6.02507 156.416 5.80176C156.826 5.57845 157.282 5.4668 157.783 5.4668C158.95 5.4668 159.691 5.94531 160.005 6.90234C160.269 6.44206 160.623 6.08887 161.065 5.84277C161.507 5.59212 161.994 5.4668 162.528 5.4668C164.113 5.4668 164.922 6.33268 164.954 8.06445V13H164.134V8.12598C164.129 7.46517 163.986 6.97526 163.703 6.65625C163.425 6.33724 162.97 6.17773 162.336 6.17773C161.748 6.18685 161.252 6.37826 160.846 6.75195C160.44 7.12109 160.215 7.57227 160.169 8.10547V13H159.349V8.06445C159.344 7.43099 159.194 6.95931 158.898 6.64941C158.606 6.33496 158.155 6.17773 157.544 6.17773C157.029 6.17773 156.587 6.32585 156.218 6.62207C155.849 6.91374 155.575 7.34896 155.398 7.92773V13H154.577V5.60352H155.363Z" fill="#AAAEB9"/>
<circle cx="5" cy="8" r="5" fill="#C4C4C4"/>
<path d="M5.46154 5C5.20704 5 5 5.20346 5 5.45355C5 5.7034 5.20704 5.90668 5.46154 5.90668C5.71604 5.90668 5.92308 5.7034 5.92308 5.45355C5.92308 5.20346 5.71604 5 5.46154 5Z" fill="white"/>
<path d="M5.46154 6.8125C5.20665 6.8125 5 7.01539 5 7.26565V9.98456C5 10.2348 5.20665 10.4377 5.46154 10.4377C5.71643 10.4377 5.92308 10.2348 5.92308 9.98456V7.26565C5.92308 7.01539 5.71643 6.8125 5.46154 6.8125Z" fill="white"/>
</svg>
