<svg width="36" height="36" viewBox="0 0 36 36" fill="none" xmlns="http://www.w3.org/2000/svg">
<path fill-rule="evenodd" clip-rule="evenodd" d="M17.8987 0C8.00875 0 0 8.02667 0 17.9167C0 27.8067 8.00875 35.8333 17.8987 35.8333C27.8067 35.8333 35.8333 27.8067 35.8333 17.9167C35.8333 8.02667 27.8067 0 17.8987 0ZM17.9167 32.25C9.9975 32.25 3.58333 25.8358 3.58333 17.9167C3.58333 9.9975 9.9975 3.58333 17.9167 3.58333C25.8358 3.58333 32.25 9.9975 32.25 17.9167C32.25 25.8358 25.8358 32.25 17.9167 32.25ZM16.125 8.95833H18.8125V18.3646L26.875 23.1483L25.5312 25.3521L16.125 19.7083V8.95833Z" fill="#0151A3"/>
</svg>
