<svg width="40" height="39" viewBox="0 0 40 39" fill="none" xmlns="http://www.w3.org/2000/svg">
<path d="M21.9922 0H6.99219C3.67848 0 0.992188 2.83553 0.992188 6.33333V31.6667C0.992188 35.1645 3.67848 38 6.99219 38H21.9922C25.3059 38 27.9922 35.1645 27.9922 31.6667V6.33333C27.9922 2.83553 25.3059 0 21.9922 0ZM17.4922 34.8333H11.4922C10.6638 34.8333 9.99219 34.1245 9.99219 33.25C9.99219 32.3755 10.6638 31.6667 11.4922 31.6667H17.4922C18.3206 31.6667 18.9922 32.3755 18.9922 33.25C18.9922 34.1245 18.3206 34.8333 17.4922 34.8333ZM23.4922 28.5H5.49219V6.33333H23.4922V28.5Z" fill="#0075C9"/>
<path d="M29.9137 38.9608C35.3931 38.9608 39.8351 34.4924 39.8351 28.9804C39.8351 23.4684 35.3931 19 29.9137 19C24.4342 19 19.9922 23.4684 19.9922 28.9804C19.9922 34.4924 24.4342 38.9608 29.9137 38.9608Z" fill="white"/>
<path d="M35.7435 23.0894C32.513 19.8497 27.2853 19.8558 24.0623 23.103C20.8393 26.3502 20.8393 31.6109 24.0623 34.8582C27.2853 38.1054 32.513 38.1114 35.7435 34.8718C37.2996 33.3112 38.1743 31.1914 38.1743 28.9806C38.1743 26.7698 37.2996 24.6499 35.7435 23.0894ZM33.8633 26.6518L29.3108 31.9955L26.0394 29.5281C25.7351 29.2984 25.6735 28.864 25.9017 28.5578C26.1299 28.2516 26.5616 28.1895 26.8659 28.4192L29.1042 30.1103L32.8164 25.7508C33.0637 25.4599 33.4984 25.4258 33.7875 25.6746C34.0766 25.9234 34.1105 26.3609 33.8633 26.6518Z" fill="#76C2B6"/>
</svg>
