<svg width="31" height="33" viewBox="0 0 31 33" fill="none" xmlns="http://www.w3.org/2000/svg">
<path d="M27.1321 8.9534C26.2618 9.34147 25.3915 9.63252 24.4245 9.72954C25.3915 9.14743 26.1651 8.17725 26.5519 7.11006C25.5849 7.69216 24.6179 8.08024 23.5542 8.27427C22.6839 7.30409 21.4268 6.72198 20.0729 6.72198C17.462 6.72198 15.3346 8.85638 15.3346 11.4759C15.3346 11.8639 15.3346 12.252 15.4313 12.5431C11.3698 12.349 7.88858 10.4087 5.56775 7.49813C5.08424 8.27427 4.89084 9.05041 4.89084 9.92358C4.89084 11.5729 5.76115 13.0281 7.01827 13.9013C6.24466 13.9013 5.47105 13.7073 4.89084 13.3192C4.89084 13.3192 4.89084 13.3192 4.89084 13.4162C4.89084 15.7446 6.53476 17.685 8.66219 18.0731C8.27538 18.1701 7.88858 18.2671 7.40507 18.2671C7.11497 18.2671 6.82487 18.2671 6.53476 18.1701C7.11497 20.1105 8.85559 21.4687 10.983 21.4687C9.3391 22.7299 7.30837 23.5061 5.08424 23.5061C4.69744 23.5061 4.31063 23.5061 3.92383 23.4091C6.05126 24.7673 8.56549 25.5435 11.1764 25.5435C19.9762 25.5435 24.7146 18.2671 24.7146 11.961C24.7146 11.7669 24.7146 11.5729 24.7146 11.3788C25.6816 10.6997 26.4552 9.82656 27.1321 8.9534Z" fill="#0075C9"/>
</svg>
