<svg width="37" height="31" viewBox="0 0 37 31" fill="none" xmlns="http://www.w3.org/2000/svg">
<path d="M32.375 8.60221C31.3344 8.97507 30.2938 9.2547 29.1375 9.34792C30.2938 8.78864 31.2188 7.85651 31.6812 6.83117C30.525 7.39044 29.3687 7.7633 28.0969 7.94972C27.0562 7.01759 25.5531 6.45831 23.9344 6.45831C20.8125 6.45831 18.2687 8.509 18.2687 11.0258C18.2687 11.3986 18.2688 11.7715 18.3844 12.0511C13.5281 11.8647 9.36562 10.0004 6.59063 7.20402C6.0125 7.94972 5.78125 8.69543 5.78125 9.53434C5.78125 11.119 6.82187 12.5172 8.325 13.3561C7.4 13.3561 6.475 13.1697 5.78125 12.7968C5.78125 12.7968 5.78125 12.7968 5.78125 12.89C5.78125 15.1271 7.74688 16.9914 10.2906 17.3642C9.82812 17.4575 9.36562 17.5507 8.7875 17.5507C8.44063 17.5507 8.09375 17.5507 7.74688 17.4575C8.44063 19.3217 10.5219 20.6267 13.0656 20.6267C11.1 21.8385 8.67188 22.5842 6.0125 22.5842C5.55 22.5842 5.0875 22.5842 4.625 22.491C7.16875 23.7959 10.175 24.5416 13.2969 24.5416C23.8188 24.5416 29.4844 17.5507 29.4844 11.4918C29.4844 11.3054 29.4844 11.119 29.4844 10.9325C30.6406 10.28 31.5656 9.44113 32.375 8.60221Z" fill="white"/>
</svg>
