<svg width="34" height="34" viewBox="0 0 34 34" fill="none" xmlns="http://www.w3.org/2000/svg">
<path fill-rule="evenodd" clip-rule="evenodd" d="M29.7497 8.49998C30.6941 9.32637 30.9302 11.3333 30.9302 11.3333C30.9302 11.3333 31.1663 13.5764 31.1663 15.8194V17.9444C31.1663 20.3055 30.9302 22.5486 30.9302 22.5486C30.9302 22.5486 30.5761 24.5555 29.7497 25.3819C28.8559 26.2757 27.8785 26.4176 27.2393 26.5105C27.1187 26.528 27.0101 26.5437 26.9163 26.5625C22.9025 26.9166 16.9997 26.9166 16.9997 26.9166C16.9997 26.9166 9.56217 26.9166 7.31912 26.6805C7.20589 26.6579 7.06224 26.6439 6.89652 26.6278C6.19836 26.56 5.10836 26.4541 4.24967 25.5C3.30523 24.6736 3.06912 22.6666 3.06912 22.6666C3.06912 22.6666 2.83301 20.3055 2.83301 18.0625V15.9375C2.83301 13.5764 3.06912 11.3333 3.06912 11.3333C3.06912 11.3333 3.42329 9.32637 4.24967 8.49998C5.14349 7.60617 6.12084 7.46426 6.76006 7.37145C6.8807 7.35393 6.98929 7.33817 7.08301 7.31942C11.0969 7.08331 16.9997 7.08331 16.9997 7.08331C16.9997 7.08331 22.9025 7.08331 26.9163 7.31942C27.5066 7.31942 28.6872 7.31942 29.7497 8.49998ZM14.1663 12.75V21.25L21.2496 17.0634L14.1663 12.75Z" fill="white"/>
</svg>
